<svg xmlns="http://www.w3.org/2000/svg" id="DLA_albert_Logo_White_copy" viewBox="101.17 45.18 391.33 101.52">
  <defs>
    <style>.cls-1{fill:url(#radial-gradient-34);}.cls-2{fill:url(#radial-gradient-48);}.cls-2,.cls-3,.cls-4,.cls-5,.cls-6,.cls-7,.cls-8,.cls-9,.cls-10,.cls-11,.cls-12,.cls-13,.cls-14,.cls-15,.cls-16,.cls-17,.cls-18,.cls-19,.cls-20,.cls-21,.cls-22,.cls-23,.cls-24,.cls-25,.cls-26,.cls-27,.cls-28,.cls-29,.cls-30,.cls-31,.cls-32,.cls-33,.cls-34,.cls-35,.cls-36{isolation:isolate;}.cls-2,.cls-4,.cls-5,.cls-9,.cls-10,.cls-11,.cls-12,.cls-14,.cls-19,.cls-22,.cls-26,.cls-27,.cls-30,.cls-33,.cls-35{mix-blend-mode:multiply;}.cls-37{fill:url(#radial-gradient-10);}.cls-3{fill:url(#radial-gradient-44);}.cls-3,.cls-6,.cls-7,.cls-8,.cls-13,.cls-15,.cls-16,.cls-18,.cls-20,.cls-21,.cls-23,.cls-24,.cls-25,.cls-28,.cls-29,.cls-31,.cls-32,.cls-34,.cls-36{mix-blend-mode:screen;}.cls-38{fill:url(#linear-gradient-13);}.cls-4{fill:url(#linear-gradient-3);}.cls-39{fill:#010101;}.cls-40{fill:url(#radial-gradient-35);}.cls-5{fill:url(#linear-gradient-2);}.cls-41{fill:url(#radial-gradient-9);}.cls-6{fill:url(#radial-gradient-54);}.cls-7{fill:url(#radial-gradient-25);}.cls-42{fill:url(#linear-gradient-10);}.cls-43{fill:url(#linear-gradient-12);}.cls-8{fill:url(#radial-gradient-42);}.cls-44{fill:url(#radial-gradient-61);}.cls-9{fill:url(#radial-gradient-26);}.cls-45{fill:url(#radial-gradient-14);}.cls-10{fill:url(#radial-gradient-18);}.cls-46{fill:#fff;}.cls-47{fill:url(#radial-gradient-58);}.cls-48{fill:url(#radial-gradient-16);}.cls-11{fill:url(#radial-gradient-40);}.cls-49{fill:url(#radial-gradient-38);}.cls-12{fill:url(#radial-gradient-24);}.cls-13{fill:url(#radial-gradient-55);}.cls-50{fill:url(#radial-gradient-5);}.cls-51{fill:url(#radial-gradient-37);}.cls-14{fill:url(#linear-gradient-6);}.cls-52{fill:url(#radial-gradient);}.cls-53{fill:url(#radial-gradient-3);}.cls-54{fill:url(#radial-gradient-32);}.cls-15{fill:url(#linear-gradient-7);}.cls-55{fill:url(#radial-gradient-59);}.cls-56{fill:url(#radial-gradient-20);}.cls-16{fill:url(#radial-gradient-53);}.cls-57{fill:url(#linear-gradient-5);}.cls-58{fill:url(#radial-gradient-41);}.cls-59{fill:url(#radial-gradient-62);}.cls-60{fill:#f2c4b2;}.cls-61{fill:url(#radial-gradient-11);}.cls-18{fill:url(#radial-gradient-19);}.cls-19{fill:url(#linear-gradient-4);}.cls-62{fill:url(#linear-gradient-8);}.cls-20{fill:url(#linear-gradient-15);}.cls-21{fill:url(#radial-gradient-46);}.cls-63{fill:url(#radial-gradient-8);}.cls-22{fill:url(#radial-gradient-51);}.cls-64{fill:url(#radial-gradient-2);}.cls-23{fill:url(#radial-gradient-29);}.cls-65{fill:url(#radial-gradient-21);}.cls-66{fill:url(#radial-gradient-4);}.cls-67{fill:url(#linear-gradient-17);}.cls-68{fill:url(#linear-gradient-9);}.cls-24{fill:url(#radial-gradient-45);}.cls-69{fill:url(#radial-gradient-22);}.cls-70{fill:url(#radial-gradient-36);}.cls-25{fill:url(#radial-gradient-30);}.cls-26{fill:url(#radial-gradient-39);}.cls-27{fill:url(#radial-gradient-50);}.cls-71{fill:url(#radial-gradient-47);}.cls-72{fill:url(#linear-gradient-19);}.cls-28{fill:url(#radial-gradient-28);}.cls-73{fill:url(#radial-gradient-12);}.cls-29{fill:url(#radial-gradient-56);}.cls-30{fill:url(#linear-gradient-14);}.cls-74{fill:url(#radial-gradient-52);}.cls-75{fill:url(#radial-gradient-31);}.cls-76{fill:url(#radial-gradient-15);}.cls-77{fill:url(#radial-gradient-60);}.cls-31{fill:url(#radial-gradient-23);}.cls-78{fill:url(#radial-gradient-6);}.cls-79{fill:url(#radial-gradient-33);}.cls-32{fill:url(#radial-gradient-43);}.cls-80{fill:url(#radial-gradient-7);}.cls-81{fill:url(#linear-gradient-16);}.cls-33{fill:url(#linear-gradient-11);}.cls-82{fill:url(#radial-gradient-17);}.cls-83{fill:url(#radial-gradient-13);}.cls-34{fill:url(#radial-gradient-27);}.cls-84{fill:url(#linear-gradient);}.cls-35{fill:url(#radial-gradient-49);}.cls-36{fill:url(#radial-gradient-57);}.cls-85{fill:#1d8da7;}.cls-86{fill:url(#linear-gradient-18);}</style>
    <radialGradient id="radial-gradient" cx="2013.48" cy="2551.82" r="10.94" gradientTransform="translate(-1454.6 -3552.16) rotate(116.6) scale(1.2 -1.2) skewX(2.5)" gradientUnits="userSpaceOnUse">
      <stop offset="0" stop-color="#b0bdc2"/>
      <stop offset="0.2" stop-color="#bac5c9"/>
      <stop offset="0.7" stop-color="#d7dcde"/>
      <stop offset="1" stop-color="#f2f2f2"/>
    </radialGradient>
    <radialGradient id="radial-gradient-2" cx="2065.44" cy="2411.59" r="10.94" gradientTransform="translate(-2443.34 -2869.58) rotate(96.4) scale(1.2 -1.2) skewX(3.8)" href="#radial-gradient"/>
    <linearGradient id="linear-gradient" x1="926.25" y1="2225.27" x2="935.39" y2="2213.88" gradientTransform="translate(567.94 2548.84) rotate(-163.2) skewX(4.3)" gradientUnits="userSpaceOnUse">
      <stop offset="0" stop-color="#b0bdc2"/>
      <stop offset="0.3" stop-color="#b3bfc4"/>
      <stop offset="0.5" stop-color="#bdc7cb"/>
      <stop offset="0.7" stop-color="#ced5d8"/>
      <stop offset="0.9" stop-color="#e6e8e9"/>
      <stop offset="1" stop-color="#f2f2f2"/>
    </linearGradient>
    <radialGradient id="radial-gradient-3" cx="154.26" cy="166.71" r="9.37" gradientTransform="translate(-60.39 291.56) rotate(4.7) scale(1.3 -1.2) skewX(.4)" gradientUnits="userSpaceOnUse">
      <stop offset="0" stop-color="#b0bdc2"/>
      <stop offset="0.4" stop-color="#c6ced2"/>
      <stop offset="1" stop-color="#f2f2f2"/>
    </radialGradient>
    <radialGradient id="radial-gradient-4" cx="149.15" cy="103.93" r="6.18" gradientTransform="translate(0 202) scale(1 -1)" href="#radial-gradient-3"/>
    <radialGradient id="radial-gradient-5" cx="-1068.4" cy="966.22" r="10.45" gradientTransform="translate(1821.15 407.65) rotate(52.6) scale(1.2) skewX(2.1)" href="#radial-gradient"/>
    <radialGradient id="radial-gradient-6" cx="-1068.4" cy="966.22" r="10.45" gradientTransform="translate(1821.15 407.65) rotate(52.6) scale(1.2) skewX(2.1)" href="#radial-gradient"/>
    <radialGradient id="radial-gradient-7" cx="2304.51" cy="-546.19" r="10.83" gradientTransform="translate(2095.58 2157.65) rotate(-120) scale(1.2) skewX(2.3)" gradientUnits="userSpaceOnUse">
      <stop offset="0.3" stop-color="#b0bdc2"/>
      <stop offset="0.5" stop-color="#b3bfc4"/>
      <stop offset="0.6" stop-color="#bdc7cb"/>
      <stop offset="0.8" stop-color="#ced5d8"/>
      <stop offset="0.9" stop-color="#e6e8e9"/>
      <stop offset="1" stop-color="#f2f2f2"/>
    </radialGradient>
    <radialGradient id="radial-gradient-8" cx="1208.36" cy="2045.8" r="11.52" gradientTransform="translate(2362.56 2039.58) rotate(-82.3) scale(1.2 -1.2) skewX(3.7)" href="#radial-gradient"/>
    <radialGradient id="radial-gradient-9" cx="1208.36" cy="2045.8" r="11.52" gradientTransform="translate(2362.56 2039.58) rotate(-82.3) scale(1.2 -1.2) skewX(3.7)" href="#radial-gradient"/>
    <radialGradient id="radial-gradient-10" cx="1335.25" cy="1992.81" r="11.52" gradientTransform="translate(-226.99 3016.16) rotate(-137.3) scale(1.2) skewX(2.1)" href="#radial-gradient"/>
    <radialGradient id="radial-gradient-11" cx="1335.25" cy="1992.81" r="11.52" gradientTransform="translate(-226.99 3016.16) rotate(-137.3) scale(1.2) skewX(2.1)" href="#radial-gradient"/>
    <radialGradient id="radial-gradient-12" cx="143.93" cy="107.34" r="9.21" gradientTransform="translate(0 202) scale(1 -1)" href="#radial-gradient-3"/>
    <radialGradient id="radial-gradient-13" cx="136.38" cy="121.2" r="3.76" gradientTransform="translate(-39.2 237.9) scale(1.3 -1.2)" gradientUnits="userSpaceOnUse">
      <stop offset="0.2" stop-color="#b0bdc2"/>
      <stop offset="0.4" stop-color="#b3bfc4"/>
      <stop offset="0.6" stop-color="#bdc7cb"/>
      <stop offset="0.8" stop-color="#ced5d8"/>
      <stop offset="0.9" stop-color="#e6e8e9"/>
      <stop offset="1" stop-color="#f2f2f2"/>
    </radialGradient>
    <radialGradient id="radial-gradient-14" cx="2132.86" cy="1521.77" r="8.24" gradientTransform="translate(3113 1822.6) rotate(178.1) scale(1.3 1.2) skewX(4.5)" href="#radial-gradient"/>
    <radialGradient id="radial-gradient-15" cx="2132.86" cy="1521.77" r="8.24" gradientTransform="translate(3113 1822.6) rotate(178.1) scale(1.3 1.2) skewX(4.5)" href="#radial-gradient"/>
    <radialGradient id="radial-gradient-16" cx="140.11" cy="178.76" r="6.53" gradientTransform="translate(-60.39 291.56) rotate(4.7) scale(1.3 -1.2) skewX(.4)" gradientUnits="userSpaceOnUse">
      <stop offset="0" stop-color="#b0bdc2"/>
      <stop offset="0.2" stop-color="#b7c3c7"/>
      <stop offset="0.6" stop-color="#cdd4d7"/>
      <stop offset="1" stop-color="#eff0f0"/>
      <stop offset="1" stop-color="#f2f2f2"/>
    </radialGradient>
    <radialGradient id="radial-gradient-17" cx="137.86" cy="120.22" r="7.02" gradientTransform="translate(-39.2 237.9) scale(1.3 -1.2)" gradientUnits="userSpaceOnUse">
      <stop offset="0" stop-color="#b0bdc2"/>
      <stop offset="0.2" stop-color="#c0cacd"/>
      <stop offset="1" stop-color="#f2f2f2"/>
    </radialGradient>
    <radialGradient id="radial-gradient-18" cx="205.76" cy="93.95" r="4.78" gradientTransform="translate(419.11 211.92) rotate(175.5) scale(1.3 1.2) skewX(.4)" gradientUnits="userSpaceOnUse">
      <stop offset="0.6" stop-color="#f4d0c2"/>
      <stop offset="0.7" stop-color="#f6d9cd"/>
      <stop offset="1" stop-color="#fff"/>
    </radialGradient>
    <radialGradient id="radial-gradient-19" cx="205.56" cy="93.92" r="3.99" gradientTransform="translate(419.11 211.92) rotate(175.5) scale(1.3 1.2) skewX(.4)" gradientUnits="userSpaceOnUse">
      <stop offset="0.6" stop-color="#f2c4b2"/>
      <stop offset="1" stop-color="#010101"/>
    </radialGradient>
    <radialGradient id="radial-gradient-20" cx="-4616.79" cy="3344.5" r="20.57" gradientTransform="translate(3640.75 380.75) rotate(-44.6) scale(.6 -.8) skewX(13.6)" gradientUnits="userSpaceOnUse">
      <stop offset="0" stop-color="#58120f"/>
      <stop offset="0.4" stop-color="#5c1310"/>
      <stop offset="0.8" stop-color="#691613"/>
      <stop offset="1" stop-color="#711915"/>
    </radialGradient>
    <radialGradient id="radial-gradient-21" cx="-4892.36" cy="-2036.35" r="11.16" gradientTransform="translate(3309.21 -322.18) rotate(14.2) scale(.6 -.6) skewX(1.1)" gradientUnits="userSpaceOnUse">
      <stop offset="0" stop-color="#edabab"/>
      <stop offset="1" stop-color="#af302d"/>
    </radialGradient>
    <radialGradient id="radial-gradient-22" cx="-5401.61" cy="1547.21" r="12.67" gradientTransform="translate(3529.28 276.05) rotate(-13.2) scale(.6 -.6) skewX(-1)" gradientUnits="userSpaceOnUse">
      <stop offset="0" stop-color="#fff"/>
      <stop offset="1" stop-color="#919191"/>
    </radialGradient>
    <radialGradient id="radial-gradient-23" cx="2218.6" cy="61.73" r="3.03" gradientTransform="translate(2985.12 -239.13) rotate(171.2) scale(1.3 1.2) skewX(.7)" gradientUnits="userSpaceOnUse">
      <stop offset="0" stop-color="#d07d73"/>
      <stop offset="1" stop-color="#010101"/>
    </radialGradient>
    <radialGradient id="radial-gradient-24" cx="176.73" cy="107.71" r="4.25" gradientTransform="translate(367.4 239.2) rotate(-180) scale(1.3 1.2)" gradientUnits="userSpaceOnUse">
      <stop offset="0" stop-color="#f2c4b2"/>
      <stop offset="0.2" stop-color="#f2c6b5"/>
      <stop offset="0.5" stop-color="#f4cfc1"/>
      <stop offset="0.7" stop-color="#f7ded4"/>
      <stop offset="0.9" stop-color="#fcf2ee"/>
      <stop offset="1" stop-color="#fff"/>
    </radialGradient>
    <radialGradient id="radial-gradient-25" cx="176.73" cy="108.64" r="3.19" gradientTransform="translate(367.4 239.2) rotate(-180) scale(1.3 1.2)" gradientUnits="userSpaceOnUse">
      <stop offset="0.6" stop-color="#fff"/>
      <stop offset="0.7" stop-color="#dadada"/>
      <stop offset="0.8" stop-color="#666"/>
      <stop offset="0.9" stop-color="#1d1d1d"/>
      <stop offset="1" stop-color="#010101"/>
    </radialGradient>
    <radialGradient id="radial-gradient-26" cx="168.47" cy="108.35" r="2.88" gradientTransform="translate(367.4 239.2) rotate(-180) scale(1.3 1.2)" gradientUnits="userSpaceOnUse">
      <stop offset="0.8" stop-color="#f8e0d3"/>
      <stop offset="0.8" stop-color="#f8e2d6"/>
      <stop offset="0.9" stop-color="#faeae2"/>
      <stop offset="1" stop-color="#fdf8f5"/>
      <stop offset="1" stop-color="#fff"/>
    </radialGradient>
    <radialGradient id="radial-gradient-27" cx="168.23" cy="109.28" r="2.3" gradientTransform="translate(367.4 239.2) rotate(-180) scale(1.3 1.2)" gradientUnits="userSpaceOnUse">
      <stop offset="0.4" stop-color="#fff"/>
      <stop offset="0.5" stop-color="#dadada"/>
      <stop offset="0.8" stop-color="#666"/>
      <stop offset="0.9" stop-color="#1d1d1d"/>
      <stop offset="1" stop-color="#010101"/>
    </radialGradient>
    <radialGradient id="radial-gradient-28" cx="176.84" cy="108.02" r="3.99" gradientTransform="translate(367.4 239.2) rotate(-180) scale(1.3 1.2)" gradientUnits="userSpaceOnUse">
      <stop offset="0.4" stop-color="#bdbdbd"/>
      <stop offset="0.5" stop-color="#acacac"/>
      <stop offset="0.6" stop-color="#818181"/>
      <stop offset="0.8" stop-color="#3c3c3c"/>
      <stop offset="1" stop-color="#010101"/>
    </radialGradient>
    <radialGradient id="radial-gradient-29" cx="157.78" cy="107.58" r="7.93" gradientTransform="translate(367.4 239.2) rotate(-180) scale(1.3 1.2)" gradientUnits="userSpaceOnUse">
      <stop offset="0.6" stop-color="#fff"/>
      <stop offset="0.7" stop-color="#fbfbfb"/>
      <stop offset="0.8" stop-color="#f2f2f2"/>
      <stop offset="0.8" stop-color="#e1e1e1"/>
      <stop offset="0.8" stop-color="#cacaca"/>
      <stop offset="0.9" stop-color="#acacac"/>
      <stop offset="0.9" stop-color="#888"/>
      <stop offset="0.9" stop-color="#5c5c5c"/>
      <stop offset="1" stop-color="#2b2b2b"/>
      <stop offset="1" stop-color="#010101"/>
    </radialGradient>
    <radialGradient id="radial-gradient-30" cx="187.41" cy="106.83" r="24.07" gradientTransform="translate(367.4 239.2) rotate(-180) scale(1.3 1.2)" gradientUnits="userSpaceOnUse">
      <stop offset="0.9" stop-color="#010101"/>
      <stop offset="0.9" stop-color="#2e2e2e"/>
      <stop offset="1" stop-color="#595959"/>
      <stop offset="1" stop-color="#6a6a6a"/>
    </radialGradient>
    <linearGradient id="linear-gradient-2" x1="135.28" y1="46.21" x2="163.52" y2="46.21" gradientTransform="translate(288.8 147.4) rotate(-180)" gradientUnits="userSpaceOnUse">
      <stop offset="0" stop-color="#fff"/>
      <stop offset="0" stop-color="#fefdfd"/>
      <stop offset="0.3" stop-color="#faefea"/>
      <stop offset="0.7" stop-color="#f8e7de"/>
      <stop offset="1" stop-color="#f8e5db"/>
    </linearGradient>
    <linearGradient id="linear-gradient-3" x1="135.28" y1="47.58" x2="163.52" y2="47.58" href="#linear-gradient-2"/>
    <linearGradient id="linear-gradient-4" x1="134.89" y1="32.73" x2="163.56" y2="32.73" href="#linear-gradient-2"/>
    <radialGradient id="radial-gradient-31" cx="136.62" cy="106.69" r="7.99" gradientTransform="translate(-39.2 237.9) scale(1.3 -1.2)" gradientUnits="userSpaceOnUse">
      <stop offset="0" stop-color="#f2f2f2"/>
      <stop offset="0.1" stop-color="#eaebec"/>
      <stop offset="0.7" stop-color="#c0c9cd"/>
      <stop offset="1" stop-color="#b0bdc2"/>
    </radialGradient>
    <radialGradient id="radial-gradient-32" cx="-658.65" cy="1796.92" r="10.92" gradientTransform="translate(2398.23 210.62) rotate(75.2) scale(1.2) skewX(3.2)" href="#radial-gradient"/>
    <radialGradient id="radial-gradient-33" cx="-684.33" cy="1904.9" r="10.92" gradientTransform="translate(2500.03 -330.27) rotate(61.8) scale(1.2) skewX(2.4)" href="#radial-gradient"/>
    <radialGradient id="radial-gradient-34" cx="131.09" cy="174.24" r="9.23" gradientTransform="translate(-60.39 291.56) rotate(4.7) scale(1.3 -1.2) skewX(.4)" gradientUnits="userSpaceOnUse">
      <stop offset="0.4" stop-color="#b0bdc2"/>
      <stop offset="0.6" stop-color="#c6ced2"/>
      <stop offset="1" stop-color="#f2f2f2"/>
    </radialGradient>
    <radialGradient id="radial-gradient-35" cx="701.22" cy="2761.78" r="7.73" gradientTransform="translate(3360.83 2144.1) rotate(142.8) scale(1.3) skewX(6.9)" gradientUnits="userSpaceOnUse">
      <stop offset="0" stop-color="#b0bdc2"/>
      <stop offset="0.3" stop-color="#bbc6ca"/>
      <stop offset="0.7" stop-color="#dadee0"/>
      <stop offset="1" stop-color="#f2f2f2"/>
    </radialGradient>
    <radialGradient id="radial-gradient-36" cx="134.58" cy="103.49" r="11.45" gradientTransform="translate(0 202) scale(1 -1)" href="#radial-gradient-3"/>
    <radialGradient id="radial-gradient-37" cx="133.41" cy="119.05" r="5.23" gradientTransform="translate(-39.2 237.9) scale(1.3 -1.2)" gradientUnits="userSpaceOnUse">
      <stop offset="0" stop-color="#b0bdc2"/>
      <stop offset="0.3" stop-color="#b3bfc4"/>
      <stop offset="0.5" stop-color="#bdc7cb"/>
      <stop offset="0.7" stop-color="#ced5d8"/>
      <stop offset="0.9" stop-color="#e6e8e9"/>
      <stop offset="1" stop-color="#f2f2f2"/>
    </radialGradient>
    <radialGradient id="radial-gradient-38" cx="131.59" cy="106.1" r="7" gradientTransform="translate(0 202) scale(1 -1)" href="#radial-gradient-3"/>
    <radialGradient id="radial-gradient-39" cx="171.11" cy="104.26" r="2.92" gradientTransform="translate(367.4 239.2) rotate(-180) scale(1.3 1.2)" gradientUnits="userSpaceOnUse">
      <stop offset="0" stop-color="#f2c4b2"/>
      <stop offset="0.2" stop-color="#f2c6b5"/>
      <stop offset="0.5" stop-color="#f4cfc1"/>
      <stop offset="0.7" stop-color="#f7ded4"/>
      <stop offset="0.9" stop-color="#fcf3f0"/>
      <stop offset="1" stop-color="#fff"/>
    </radialGradient>
    <radialGradient id="radial-gradient-40" cx="186.72" cy="104.01" r="3.72" gradientTransform="translate(367.4 239.2) rotate(-180) scale(1.3 1.2)" gradientUnits="userSpaceOnUse">
      <stop offset="0.3" stop-color="#fff"/>
      <stop offset="0.6" stop-color="#f8e3da"/>
      <stop offset="0.8" stop-color="#f3ccbd"/>
      <stop offset="1" stop-color="#f2c4b2"/>
    </radialGradient>
    <radialGradient id="radial-gradient-41" cx="176.29" cy="107.95" r="3.96" gradientTransform="translate(367.4 239.2) rotate(-180) scale(1.3 1.2)" gradientUnits="userSpaceOnUse">
      <stop offset="0" stop-color="#fff"/>
      <stop offset="0.2" stop-color="#f9fbfc"/>
      <stop offset="0.4" stop-color="#ebf1f3"/>
      <stop offset="0.6" stop-color="#d3e0e5"/>
      <stop offset="0.9" stop-color="#b1c8d2"/>
      <stop offset="1" stop-color="#9ebbc7"/>
    </radialGradient>
    <radialGradient id="radial-gradient-42" cx="177.91" cy="110.24" r="3.74" gradientTransform="translate(367.4 239.2) rotate(-180) scale(1.3 1.2)" gradientUnits="userSpaceOnUse">
      <stop offset="0.7" stop-color="#010101"/>
      <stop offset="0.7" stop-color="#030708"/>
      <stop offset="0.8" stop-color="#0b181c"/>
      <stop offset="0.8" stop-color="#18333d"/>
      <stop offset="0.9" stop-color="#2a5a6a"/>
      <stop offset="1" stop-color="#418ba4"/>
      <stop offset="1" stop-color="#4ea6c4"/>
    </radialGradient>
    <radialGradient id="radial-gradient-43" cx="-6858.32" cy="3118.59" r="1.93" gradientTransform="translate(4687.86 392.73) rotate(-20.5) scale(.6 -.6) skewX(-1.5)" gradientUnits="userSpaceOnUse">
      <stop offset="0.2" stop-color="#fff"/>
      <stop offset="0.3" stop-color="#c4c4c4"/>
      <stop offset="0.4" stop-color="#898989"/>
      <stop offset="0.6" stop-color="#585858"/>
      <stop offset="0.7" stop-color="#323232"/>
      <stop offset="0.8" stop-color="#171717"/>
      <stop offset="0.9" stop-color="#060606"/>
      <stop offset="1" stop-color="#010101"/>
    </radialGradient>
    <radialGradient id="radial-gradient-44" cx="175" cy="116.13" r="4.74" gradientTransform="translate(367.4 239.2) rotate(-180) scale(1.3 1.2)" gradientUnits="userSpaceOnUse">
      <stop offset="0.8" stop-color="#010101"/>
      <stop offset="0.9" stop-color="#0d0704"/>
      <stop offset="0.9" stop-color="#2d1a0e"/>
      <stop offset="1" stop-color="#412513"/>
      <stop offset="1" stop-color="#492a16"/>
    </radialGradient>
    <radialGradient id="radial-gradient-45" cx="169.67" cy="115.88" r="2.86" gradientTransform="translate(367.4 239.2) rotate(-180) scale(1.3 1.2)" gradientUnits="userSpaceOnUse">
      <stop offset="0" stop-color="#492a16"/>
      <stop offset="1" stop-color="#010101"/>
    </radialGradient>
    <radialGradient id="radial-gradient-46" cx="157.7" cy="93.54" r="2.81" gradientTransform="translate(0 202) scale(1 -1)" href="#radial-gradient-45"/>
    <radialGradient id="radial-gradient-47" cx="142.11" cy="100.45" r="9.48" gradientTransform="translate(-39.2 237.9) scale(1.3 -1.2)" gradientUnits="userSpaceOnUse">
      <stop offset="0" stop-color="#b0bdc2"/>
      <stop offset="0.3" stop-color="#c5ced1"/>
      <stop offset="0.7" stop-color="#e5e8e9"/>
      <stop offset="1" stop-color="#f2f2f2"/>
    </radialGradient>
    <radialGradient id="radial-gradient-48" cx="143.68" cy="102.68" r="6.6" gradientTransform="translate(-39.2 237.9) scale(1.3 -1.2)" gradientUnits="userSpaceOnUse">
      <stop offset="0" stop-color="#d3e2eb"/>
      <stop offset="0.4" stop-color="#dfeaf0"/>
      <stop offset="1" stop-color="#fff"/>
    </radialGradient>
    <radialGradient id="radial-gradient-49" cx="144.06" cy="103.5" r="4.14" gradientTransform="translate(-39.2 237.9) scale(1.3 -1.2)" gradientUnits="userSpaceOnUse">
      <stop offset="0.4" stop-color="#d3e2eb"/>
      <stop offset="0.6" stop-color="#dfeaf0"/>
      <stop offset="1" stop-color="#fff"/>
    </radialGradient>
    <radialGradient id="radial-gradient-50" cx="148.75" cy="81.92" r="6.31" gradientTransform="translate(0 202) scale(1 -1)" href="#radial-gradient-48"/>
    <radialGradient id="radial-gradient-51" cx="148.05" cy="79.83" r="4.69" gradientTransform="translate(0 202) scale(1 -1)" href="#radial-gradient-48"/>
    <radialGradient id="radial-gradient-52" cx="153.91" cy="85.37" r="4.54" gradientTransform="translate(0 202) scale(1 -1)" href="#radial-gradient-41"/>
    <radialGradient id="radial-gradient-53" cx="156.44" cy="87.3" r="3.03" gradientTransform="translate(0 202) scale(1 -1)" href="#radial-gradient-42"/>
    <radialGradient id="radial-gradient-54" cx="-6840.02" cy="3112.03" r="1.75" gradientTransform="translate(4687.86 392.73) rotate(-20.5) scale(.6 -.6) skewX(-1.5)" gradientUnits="userSpaceOnUse">
      <stop offset="0.2" stop-color="#fff"/>
      <stop offset="0.3" stop-color="#d0d0d0"/>
      <stop offset="0.4" stop-color="#929292"/>
      <stop offset="0.6" stop-color="#5e5e5e"/>
      <stop offset="0.7" stop-color="#353535"/>
      <stop offset="0.8" stop-color="#181818"/>
      <stop offset="0.9" stop-color="#070707"/>
      <stop offset="1" stop-color="#010101"/>
    </radialGradient>
    <linearGradient id="linear-gradient-5" x1="-502.31" y1="-337.22" x2="-502.6" y2="-333.72" gradientTransform="translate(-129.78 -429.69) rotate(-151.6)" gradientUnits="userSpaceOnUse">
      <stop offset="0" stop-color="#b0bdc2"/>
      <stop offset="1" stop-color="#f2f2f2"/>
    </linearGradient>
    <linearGradient id="linear-gradient-6" x1="-502.31" y1="-336.78" x2="-502.47" y2="-334.74" gradientTransform="translate(-129.78 -429.69) rotate(-151.6)" gradientUnits="userSpaceOnUse">
      <stop offset="0" stop-color="#fff"/>
      <stop offset="0" stop-color="#f2f7f9"/>
      <stop offset="0.3" stop-color="#dce9ef"/>
      <stop offset="0.5" stop-color="#ccdee7"/>
      <stop offset="0.7" stop-color="#c2d8e3"/>
      <stop offset="1" stop-color="#c0d7e2"/>
    </linearGradient>
    <linearGradient id="linear-gradient-7" x1="191.84" y1="42.46" x2="196.76" y2="33.38" gradientTransform="translate(-42.87 145.92) rotate(.7) scale(1 -1)" gradientUnits="userSpaceOnUse">
      <stop offset="0" stop-color="#282560"/>
      <stop offset="0.4" stop-color="#010101"/>
      <stop offset="0.6" stop-color="#bbbdbf"/>
      <stop offset="0.8" stop-color="#19191a"/>
    </linearGradient>
    <linearGradient id="linear-gradient-8" x1="182.87" y1="59.89" x2="199.48" y2="-37.86" gradientTransform="translate(-35.2 146.4) scale(1 -1)" gradientUnits="userSpaceOnUse">
      <stop offset="0" stop-color="#434076"/>
      <stop offset="1" stop-color="#161439"/>
    </linearGradient>
    <linearGradient id="linear-gradient-9" x1="185.99" y1="42.36" x2="188.43" y2="28.03" gradientTransform="translate(-35.2 146.4) scale(1 -1)" gradientUnits="userSpaceOnUse">
      <stop offset="0" stop-color="#282560"/>
      <stop offset="1" stop-color="#131223"/>
    </linearGradient>
    <linearGradient id="linear-gradient-10" x1="-195.5" y1="-475.81" x2="-195.81" y2="-472.04" gradientTransform="translate(154.54 -407.72) rotate(-20.5) scale(1 -1)" href="#linear-gradient-5"/>
    <linearGradient id="linear-gradient-11" x1="-195.52" y1="-475.32" x2="-195.7" y2="-473.13" gradientTransform="translate(154.54 -407.72) rotate(-20.5) scale(1 -1)" href="#linear-gradient-6"/>
    <linearGradient id="linear-gradient-12" x1="163.92" y1="48.16" x2="170.85" y2="7.25" href="#linear-gradient-8"/>
    <linearGradient id="linear-gradient-13" x1="165.27" y1="39.87" x2="166.29" y2="33.82" href="#linear-gradient-9"/>
    <radialGradient id="radial-gradient-55" cx="147.29" cy="104.43" r="3.32" gradientTransform="translate(-39.2 237.9) scale(1.3 -1.2)" gradientUnits="userSpaceOnUse">
      <stop offset="0" stop-color="#e9b1a2"/>
      <stop offset="0.2" stop-color="#b88b80"/>
      <stop offset="0.4" stop-color="#775a53"/>
      <stop offset="0.6" stop-color="#44342f"/>
      <stop offset="0.8" stop-color="#1f1816"/>
      <stop offset="0.9" stop-color="#090706"/>
      <stop offset="1" stop-color="#010101"/>
    </radialGradient>
    <radialGradient id="radial-gradient-56" cx="146.34" cy="105.65" r="4.14" gradientTransform="translate(-39.2 237.9) scale(1.3 -1.2)" gradientUnits="userSpaceOnUse">
      <stop offset="0.2" stop-color="#e9b1a2"/>
      <stop offset="0.3" stop-color="#e3ac9e"/>
      <stop offset="0.4" stop-color="#d3a093"/>
      <stop offset="0.5" stop-color="#b98d81"/>
      <stop offset="0.6" stop-color="#957168"/>
      <stop offset="0.8" stop-color="#674e48"/>
      <stop offset="0.9" stop-color="#2f2421"/>
      <stop offset="1" stop-color="#010101"/>
    </radialGradient>
    <linearGradient id="linear-gradient-14" x1="660.71" y1="25.42" x2="660.95" y2="27.13" gradientTransform="translate(-513.76 148.04) rotate(-.5) scale(1 -1)" gradientUnits="userSpaceOnUse">
      <stop offset="0" stop-color="#edded7"/>
      <stop offset="1" stop-color="#fdfbfa"/>
    </linearGradient>
    <radialGradient id="radial-gradient-57" cx="192.17" cy="292.78" r="2.88" gradientTransform="translate(-193.16 380.75) rotate(15.7) scale(1.3 -1.2) skewX(1.2)" gradientUnits="userSpaceOnUse">
      <stop offset="0.3" stop-color="#e9b1a2"/>
      <stop offset="0.4" stop-color="#b88b80"/>
      <stop offset="0.6" stop-color="#775a53"/>
      <stop offset="0.7" stop-color="#44342f"/>
      <stop offset="0.8" stop-color="#1f1816"/>
      <stop offset="0.9" stop-color="#090706"/>
      <stop offset="1" stop-color="#010101"/>
    </radialGradient>
    <radialGradient id="radial-gradient-58" cx="147.28" cy="172.78" r="7.84" gradientTransform="translate(-60.39 291.56) rotate(4.7) scale(1.3 -1.2) skewX(.4)" gradientUnits="userSpaceOnUse">
      <stop offset="0" stop-color="#b0bdc2"/>
      <stop offset="0.2" stop-color="#b5c1c5"/>
      <stop offset="0.5" stop-color="#c4cdd0"/>
      <stop offset="0.8" stop-color="#dce0e2"/>
      <stop offset="1" stop-color="#f2f2f2"/>
    </radialGradient>
    <radialGradient id="radial-gradient-59" cx="-846.32" cy="1583.49" r="11.52" gradientTransform="translate(1136.68 1975.17) rotate(-1.5) scale(1.3 -1.2) skewX(4.2)" href="#radial-gradient"/>
    <radialGradient id="radial-gradient-60" cx="-846.32" cy="1583.49" r="11.52" gradientTransform="translate(1136.68 1975.17) rotate(-1.5) scale(1.3 -1.2) skewX(4.2)" href="#radial-gradient"/>
    <radialGradient id="radial-gradient-61" cx="142.29" cy="113.6" r="12.6" gradientTransform="translate(-39.2 237.9) scale(1.3 -1.2)" href="#radial-gradient"/>
    <radialGradient id="radial-gradient-62" cx="138.93" cy="169.43" r="16.28" gradientTransform="translate(-60.39 291.56) rotate(4.7) scale(1.3 -1.2) skewX(.4)" gradientUnits="userSpaceOnUse">
      <stop offset="0" stop-color="#b0bdc2"/>
      <stop offset="1" stop-color="#f2f2f2"/>
    </radialGradient>
    <linearGradient id="linear-gradient-15" x1="10.33" y1="117.08" x2="14.94" y2="108.57" gradientTransform="translate(126.03 223.22) rotate(.4) scale(1 -1)" href="#linear-gradient-7"/>
    <linearGradient id="linear-gradient-16" x1="172.29" y1="60.93" x2="189.47" y2="-40.32" href="#linear-gradient-8"/>
    <linearGradient id="linear-gradient-17" x1="173.96" y1="40.49" x2="176.48" y2="25.54" href="#linear-gradient-9"/>
    <linearGradient id="linear-gradient-18" x1="18.27" y1="118.26" x2="20.66" y2="104.15" gradientTransform="translate(126.03 223.22) rotate(.4) scale(1 -1)" href="#linear-gradient-9"/>
    <linearGradient id="linear-gradient-19" x1="18.61" y1="118.24" x2="20.93" y2="104.53" gradientTransform="translate(126.03 223.22) rotate(.4) scale(1 -1)" href="#linear-gradient-9"/>
  </defs>
  <g class="cls-17">
    <g id="Layer_1">
      <path class="cls-39" d="M160.03,108.46c1.97-1.44,2.5-3.14,2.92-4.25-.89.4-1,.49-1.44.62.55-.6.44-1.06.4-1.71-.42.22-1.17.71-2.19.64.27-1.09,0-1.75-.24-2.57.49-.49.78-.58,1.44-.89-.64-.38-1-.66-1.77-.66-.04-1.26-.27-2.64.49-3.01l.66-.33c-.53-.24-1.4-.8-2.61-.51.38-1.88.16-2.3-.24-3.45-.35,1.09-.93,1.82-1.99,2.24.8-.64.27-2.3-.27-3.81-.24.8-1.57,1-1.97,1.48.27-.84-.97-1.22.82-2.5h-1.68c0-.44.29-.93-.75-2.79-.64,1.31-.8,1.82-2.35,2.04.11-.6.44-1,1.06-1.88-1.99.55-3.65,1.2-4.1,1.42-.75-.89-1.33-1.06-2.35-1.53-1.13-1.44-2.57-1.79-4.25-2.37.73.55.89.89,1.11.97l-1.22-.44c.8,1.04.84,1.24.58,2.06-1.55-1.46-3.48-1.77-4.83-2.06,1.33,1.66,1.4,1.59.4,3.72-.49-.42-.93-.47-2.35-.8l.82.8c.2.2.44.84.33,1.11s-.4.49-.6.8c-.27-.51-.42-.82-.49-1-.58.64-.95,1-1.09,1.57-1.22-.95-.75-2.06-.44-3.28-1,.78-1.84,1.31-2.5,2.97-.82-.78-1.75-.78-2.41-.82.58.93.84.95-.4,2.72-.49.66-.97,1.37-1.11,2.1-1.42.31-2.02-.35-3.08-1.26.18,1.13.31,2.19.84,3.48-1.31-.51-1.62-1.77-1.9-2.59l-.38.97c-.38.95-.04,1.55-.4.62-.07,3.1-.27,4.61.78,5.94-1.06.58-2.35.02-3.03-.22.35.84.42,1.04.69,1.37-.09-.09-1.2-1.31-1.28-1.4.53,1.64.8,2.88,1.97,4.01-.62.84-.89.69-1.77.62.33.53.91,1.64,2.35,1.82-1.64,2.75.8,3.72-1.06,2.55.42,1.15.31,1.42,1.44,2.48-1.13.51-1.46,1.46-1.71,1.97l.73-.13c1.28-.24,2.24,2.66,3.81,3.34,1.4.62,2.77.51,3.9-.31-.22,1.13-.58,1.09-1.4,1.33.51.35,1.17.95,2.28.91-.62,1.62-.35,2.52-.16,3.7l.53-.97c.73-1.35,2.1-1.4,3.5-.64.44.24.89.49,1.48.49.64,0,21.61-2.88,22.43-5.29.13-.2.11-.62.16-.78.42-.16.84-.44,1.15-.71,1.31-1.04,3.06-1.77,4.14.29.31-1.95-.62-3.28-1.93-4.38,2.24.35,3.08-1.51,3.1-1.53l.29-.66c-1.31.27-1.24.4-2.86-1.59h0ZM119.85,111.32c.73-.89,2.35-1.37,3.01-1.22-.13,1.22-1.31,2.08-3.01,1.22Z"/>
      <path class="cls-46" d="M152.34,107.24s1.68-.71,2.7.44c1.02,1.15,1.73,3.48,1.55,4.76-.18,1.28-.47,2.92-1.4,3.26-.91.33-1.97.22-1.97.22l-1.57-5.36.66-3.32h.02Z"/>
      <path class="cls-52" d="M153.6,116.52c.49.55,1.53.66,2.21.53.8-.16,1.24-.78,1.88-1.15,1.22-.71,2.66-.69,3.65.53-.07-2.5-3.19-6.09-6-4.65-.66.35-1.33,1-1.9,1.51-.86.78-1.86,1.71-1.68,3.01l1.82.22h.02Z"/>
      <path class="cls-39" d="M153.69,116.43c.66.6,2.02.6,2.79.07.53-.38,2.77-3.32,4.67-.6-.51-2.28-3.3-5.76-6.16-3.74-.53.38-2.1,1.77-2.61,2.48-.35.51-.55,1.04-.47,1.66h-.24c-.09-.66.13-1.26.53-1.82.51-.73,2.15-2.13,2.7-2.5,3.03-2.06,7.18,1.31,6.49,4.47-2.13-2.37-3.85,0-4.61.49-1.04.69-2.59.47-3.23-.31l.18-.18-.04-.02Z"/>
      <path class="cls-64" d="M151.86,117.38c1.04-2.19.53-1.24.95-4.98.42-3.74,2.61-6.18,5.51-4.96,1.44.6,2.37,3.45,3.92,3.12,0,0-.86,1.97-3.34,1.13-2.46-.84-2.79,1.68-2.79,1.68l-4.25,4.01h0Z"/>
      <path class="cls-39" d="M151.74,117.32c.44-1.04.66-1.4.69-2.17.18-3.21.62-7.68,4.07-8.11,3.37-.27,4.32,3.1,6.11,3.26-.11.31-.58,1.04-.8,1.26-1.59,1.46-2.83-.04-4.27.2-.42.04-1.11.6-1.42,1.62,0-1.02.71-1.84,1.33-1.95,1.44-.38,2.3.93,3.99-.07.29-.2.55-.42.82-.82-1.55.4-2.39-2.52-4.27-3.17-.53-.22-1.64-.31-2.52.2-1.68,1.09-2.21,2.81-2.48,4.83-.33,3.63,0,3.08-1,5.03l-.24-.13v.02Z"/>
      <path class="cls-39" d="M151.86,114.73c.33-.51,1.42-3.99,3.96-4.27-2.48.38-3.41,3.81-3.74,4.41l-.22-.16v.02Z"/>
      <path class="cls-39" d="M158.85,113.95c-.55-.51-3.48.11-3.83,1.86,0,0,.04-1.57,1.06-1.99,1.13-.47,2.35-.29,2.77.13Z"/>
      <path class="cls-84" d="M156.24,111.98c-.04-.86.33-1.37.35-2.15.04-1.11-.38-2.15-.66-3.19-.93-3.61-2.75-3.54-2.7-3.65-.6-.78-.84-.13-.95-.24-1.73,2.59-3.39,7.57-2.68,9.43,1.46.82.95,2.95,1.37,4.92.04.18,3.01-1.64,3.03-1.46,0,.89.07,1.88.86,2.66,0,0,.91-.44,1.04-1.17.13-.73.64-1.71.49-2.41-.38-1.64-.51-1.33-.16-2.7v-.02Z"/>
      <path class="cls-39" d="M155.18,111.76c.6-.42,1.17-.64,1.22-2.19.04-1.64-1.31-4.78-2.04-5.69.11.09.97.44,1.06.53,1.13,1.33,1.55,4.27,1.35,5.71-.11.89-.55,1.33-1.24,2.17-.38.47-.64.62-.86.75.49-.35,0-.93.51-1.28h0Z"/>
      <path class="cls-39" d="M153.78,115.86c3.37-1.37,1.42-4.1,2.9-5.56-.58,3.48-.49,4.83-2.9,5.56Z"/>
      <path class="cls-53" d="M148.07,104.43c1.22,2.66,1.15,4.34,5.43,5.07s7.57-1.46,8.77-4.56c0,0-1.37.64-2.48.53,0,0,1.86-.6,1.79-1.73,0,0-1.46.8-2.83.16-1.4-.64-2.41-1.46-5.18-.71-2.77.73-5.49,1.26-5.49,1.26v-.02Z"/>
      <path class="cls-39" d="M160.78,105.2c.33-.22.62-.47.78-.75.22-.38.2-.71.18-1-3.21,1.55-3.39-1.15-6.89-.78-.71.07-1.11.2-3.43.75-.53.13-3.41.75-3.41.75-.33.09-.24.22.78,2.41,1,2.1,2.44,2.64,4.83,3.08,1.24.22,1.9.53,3.65.04,2.57-.73,4.27-2.77,5.31-5.14-.82.33-1.4.51-1.82.6l.02.02ZM154.84,109.48c-1.28-.04-3.28-.44-4.38-1.26-1.02-.73-1.37-1.9-2.04-3.59.75-.16,2.92-.64,3.12-.69,1.97-.47,2.46-.69,3.37-.8,3.01-.38,3.76,2.04,6.44.89-.24.86-1.82,1.31-2.52,1.57.75.07,1.73.24,3.08-.29-1.15,2.7-3.92,4.32-7.06,4.19v-.02Z"/>
      <path class="cls-39" d="M148.09,104.29c.13.24,4.63,2.02,7.33-.04.38-.29.64-.53,1.09-.95-1.31,1.02-2.83,2.55-7.53,1.04-.16-.04-.6-.11-.69-.22l-.2.18h0Z"/>
      <path class="cls-39" d="M156.15,106.51c-.6.33-2.06.42-2.97-.11-.11-.07-.4-.24-.49-.29l-.11.22c.09.04.42.2.51.24,1.04.51,2.52.29,3.08-.07h-.02Z"/>
      <path class="cls-39" d="M149.22,106.84c-.27-.31-.6-1.09-.95-1.28.89.4.86.8.95,1.28Z"/>
      <path class="cls-66" d="M149.18,105.05c2.46-.11,3.9,1.22,4.94,1.73,1.71.84,3.37.35,4.43-1.33.93-1.42,1.06-2.5.78-3.52-.18.58-.78,1.4-1.51,1.51.53-.62.55-.75.71-1.46.11-.53.95-1.42,1.62-1.73-1.22-.71-2.83.22-3.5.66-2.52,1.68-4.25,1.95-5,1.42l-2.46,2.7v.02Z"/>
      <path class="cls-39" d="M158.63,102.79c-.09.09-.16.16-.24.22.07-.11.11-.22.16-.33.16-.47.04-1.37,1.9-2.39-2.72-1.64-4.67,1.9-7.75,2.08-.66.04-.86-.16-1.13-.33-1.17,1.28-1.33,1.53-2.64,3.14.18.07.44.13.66.13,2.3.13,3.17,1.09,4.43,1.71,1.31.62,2.61.47,3.59-.29.93-.71,1.64-2.06,1.86-3.01.22-1-.04-1.73-.18-2.17-.13.38-.22.8-.69,1.26l.02-.02ZM154.22,106.62c-1.2-.62-2.15-1.64-4.61-1.82-.07,0-.11.07-.22.13,1.48-1.44,2.08-2.04,2.28-2.28,1.22.58,3.19-.42,4.34-1.11.6-.35,2.35-1.75,3.7-1.26-.64.4-1.31,1.09-1.46,1.79-.16.71-.16.66-.93,1.64l.49-.09c.62-.11,1.15-.64,1.44-1.22.27,2.28-2.02,5.71-5.03,4.21Z"/>
      <path class="cls-39" d="M150.02,104.49c2.64-.55,4.07,2.57,7.42.35-2.7,2.86-4.83-.38-7.37-.13l-.07-.22h.02Z"/>
      <path class="cls-50" d="M135.53,121.86c-.35.6-1.33.89-1.97.89-.78,0-1.31-.51-1.99-.78-1.28-.47-2.64-.2-3.34,1.13-.4-2.37,1.88-6.27,4.78-5.38.69.22,1.44.71,2.06,1.09.95.58,2.06,1.28,2.15,2.55l-1.68.53v-.02Z"/>
      <path class="cls-39" d="M135.45,121.79c-.53.69-1.77.91-2.61.53-.53-.24-3.21-2.41-4.5.49-.33-2.57,2.04-6.22,5.09-4.81.58.27,2.3,1.31,2.92,1.88.42.42.71.89.75,1.48h.24c-.04-.69-.35-1.22-.82-1.66-.62-.6-2.41-1.62-2.99-1.88-3.23-1.42-6.2,2.55-5.36,5.51,1.86-2.04,3.7-.89,4.52-.55,1.11.47,2.52,0,2.99-.84l-.2-.13-.04-.02Z"/>
      <path class="cls-78" d="M138.74,120.64c-1.97-1.33-1.06-.78-3.3-3.68-2.21-2.9-5.27-3.9-7.04-1.55-.89,1.15-.24,3.94-1.66,4.38,0,0,1.71,1.24,3.32-.6s3.14.11,3.14.11l5.51,1.35.02-.02Z"/>
      <path class="cls-39" d="M138.81,120.53c-.89-.66-1.24-.84-1.66-1.48-1.75-2.59-4.36-6.07-7.42-4.81-3.08,1.42-1.35,4.92-3.23,5.56.24.2.66.47.97.55,2.04.49,2.46-1.28,3.74-1.75.38-.16,1.22-.02,1.99.69-.53-.82-1.51-1.2-2.06-1-1.37.35-1.46,1.73-3.39,1.71-.33-.02-.47,0-.86-.2,1.48-.4.55-3.21,1.77-4.61.33-.42,1.2-1.02,2.19-1,1.93.13,3.23,1.31,4.47,2.86,2.1,2.86,1.55,2.55,3.34,3.68l.13-.22v.02Z"/>
      <path class="cls-39" d="M136.31,119.38c-.51-.51-2.08-3.52-4.52-3.34,2.39-.07,3.9,2.99,4.34,3.52l.18-.18h0Z"/>
      <path class="cls-39" d="M135.31,119.6c-.89-1.02-1.88-1.62-3.03-1.95.97.31,2.04,1.04,2.86,2.1,0,0,.18-.16.18-.16Z"/>
      <path class="cls-39" d="M129.89,119.51c.58-.49,1.53-.8,2.26-.31-.69-.58-1.73-.35-2.41.11l.13.2h.02Z"/>
      <path class="cls-39" d="M129.73,120.57c.42-.58,2.75-.8,3.88-.27l.09-.24c-2.02-1.37-3.74-.33-3.96.49v.02Z"/>
      <path class="cls-80" d="M141.11,98.23c-1.04-3.85.82-7.29,3.08-8.17,3.45-1.35,6.05.38,7.4-2.37,1.46,5.31-1.2,8.5-5.38,10.36-2.55,1.13-5.09.18-5.09.18Z"/>
      <path class="cls-39" d="M151.59,87.69h0c0,.11.04.09,0,0Z"/>
      <path class="cls-39" d="M151.66,87.57c-.4.53-.53.8-1.22,1.24-1.17.78-5.34.11-7.26,1.75-3.74,2.83-2.17,8.44-2.28,7.86,3.76,1.26,7.46-.69,9.72-3.52,1.77-2.41,1.99-5.82,1.04-7.33h0ZM146.14,97.89c-1.68.64-3.34.66-4.85.13-.86-3.19.16-5.94,1.97-7.37,1.55-1.4,4.58-.93,6.27-1.2,1.06-.24,1.66-.44,2.13-1.51.93,5.2-1.04,7.86-5.49,9.92l-.02.02Z"/>
      <path class="cls-39" d="M141.31,98.2c-.2-.18.11-1.71.27-2.15.75-1.97,2.57-3.26,4.89-3.01-3.23-.58-5.49,2.13-5.54,4.5,0,.29,0,.71.22.86,0,0,.16-.2.16-.2Z"/>
      <path class="cls-39" d="M141.54,95.64c.07-.93.51-3.26,3.19-4.01-2.79.51-3.88,3.32-3.7,5.23.66-1,.42-.55.51-1.22Z"/>
      <path class="cls-63" d="M126.85,108.39c-.66-.4-1.77-.18-2.39.16-.73.4-1.09,1.46-1.62,2.04-.97,1.11-2.3,1.24-3.74.33.93,2.48,5.29,5.07,7.6,2.75.55-.55,1-1.42,1.4-2.1.6-1.06,1.28-2.3.66-3.54l-1.9.35v.02Z"/>
      <path class="cls-39" d="M122.71,113.57c.82.18,1.93,0,2.35-.86,0,1-1.33,1.68-2.26,1.57l-.09-.71h0Z"/>
      <path class="cls-39" d="M126.81,108.52c-.89-.4-2.21.04-2.81.82-.4.55-1.64,4.19-4.47,2.08,1.31,2.13,5.29,4.72,7.46,1.79.42-.55,1.51-2.44,1.77-3.3.18-.62.2-1.22-.11-1.82l.24-.11c.33.66.31,1.33.11,2.02-.27.89-1.42,2.79-1.84,3.34-2.33,3.03-7.64.97-8.04-2.41,2.92,1.57,3.85-1.22,4.45-1.95.82-1.02,2.41-1.28,3.34-.73l-.11.24v.02Z"/>
      <path class="cls-41" d="M130.64,107.95c-1.15,2.28-.6,1.31-1.13,5.23-.53,3.94-2.9,6.47-5.94,5.12-1.51-.66-2.41-3.68-4.05-3.39,0,0,.97-2.06,3.54-1.13,2.57.93,2.99-1.71,2.99-1.71l4.58-4.12Z"/>
      <path class="cls-39" d="M130.75,108.02c-.49,1.09-.73,1.46-.78,2.26-.24,3.39-.84,8.08-4.47,8.44-3.57.2-4.47-3.34-6.38-3.57.13-.31.64-1.06.86-1.31,1.71-1.51,2.99.11,4.52-.11.44-.04,1.2-.6,1.55-1.68-.04,1.06-.78,1.9-1.44,2.02-1.53.35-2.39-1.04-4.21-.02-.31.2-.6.42-.89.84,1.64-.38,2.46,2.72,4.43,3.43.55.24,1.73.35,2.66-.16,1.79-1.11,2.39-2.92,2.72-5.05.44-3.81.07-3.26,1.17-5.27l.24.13v.04Z"/>
      <path class="cls-39" d="M129.24,109.63c-.18.62-.04,4.45-2.5,5.54,2.35-1.17,2.1-4.87,2.24-5.6l.27.07Z"/>
      <path class="cls-39" d="M122.51,112.64c.73.33,3.45-1.22,3.19-3.08,0,0,.49,1.57-.38,2.35-.97.84-2.26,1.04-2.81.73Z"/>
      <path class="cls-37" d="M149.51,95.64c.27-.71,1.26-1.2,1.97-1.31.84-.13,1.51.33,2.3.47,1.48.27,2.88-.27,3.41-1.82.91,2.5-.82,7.13-4.12,6.71-.8-.11-1.71-.51-2.46-.8-1.15-.47-2.5-1.02-2.83-2.37l1.71-.86.02-.02Z"/>
      <path class="cls-39" d="M156.11,97.16c-.53.62-1.51,1.13-2.39.73.64.78,2.13.51,2.79-.13l-.4-.62v.02Z"/>
      <path class="cls-39" d="M149.62,95.7c.44-.84,1.75-1.31,2.72-1.04.69.18,4.01,2.28,4.85-1.09.38,2.44-1.04,6.84-4.65,5.89-.69-.18-2.77-1-3.52-1.53-.53-.38-.95-.84-1.11-1.46l-.27.07c.18.71.62,1.22,1.22,1.64.8.53,2.92,1.33,3.63,1.51,3.79.97,6.58-3.83,4.69-6.71-1.62,2.55-3.81,1.37-4.74,1.15-1.31-.31-2.72.44-3.08,1.46l.24.11h0Z"/>
      <path class="cls-61" d="M146.27,97.54c2.39,1.09,1.31.64,4.3,3.39s6.47,3.28,7.95.42c.73-1.42-.51-4.32.95-5.07,0,0-2.1-1.02-3.5,1.24-1.4,2.28-3.43.47-3.43.47l-6.27-.47v.02Z"/>
      <path class="cls-39" d="M154.2,101.68c.13-.11.24-.13.33-.16.97,0,1.82-.66,1.93-1.62.04-.31.02-1.46.8-1.9-.75.75-.2,1.84-.51,2.68-.51,1.44-2.28,1.73-2.59,1.24l.04-.24Z"/>
      <path class="cls-39" d="M146.23,97.67c1.09.55,1.53.69,2.08,1.31,2.39,2.48,6.07,5.87,9.15,3.96,2.92-1.97,1.15-5.4,2.5-6.69-.31-.18-1.2-.47-1.53-.51-2.3-.16-2.26,1.88-3.59,2.64-.38.24-1.31.24-2.3-.38.73.8,1.86,1.02,2.44.71,1.44-.64,1.2-2.24,3.28-2.55.38-.02.73-.04,1.24.13-1.53.69-.16,3.61-1.22,5.34-.29.53-1.11,1.31-2.17,1.48-2.13.22-3.76-.84-5.4-2.3-2.83-2.7-2.17-2.5-4.34-3.39l-.11.24h-.02Z"/>
      <path class="cls-39" d="M148.47,98.03c.53.38,2.95,3.43,5.56,2.81-2.59.49-4.83-2.55-5.4-3.03l-.16.22h0Z"/>
      <path class="cls-39" d="M156.15,95.7c-.24,1.17-3.99,1.73-4.98.13,0,0,.64,1.53,1.82,1.59,1.28.07,2.86-.11,3.17-1.73Z"/>
      <path class="cls-73" d="M154.2,95.5c-1.71,1.24-1.95,3.14-3.9,2.83-1.22-.18-3.08-1.06-5.49-.2l1.53-3.45c.93.31,2.92-.02,3.65-3.03.44-1.75,2.88-1.75,3.48-1.75-.69.4-.93.69-.89,1.06.04.6.66.35.49,1.51,0,0,1.55-.49,2.08-1.17.71,2.33,0,3.48-.95,4.19v.02Z"/>
      <path class="cls-39" d="M150.28,98.45c-1.46-.22-2.97-1.09-5.69-.11l1.68-3.83c1.26.42,2.95-.29,3.61-2.9.42-1.68,2.41-1.84,4.07-1.84-.62.35-1.73.89-1.04,1.55.18.18.35.35.31.97.42-.16,1.44-.55,1.84-1.06.2-.24.13-.27.22.04.6,1.97.27,3.39-1,4.32-1.68,1.22-1.95,3.17-4.01,2.86ZM149.44,98.01c1.62.4,2.04.38,3.23-1.11.38-.49.82-1.04,1.46-1.51,1.15-.84,1.46-2.06.97-3.83-.53.49-1.48.86-2.17,1.09.09-.62.11-.86-.2-1.15-.42-.4-.42-.97.29-1.46-2.08.11-2.75.93-2.9,1.64-.69,2.79-2.52,3.45-3.7,3.14l-1.37,3.1c1.66-.51,3.01-.27,4.41.09h-.02Z"/>
      <path class="cls-39" d="M145.17,97.78c2.44-1.37,4.92,1.28,7.49-1.95-2.21,3.34-4.92,1.13-7.35,2.15l-.13-.2Z"/>
      <path class="cls-83" d="M139.03,96.12c-1.59-1.06-3.12-.75-4.03-.84-1.51-.13-2.19-1.22-2.3-2.77-.27-1,.09-1.66.66-2.41.04.64.2,1.09.64,1.46-.09-.64.6-.93.82-1.46.16-.4,0-1.06-.29-1.37.8.18,1.15.58,1.4,1.13.93,2.15,1.95,3.52,2.68,3.48l.44,2.79h-.02Z"/>
      <path class="cls-39" d="M138.81,93.04c-.29.02-.53.16-1.28-.78-1.31-1.64-1.33-2.81-2.17-3.37-.42-.27-.8-.33-1.31-.44.38.38.55.51.64,1,.16.78-.51,1.04-.82,1.51-.13-.27-.27-.71-.33-1.46-.47.6-.89,1.06-1.09,1.66-.22.69,0,1.46,0,1.4.29,3.32,2.79,2.97,3.63,2.99,2.06.04,2.3.69,3.08.8-.09-1.04-.07-1.44-.35-3.28v-.02ZM135.09,95.08c-1.48-.07-2.1-1.17-2.21-2.59-.02-.35-.38-.89.42-2.04.07.51.24.82.47,1.06v.09s.04,0,.07-.02c.13.13.27.24.42.35-.07-.44-.13-.62.18-1,.4-.49.73-.69.62-1.51-.02-.13-.07-.27-.11-.4.31.16.55.35.73.69.29.55,1.42,3.57,2.75,3.85.13.8.38,1.79.49,2.17-.13-.09-.6-.27-.62-.29-1.2-.44-2.24-.31-3.14-.35l-.04-.02Z"/>
      <path class="cls-45" d="M142.22,92.85c-.24-.49,0-1.22.29-1.62.35-.47.93-.58,1.4-.91.89-.6,1.31-1.55.73-2.59,1.77.8,3.41,3.94,1.53,5.36-.44.33-1.11.58-1.64.8-.82.33-1.79.73-2.66.22l.4-1.28-.04.02Z"/>
      <path class="cls-39" d="M142.31,92.82c-.22-.62.18-1.51.8-1.86.55-.31,2.57-1.11,1.55-3.08,1.88.93,3.43,4.07,1.13,5.36-.44.24-1.9.86-2.57.97-.47.09-.91.04-1.33-.2l-.09.16c.47.27.97.31,1.48.22.66-.13,2.17-.78,2.61-1.04,2.39-1.37.78-5.09-1.4-5.8.55,2.06-1,2.72-1.59,3.08-.82.49-1.11,1.57-.75,2.24l.18-.07-.02.02Z"/>
      <path class="cls-76" d="M141.65,95.39c1.77-.64,1-.33,3.94-.42s4.98-1.55,4.19-3.7c-.4-1.06-2.57-1.9-2.24-2.99,0,0-1.59.53-1.06,2.35.51,1.82-1.46,1.93-1.46,1.93l-3.37,2.86v-.02Z"/>
      <path class="cls-39" d="M141.69,95.48c.84-.27,1.13-.4,1.73-.38,2.52.07,6.02-.02,6.56-2.5.42-2.55-2.77-3.06-2.37-4.5-.24.07-.73.33-.93.47-1.24,1.06-.07,1.99-.33,3.01-.07.31-.53.78-1.35.93.8.04,1.46-.4,1.59-.84.38-1.02-.6-1.71.27-2.88.18-.2.27-.29.6-.44-.4,1.11,1.93,1.77,2.33,3.14.47,1.28-.49,3.12-4.21,3.32-2.86.04-2.41-.18-3.96.44l.09.18v.04Z"/>
      <path class="cls-48" d="M139.99,96.08c2.21-.82,3.59-.73,4.32-3.92.75-3.19-.27-5.65-3.43-6.78,0,0,.86.91.73,1.75,0,0-.44-1.02-1.42-1.42,1.33,1.97-1.84,3.01-1.06,6.18.51,2.1.86,4.19.86,4.19Z"/>
      <path class="cls-39" d="M140.23,84.96c.22.27.66.71.93,1.22-.47-.4-.91-.55-1.17-.75.27,1.06.35,1.26-.42,2.61-1.55,2.64-1.06,2.88.16,8.08,0,.07.07.13.13.18h.22c.13,0,1.64-.55,1.77-.6,1.15-.44,2.5-1.24,2.86-4.61.51-4.63-3.28-5.67-4.47-6.13h0ZM144.26,91.05c-.44,3.9-2.08,4.05-4.1,4.72-.13-.64-.44-2.19-.49-2.37-.35-1.53-.51-1.93-.49-2.61.04-2.08,1.97-3.14,1.31-4.69,1.44,1.13,1.09,3.39,1.35,1.11.04-.47-.13-.93-.4-1.33,2.17,1.02,3.08,2.83,2.81,5.2v-.02Z"/>
      <path class="cls-82" d="M136.2,85.71c1.46,1.82-.64,2.88-.89,5.58-.16,1.75,1.59,4.14,4.65,4.78,0,0,1.55-1.31,1.62-3.34.13-3.32-1.17-6.13-5.4-7.02h.02Z"/>
      <path class="cls-39" d="M141.82,91.47c-.35-3.32-2.3-5.2-5.6-5.87l-.35-.09c1.02,1.24.82,1.71.09,3.17-1.13,2.24-1.42,4.16.84,6.16,1.31,1.15,3.1,1.66,3.34,1.51.13-.07.75-.73,1.13-1.46.73-1.37.6-2.46.53-3.41h.02ZM141.34,92.73c-.13,1.17-.53,2.13-1.48,3.03-.18-.09-.31-.09-.58-.2-1.77-.51-3.96-2.35-3.7-4.47.16-1.75,1.48-3.17,1.28-4.27,0-.31-.18-.62-.35-.89,3.74.95,4.94,3.41,4.85,6.82l-.02-.02Z"/>
      <path class="cls-39" d="M138.83,95.79c-1.51-1.44-3.83.07-5.09-2.77.97,2.83,3.37,1.71,4.94,2.9l.13-.13h.02Z"/>
      <path class="cls-39" d="M140.03,95.95c-.2.07-1.15-.64-1.42-.91-1.13-1.17-1.24-4.16-.31-5.56-3.65,4.32,2.33,7.66,1.71,6.47h.02Z"/>
      <path class="cls-39" d="M140.3,90.37c-.22-.29-1.09-.78-1.44-1.04.8,1.02,2.48,2.61,1.09,6.11-.82,2.48,2.26-2.55.35-5.09v.02Z"/>
      <path class="cls-39" d="M140.07,96.1s.18.04.6-.47c.89-1.04,2.86-3.03,2.3-6.16.33,3.01-1.59,4.85-2.21,5.65-.73.93-.73.8-.73.8l.04.2v-.02Z"/>
      <path class="cls-39" d="M143.57,94.42c.55-.09,3.3.27,4.27-1.33-1.02,1.53-3.76,1.11-4.3,1.15l.04.2-.02-.02Z"/>
      <path class="cls-39" d="M143.86,93.71c1.09-.09,1.93-.44,2.66-1.04-.64.47-1.62.82-2.7.84v.2h.04Z"/>
      <path class="cls-39" d="M146.34,90.37c.07.58-.16,1.31-.8,1.55.69-.18,1.02-.91,1-1.55h-.2Z"/>
      <path class="cls-39" d="M145.65,90.14c.2.53-.66,1.71-1.51,2.17l.11.16c.8-.51,1.64-1.77,1.4-2.33Z"/>
      <path class="cls-39" d="M145.03,90.41c-.2.44-.33.82-.66.97l.11.18c.35-.22.44-.62.55-1.13v-.02Z"/>
      <path class="cls-39" d="M141.96,90.1c.24.47.29,1.55-.2,2.24-.04.07-.2.29-.24.35l.18.09c.02-.07.18-.31.22-.38.44-.75.31-1.88.04-2.33v.02Z"/>
      <path class="cls-39" d="M137.81,95.99c-.62-.38-2.35-1.93-1.15-5.25-.49,2.41.93,4.38,2.33,4.94-.47-.75-.86.53-1.2.31h.02Z"/>
      <path class="cls-39" d="M142,95.35c-.27.18-.91.42-1.09.69.33-.6.55-.6,1.09-.69Z"/>
      <path class="cls-60" d="M155.02,111.49c-.6-1.06-.42-3.45-.29-4.92.31-2.92,0-5.03-2.06-7.46-1.93-.24-8.84-.62-12.87.4-3.06.78-4.07,2.33-6.78,3.85-.82.47-1.59.95-2.28,1.48.29.86.16,1.77-.2,2.61-.8,2.9-.6,2.55-2.35,5.03.42,1.22.86,2.57,1.33,3.99.38,3.03,2.37,5.6,6,8.11h-.04c4.19,2.61,5,4.12,6.58,4.47,1.26.29,4.27.27,5.4-.09.95-.31,1.82-1.2,2.08-2.39.55-.42,1.09-.97,1.55-1.64,3.37-4.69,6.75-8.39,3.92-13.44h0Z"/>
      <path class="cls-10" d="M139.21,120.62c1.06,1.33,1.48,3.88,4.43,4.67,2.41.66,4.41.22,6.29-1.53-.69,3.92-5.76,4.92-9.85,2.02-1.31-.97-.82-4.23-.86-5.16h0Z"/>
      <path class="cls-18" d="M140.36,122.85c-.49-.91-.04-1.84.16-1.66,2.59,2.44,7.26,3.54,9.12,2.06.16-.11.31.07.2.22-2.3,3.34-8.06,2.06-9.48-.64v.02Z"/>
      <path class="cls-56" d="M141.16,120.75c1.11.07,2.21-.09,3.26-.35.22-.07,2.77.04,5.4-.95.42-.16.84.27.66.66-.62,1.37-.53,2.41-1.51,3.37-1.06,1.04-2.26,1.17-4.54.8-.09,0-.18-.04-.24-.07-1.93-.6-2.41-1.11-3.48-2.7-.22-.33.04-.78.47-.75h-.02Z"/>
      <path class="cls-65" d="M140.89,121.79c.07-.07-.66-.71-.53-.78-.02-.2.64.18.62.16,1.68-1.42,6.64-.18,7.02,2.9-.19.04-.29.1-.29.18-.4.18-1.06.18-1.48.24-1.66.04-2.88-.27-4.16-1.24-.53-.58-1.13-1.35-1.17-1.44v-.02Z"/>
      <path class="cls-69" d="M139.7,119.77c2.88.91,7.99.86,10.76-.4.04.53-.53,1.4-.69,1.53-1.9,1.73-7.95,1.11-9.19.16-.44-.64-.44-.62-.89-1.26v-.02Z"/>
      <path class="cls-39" d="M138.7,120.53c.11-.89.82-1.66,1.71-1.9-.33.22-.69.66-.47,1,3.74.62,9.04,1.22,11.49-1.31-1.11,1.71-.73,4.07-1.99,5.31-.71.69-2.41,1.31-4.1,1.2-3.08-.18-4.67-2.17-5.96-4.47-.31.04-.44-.09-.66.18h-.02ZM147.25,124.14c1.93-.33,2.41-1.73,2.83-3.26v.02c-1.73,1.77-5.4,1.75-9.17.53,1.51,2.24,3.52,3.19,6.36,2.7h-.02ZM140.63,120.99c1.42.91,7.31,1.35,9.06-.13.13-.11.42-.64.51-1.13h-.16c-2.75,1.33-6,1.06-9.88.4.16.29.31.58.47.84v.02Z"/>
      <path class="cls-31" d="M146.63,122.48c.38.04.91.47.97,1.22,0,.16-1.66.69-3.63-.04-3.52-1.31.04-1.51,2.66-1.17h0Z"/>
      <path class="cls-12" d="M140.65,112.93c.07.04,1.59,1.4,1.59,1.4,0,0,.95,0,1.97-.89,1-.86,1.57-6-.97-7.35-2.55-1.35-5.56-1.28-6.84-.22s-3.23,3.08-1.11,7.02c0,0,2.15-1.79,5.38.04h-.02Z"/>
      <path class="cls-7" d="M140.65,112.93c.07.04,1.59,1.4,1.59,1.4,0,0,.95,0,1.97-.89,1-.86,1.57-6-.97-7.35-2.55-1.35-5.56-1.28-6.84-.22s-3.23,3.08-1.11,7.02c0,0,2.15-1.79,5.38.04h-.02Z"/>
      <path class="cls-9" d="M147.49,108.08c.66-1.95,1.51-2.79,2.86-2.68,1.35.09,3.26,1.35,3.39,3.72s0,2.24,0,2.24c0,0-1.28.35-1.55,1.17,0,0-2.64,1.11-3.79-.62-1.13-1.73-.91-3.81-.91-3.81v-.02Z"/>
      <path class="cls-34" d="M147.49,108.08c.66-1.95,1.51-2.79,2.86-2.68,1.35.09,3.26,1.35,3.39,3.72s0,2.24,0,2.24c0,0-1.28.35-1.55,1.17,0,0-2.64,1.11-3.79-.62-1.13-1.73-.91-3.81-.91-3.81v-.02Z"/>
      <path class="cls-28" d="M142.24,114.33s-1.22-1.71-3.41-2.06c-2.17-.35-3.57.62-3.57.62,0,0,1.48,2.68,3.39,2.57,1.9-.11,3.57-1.13,3.57-1.13h.02Z"/>
      <path class="cls-23" d="M144.21,127.92c1.97-.11,3.83-.95,5.29-2.99,3.37-4.69,6.75-8.39,3.92-13.44-.6-1.06-.42-3.45-.29-4.92.42-4.07-.33-6.53-5.34-10.59-2.17-1.15-4.94-2.26-7.84-3.01.2-.09.38-.18.58-.24,3.3.73,6.44,1.97,8.88,3.26,5,4.05,5.78,6.51,5.34,10.59-.16,1.46-.33,3.85.29,4.92,2.83,5.05-.53,8.75-3.92,13.44-1.44,2.02-3.3,2.88-5.29,2.99-.73.04-3.14.09-1.59,0h-.02Z"/>
      <path class="cls-25" d="M144.21,127.92c1.97-.11,3.19-1.77,4.65-3.79,3.37-4.69,6.11-7.99,3.28-13.04-.6-1.06-.16-3.54,0-5,.42-4.07.66-6.05-4.34-10.1-2.17-1.15-4.94-2.26-7.84-3.01.2-.09.38-.18.58-.24,3.3.73,6.44,1.97,8.88,3.26,5,4.05,5.78,6.51,5.34,10.59-.16,1.46-.33,3.85.29,4.92,2.83,5.05-.53,8.75-3.92,13.44-1.44,2.02-3.3,2.88-5.29,2.99-.73.04-3.14.09-1.59,0h-.02Z"/>
      <path class="cls-5" d="M141.16,101.08c.51,2.41,3.88,3.01,5.29.8.55-.86.62-1.93.31-2.77-1.2.11-2.37.29-3.52.51.44,1.31-1.13,2.28-2.08,1.46h0Z"/>
      <path class="cls-4" d="M149.44,98.96c1.73.29,3.34.84,4.3,1.73-.16-.55-.31-1.09-.47-1.48-1.26-.2-2.52-.27-3.83-.24h0Z"/>
      <path class="cls-19" d="M149.73,124.85c-.04.82-.31,2.66-2.3,3.03-1.44.27-5.2.31-5.87-.89-.86-1.53-3.57-3.01-3.96-3.37-2.21-1.99-2.92-2.99-3.68-5.96-.8-3.19,1.44-3.72,1.04-6.47-.69-4.83,3.74-9.37,6.58-11.21-3.52.86-7.88,1.62-10.96,4.38.53.97.42,2.06,0,3.08-.22.8-.38,1.62-.69,2.39.89,1.97,1.06,4.3,1.06,6.73,0,3.57,4.5,8.37,8.84,11.01,5.09,3.1,9.1,1.66,9.79-1.04.16-.64,1.88-1.99,3.01-4.16-.75.73-1.84,2.1-2.83,2.46h-.02Z"/>
      <path class="cls-75" d="M130.62,100.53c.29.04-1.97,4.23-1.59,4.19l-2.52-.07v1.2s1.15,4.32,3.48,6.73c2.3,2.41,1.99,1.4,1.99,1.4,0,0-1.17-3.32-.75-5.31,1.31-1.24,1.71-2.99,1.2-4.56,1.22-.24,3.61-1.24,4.05-2.75l-5.85-.8v-.02Z"/>
      <path class="cls-54" d="M125.57,103.41c-1.06-.71-2.33-.8-3.61-.04-1.33.8-1.84,3.72-3.41,3.61,0,0,1.15,1.84,3.45.69,2.3-1.15,3.01,1.28,3.01,1.28l.55.4v-5.94Z"/>
      <path class="cls-39" d="M122.29,103.3c.51-.29,1.57-.53,2.52-.13.89.42.75.64.75.09-.53-.31-1.13-.49-1.86-.49-3.54.2-3.32,4.21-5.34,4.19.09.31.29.71.75,1.04,2.3,1.51,2.79-.49,4.23-.44.42,0,1.2.44,1.64,1.42-.18-1-.95-1.71-1.59-1.75-1.48-.18-2.21,1.37-3.96.49-.27-.13-.55-.33-.84-.64,1.55.11,1.93-2.88,3.65-3.76h.04Z"/>
      <path class="cls-79" d="M127.61,110.76c-.47.58-1.51.71-2.19.6-.8-.13-1.26-.73-1.93-1.11-1.24-.69-2.68-.62-3.63.62,0-2.5,3.01-6.16,5.85-4.78.69.33,1.37.95,1.95,1.44.89.75,1.9,1.64,1.77,2.95l-1.82.27v.02Z"/>
      <path class="cls-39" d="M127.52,110.67c-.66.62-1.99.66-2.77.13-.51-.33-2.97-2.81-4.81-.02.11-2.7,3.26-6.27,6.18-4.34.84.55,3.59,2.77,3.45,4.07.07-.69-.16-1.28-.58-1.82-.53-.71-2.35-2.26-2.92-2.61-3.08-1.97-6.53,1.28-6.25,4.92,2.28-1.82,3.9-.2,4.67.29,1.06.66,2.59.4,3.23-.4l-.18-.18-.04-.04Z"/>
      <path class="cls-1" d="M132.48,98.67c-.33,3.01.53,5-3.48,7.04-4.01,2.04-9.04,2.24-10.47-2.21,0,0,1.31,1.44,2.7.4,0,0-1.73.18-2.35-1.28,0,0,1.93.71,3.06-.49,1.17-1.06,1.64-2.95,4.63-3.03,2.99-.11,5.87-.4,5.87-.4l.04-.02Z"/>
      <path class="cls-39" d="M126.85,98.87c-3.37.09-3.76,1.99-4.98,3.14-.82.84-2.13.82-3.19.38.11.31.22.6.49.93.31.38.75.62,1.24.73-.38.09-.78,0-1.2-.2-.47-.24-.62-.47-.97-.84.24.75.55,1.88,1.51,2.79,2.39,2.37,6.8,1.62,10.05-.27,3.08-1.82,2.68-3.7,2.88-6.18.11-1.44.58-.75-5.82-.44v-.04ZM129.58,105.16c-3.63,2.13-8.9,2.97-10.72-1.2.73.55,1.66.71,2.55.11,1.79-1.22-.82.8-2.21-1.26,3.48.89,3.3-2.39,5.89-3.28,1.06-.38,1.04-.13,7.11-.6-.33,2.13.66,4.25-2.61,6.22Z"/>
      <path class="cls-39" d="M132.48,98.54c-.04.24-3.9,3.41-7.31,2.19-.47-.18-.82-.33-1.4-.62,1.64.62,3.68,1.68,7.84-1.24.13-.09.55-.29.62-.44,0,0,.24.11.24.11Z"/>
      <path class="cls-39" d="M125.99,104.34c1.09,0,2.97-1.2,3.81-2.61.09-.16.53-.4.62-.53.66.11.71-.09,0,.93-1,1.46-3.39,2.28-4.45,2.21h.02Z"/>
      <path class="cls-39" d="M132.19,101.42c.16-.4.24-1.26.53-1.55-.75.64-.6,1.04-.53,1.55Z"/>
      <path class="cls-40" d="M131.41,100.77c-2.57.07-3.96,1.55-5,2.15-1.71,1-3.34.75-4.74-.82-.93-1.04-.84-2.59-.82-3.83.22.58.66,1.37,1.44,1.44-.6-.62-1.64-2.37-1.04-3.92.4,1.11,1.71,2.19,2.88,1.93,2.77,1.57,3.79,1.02,4.52.42l2.77,2.66v-.02Z"/>
      <path class="cls-39" d="M128.67,97.78c-.93.78-1.68,1.22-4.47-.33-.27.04-.84.22-1.73-.35-.89-.6-1.11-1.31-1.24-1.59-.11.44-.49,1.15-.16,2.41.11.44.29.86.51,1.24-.02-.02-.07-.04-.09-.09-.42-.44-.58-.93-.78-1.44-.07,2.28-.2,3.63,1.17,4.96,1.2,1.2,2.81,1.48,4.52.53,1.26-.71,2.1-1.77,4.52-2.08.22,0,.51-.09.69-.18-1.48-1.59-1.68-1.84-2.99-3.08h.04ZM130.91,100.55c-3.54.51-4.1,2.64-6.36,2.77-1.59.07-2.7-1.2-2.99-1.62-.53-.8-.6-1.82-.6-2.81.58,1.13,1.42,1.06,2.02,1.13l-.49-.49c-.66-.66-1.51-2.1-1.22-3.48.47,1.09,1.64,2.02,2.81,1.88,1.64.91,3.17,1.51,4.54.49.84.8,1.24,1.13,2.55,2.24-.13-.07-.18-.13-.27-.11Z"/>
      <path class="cls-39" d="M130.93,100.57c-2.79-.4-4.05,2.95-7.71.89,3.37,2.3,5-.71,7.66-.64l.04-.24Z"/>
      <path class="cls-70" d="M136.86,100.33c-.64-3.94-3.79-6.36-6.22-6.29-3.74.09-5.38,2.68-7.77.69.89,5.43,4.65,7.33,9.26,7.42,2.81.07,4.74-1.79,4.74-1.79v-.02Z"/>
      <path class="cls-39" d="M136.62,100.24c-.11-.29-.13-.55-.24-.91-.66-2.57-3.37-5.6-6.6-5.05-3.61.6-4.56,2.35-7.02.53l.29-.16c.78,4.52,3.52,6.69,7.95,7.15,2.02.22,3.88-.18,5.6-1.59.13-.11.04-.04.04,0l-.02.02ZM137.06,100.46c-.04.07-.4.38-.47.44-1.37,1.13-2.88,1.48-4.47,1.51-3.17-.18-5.89-.89-7.82-3.45-1.31-1.86-1.51-3.76-1.68-4.65.51.38,1.15.91,1.77.95,2.37.22,5.47-2.92,9.21-.49,2.95,1.9,3.65,5.47,3.45,5.71v-.02Z"/>
      <path class="cls-39" d="M136.66,100.4c.09-.24-.8-1.53-1.13-1.86-1.51-1.51-3.7-1.99-5.74-.89,2.72-1.77,5.94-.16,6.95,1.99.13.27.31.64.18.89l-.24-.13h-.02Z"/>
      <path class="cls-39" d="M135.4,98.12c-.47-.84-1.82-2.79-4.58-2.44,2.77-.6,4.92,1.55,5.56,3.37-1-.64-.71-.49-.97-.93Z"/>
      <path class="cls-51" d="M136.93,96.37c-.97.93-2.35.73-3.5.55-.75-.11-1.71-.22-2.39-.53-2.9-1.24-1.86-5.8.16-7.37-.4,1.51.47,2.61,1.79,3.1.71.27,1.51.22,2.1.73.51.42,1.06,1.31.91,1.99l.93,1.53h0Z"/>
      <path class="cls-39" d="M137.17,96.41c-.07.11-.16.22-.27.31-1.02.82-2.28.69-3.61.49-1.4-.2-2.72-.35-3.59-1.42-1.31-1.62-.73-4.25.09-5.47.66-1,1.35-1.44,1.64-1.66l-.11.4c-.38,1.48.53,2.57,1.97,2.95.51.13,1.11.18,1.62.44.73.4,1.53,1.53,1.33,2.46v-.18c.31.55.62,1.13.93,1.68ZM136.69,96.34c-.33-.47-.62-.89-.91-1.35-.07-.11-.07-.07-.02-.18.11-.51-.24-1.2-.69-1.64-.51-.51-1.17-.53-1.86-.73-1.44-.44-2.64-1.64-2.13-3.43l.24.16c-1.68,1.33-2.57,4.67-1.17,6.36.75.91,1.88,1.02,3.3,1.22,1.31.2,2.28.31,3.19-.35h.09l-.04-.04Z"/>
      <path class="cls-39" d="M129.89,92.91c.11.75.62,1.64,1.55,1.75-.91.13-1.79-.53-1.99-1.35l.47-.4h-.02Z"/>
      <path class="cls-49" d="M137.62,97.94c-2.5-.27-1.4-.11-5.23.69-3.83.8-6.93-.47-6.62-3.48.16-1.51,2.66-3.23,1.86-4.54,0,0,2.21.18,2.17,2.68-.07,2.5,2.52,2.02,2.52,2.02l5.27,2.64h.02Z"/>
      <path class="cls-39" d="M137.86,98.01c-.11.04-.29.13-.49.13-.38.02-1.11-.22-2.13.04-2.61.69-5.05,1.28-7.33.51-1.26-.47-2.24-1.42-2.33-2.72-.09-.97.04-1.42.66-2.33.47-.71,1.02-1.33,1.26-1.97.24-.62.04-.89-.13-1.26.33.04.73.07,1.26.33.97.51,1.37,1.46,1.37,2.5.04.53.04,1.09.62,1.51.49.35,1.17.38,1.75.27,2.17,1.09,2.68,1.4,5.49,2.97l-.02.02ZM137.37,97.87c-2.06-.93-2.7-1.11-5.16-2.35h.18c-1.2.2-2.37-.2-2.7-1.4-.09-.49-.07-.31-.09-.86.04-1.46-.78-2.35-1.97-2.52l.13-.22c.8,1.28-1.31,2.9-1.75,4.3-.09.27-.07.44-.09.82.02,2.15,2.15,3.03,4.47,2.99,1.33,0,3.21-.49,4.74-.91.75-.22,1.26-.16,2.06-.09h.07s.02.13.11.2v.04Z"/>
      <path class="cls-39" d="M134.8,97.3c-.62.04-4.01,2.06-5.94-.4,1.82,1.64,5.2.27,5.94.16v.24Z"/>
      <path class="cls-39" d="M130.68,92.45c-.09.73,1.42,1.99,2.68,2.33l-.11.24c-1.51.07-2.72-1.79-2.57-2.57Z"/>
      <path class="cls-26" d="M144.02,115.68c.31.82,1.35.8,2.21.91,1.53.16,2.68-.53,3.79-1.48-.2,2.64-3.37,4.47-5.71,1.93-.33-.35-.51-1.2-.31-1.35h.02Z"/>
      <path class="cls-60" d="M129.8,111.98c-1.48-1.73-1.37-1.9-1.84-3.1-.16-.02-.31-.04-.42-.04-4.81.09-3.01,6.2-.16,7.35,2.92,1.2,3.39-.49,3.39-.49-.38-3.92-.11-2.75-.95-3.74l-.02.02Z"/>
      <path class="cls-11" d="M130.11,114.28s-.86-.07-1.11-.73c-.29-.8.42-1.17.47-1.09-.13-.84-.33-2.04-1.46-2.19-1.33-.18-1.93,1.31-1.73,2.24.29,1.24.97,2.97,3.14,2.97,0,0,.07-1.06.66-1.17l.02-.02Z"/>
      <path class="cls-39" d="M128.29,110.21c.71.4,1.2,1.51,1.33,2.24,0,0-.27.18-.29.2-.4.31-.4,1.37.73,1.62.09,0-.66.42-.62,1.2-.29-.33-.29-.8-.09-1.11-1.11-.58-1.04-1.62-.18-2.3-.4-.93-.47-1.37-1.37-1.42-.89-.04-1.46,1.02-1.51,1.88-.35-1.46.66-3.03,1.99-2.28v-.02Z"/>
      <path class="cls-58" d="M136.11,112.42c-1.17-1.44-1.04-2.99.33-4.43,1.82-1.93,6.53-1.59,7.15,1,.66,2.83-1.02,4.3-2.02,4.45-1.93-1.44-4.3-1.51-5.45-1.02h-.02Z"/>
      <path class="cls-39" d="M136.66,110.01c0-1.04.89-1.88,1.97-1.88s1.97.84,1.97,1.88-.89,1.88-1.97,1.88-1.97-.84-1.97-1.88Z"/>
      <path class="cls-8" d="M138.61,109.92c-.95.07-1.44-1.15-1.68-.04-.22,1.04.89,1.86,1.82,1.79.95-.07,1.82-.97,1.59-2.02-.27-1.2-.8.2-1.75.27h.02Z"/>
      <path class="cls-32" d="M136.91,108.46c-1.44.53-.6,2.61.84,2.08s.6-2.61-.84-2.08Z"/>
      <path class="cls-39" d="M135,110.3c.04-1.2.91-2.46,1.97-3.1,2.77-1.57,6.05-.55,6.8,1.33.2.44.38,1.4.22,2.44-.27,1.55-1.37,2.57-2.1,2.68.16.22.29.47.35.71-.62-.53-.49-.4-.73-.6-1.11-.91-4.12-2.04-6.22-.84.16-.18.35-.33.58-.47-.44-.2-.89-1.24-.86-2.13v-.02ZM143.44,109.5c-.07-.42-.16-2.06-2.88-2.48-3.06-.51-5.8,1.99-4.89,4.36.13.35.35.69.4.71.04.04.07.07.09.11.24-.27,2.9-.78,5.45,1,1.09-.27,2.15-1.68,1.84-3.68v-.02Z"/>
      <path class="cls-3" d="M142.4,96.43c-.38,0-.64-.07-.8-.18,1.26-1.64.35,0,2.02-.04,2.3-.04,3.43,1.28,3.72,1.68,1.97,2.77-.58,4.43-2.72,4.56,4.19-1.37,1.86-6.11-2.21-6.02Z"/>
      <path class="cls-24" d="M145.12,97.89s1.82.71,1.71,2.19c-.13,1.48-1,2.19-1.86,2.35-.86.16-.97-.18-.47-.93.51-.73.53-2.77.2-3.12-.33-.38-.75-1.02.44-.49h-.02Z"/>
      <path class="cls-21" d="M144.9,97.39s1.77,1.09,1.64,2.57-.93,1.79-1.79,1.95c-.86.16-.97-.18-.47-.93.51-.73.27-2.35-.09-2.72-.33-.38-.49-1.42.71-.89v.02Z"/>
      <path class="cls-39" d="M156.28,113.82c-.38-1.95-1.04-2.13-1.26-3.59-.53-3.14,1.2-6.87-.97-10.25l-.69.49c2.02,3.17.91,5.65,1.02,8.81.11,2.77.95,2.21,1.37,4.61.66,3.37-1.71,6.47-3.79,9.28-.6.8-1.22,1.77-2.1,2.59-.04-.31-.13-.64-.13-.64,0,0-.29,1.4-.58,1.95-.89,1.64-2.04,1.66-3.5,1.75-4.74.24-4.3-.82-8.26-3.59-.82-.58-1.55-1.24-2.37-1.79-1.55-1.06-4.54-3.1-5.12-6.8.53-.18.86-.53.89-1.02-1,1.04-2.88.55-3.74-.04-2.86-1.99-3.21-6.75.86-6.27.44,1.97,1.86,3.59,3.14,4.43.62.38.93.4,1.48.51-.73-1.73-1.42-3.48-1.28-5.49,1.35-.64,1.9-3.34,1.48-4.63,1.64-.24,3.72-1.35,4.14-2.79l-.73-.2c-.44,1.55-3.63,2.83-4.78,2.9.24.09.55.13.91.13.71,2.75-.97,2.83-2.04,3.21.58.09,1.2-.02,1.73-.29-.4.95-1.22,1.75-2.02,2.24.31.07.66.04,1.02-.11-.04,1.44.22,2.88.71,4.21-.97-.62-2.86-2.66-3.96-5.49,0,.22.02.44.07.69-5.91-.29-3.28,8.75,1.55,8.19.86,5.07,5.82,7.8,7.88,9.21,3.48,2.41,3.37,3.26,6.13,3.45,1.11.07,2.48.04,3.57-.11,1.62-.24,2.68-1.33,2.95-2.57.71-.55,1.31-1.26,1.93-2.13,2.61-3.65,5.36-7.04,4.54-10.83l-.04-.02Z"/>
      <path class="cls-71" d="M155.69,118.62c-.82.47-1.97.53-2.88.22,1.2-.04,2.19-.6,2.55-1.48.09-.22-.18-.42-.38-.29-.64.38-1.59.29-2.13.18-.89-.2-1.93-1.44-4.34-1.37l-3.61.18c-.44-.4-1.11-.35-1.68-.27-2.21.38-2.55,1.79-5.78,1.48-.71-.07-1.55-.35-2.1-.82.42,1.04,1.2,1.95,2.17,2.48-.89.38-1.9.4-2.79.09.95,1.28,2.75,1.79,4.19,1.22-.27.64-.89,1.11-1.55,1.17,1.15.53,3.08-.02,4.34-.89-.16.58-.58,1.09-1.11,1.33,1.13.02,2.24-.27,3.21-.84,0,.42-.2.84-.51,1.13,1.09-.16,2.1-.82,2.75-1.75.69,1.28,2.1,2.08,3.5,2.02-.35-.58-.6-1.22-.73-1.88,1.26,1.37,3.45,1.68,5,.69-.51-.13-1.02-.38-1.44-.71,2.02.11,3.03-.51,3.32-1.88h0Z"/>
      <path class="cls-39" d="M155.84,118.42s-.82.47-1.57.35c1.13-.44,1.37-1.44,1.31-2.24-.33.69-1.77.62-2.55.49-.64-.09-1.28-.73-2.48-1.13-1.13-.35-2.02-.27-2.86-.22-4.1.22-2.06.13-3.28-.11-.42-.09-.95-.04-1.37.07-1.82.33-2.57,1.59-4.74,1.55-1.93.07-2.7-.66-3.14-1,.02.35.29,1.62,1.71,2.75-1.15.29-1.86-.04-2.92-.4.55.75,1.11,1.66,2.55,2.08.58.18,1.22.22,1.82.11-.53.55-1.02.51-1.93.6.8.35,2.08,1.22,4.67-.09-.31.38-.53.42-1.57.91,1.22.02,2.39.13,3.94-.6-.16.38-.29.44-.91,1.04.84-.13,2.28-.2,3.48-1.66.33.51.8.93,1.33,1.26,1.15.69,2.13.55,2.61.53-.27-.42-.49-.73-.71-1.37,1.42,1,3.74,1.09,4.96-.16-.18-.04-.51-.13-.97-.35,2.68-.42,2.59-2.3,2.59-2.3l.04-.11ZM151.57,120.22c.66.49.97.75,1.62,1.02-.62.27-1.31.35-1.97.24-1.53-.22-2.19-1.11-2.83-1.82.18.95.24,1.57.71,2.44-1.2-.09-2.28-.84-2.83-1.86l-.2-.38c-.27.38-.82,1.37-2.17,1.84.2-.42.18-.71.18-1.2-.51.29-1.33.84-2.68,1.02.47-.51.53-.95.73-1.64-.49.33-2.5,1.42-4.23,1.46-.58,0,.82-.04,1.24-1.04l.22-.51-.55.18c-.58.27-2.06.44-3.28-.53,1.22.13,1.97-.27,2.55-.51-.71-.38-1.59-.82-2.33-2.06,1,.58,2.06.62,3.23.55,2.19-.22,2.7-1.4,4.78-1.51.58-.04.84.11,1.09.33,3.59-.18,3.94-.22,4.27-.18,1.77.09,2.68.97,3.48,1.28.49.18,1.77.33,2.57-.13-.33.89-1.35,1.31-2.3,1.33l-1.42.04c1.37.44,2.41.91,3.9.4-.64,1.37-2.26,1.22-3.72,1.15l-.04.07Z"/>
      <path class="cls-2" d="M151.94,117.91c-.4.07-.8-.16-1.06-.42-.47-.44-1.51-.6-2.15-1.44-.71-.09,0-.18-3.83,0-.16-.13-.33-.22-.51-.27-1.02.64-1.77,1.97-3.06,2.08,1.15.27,2.68.62,3.96,0-.38.91-1.35,1.44-2.3,1.79.86-.02,1.82-.09,2.37-.71-.29,1.24-1.04,2.37-2.1,3.17,1.09-.16,2.1-.82,2.75-1.75.64,1.22,1.97,2.02,3.32,2.02.18-.07.18,0,.04-.27-1-.29-2.08-1.9-2.46-3.28.64.53,1.55.78,2.39.62-.51-.29-.91-.75-1.11-1.28,1.2.49,2.64.38,3.72-.29l.02.02Z"/>
      <path class="cls-35" d="M150.28,116.05c-.49-.53-.62-.07-1.2-.49l-5.56.09c-.53.18-1.04.38-1.55.6.2.51.66.93,1.2,1.11.84.27,1.77-.27,2.57.09.51.22,1.79,1.35,3.88.69,1.48-.47,1.15-1.51.64-2.08h.02Z"/>
      <path class="cls-27" d="M147.12,115.46c-.22-.27-.44-.58-.44-.91l-.53,1.84c-.22.27-.24.62-.24.97-.02,1.11-.16,3.76,1.84,4.74-.95-1.15-1.42-2.64-1.31-4.1.42.44,1,.75,1.62.86-.4-.38-.66-.86-.75-1.4.24.24.62.31.95.35.75.09,1.55.18,2.28-.02-1.51-.11-2.57-1.26-3.43-2.33l.02-.02Z"/>
      <path class="cls-22" d="M145.06,115.72c-.35.73-.86,1.44-1.62,1.77.73.07,1.53.13,2.19-.16-.07.71-.47,1.4-1.09,1.82.42-.07.86-.18,1.13-.49-.09.84-.35,2.15-1,2.72.47-.24,1.11-.8,1.35-1.24.4-.73.31-1.46.33-1.97.04-.84-.18-1.46-.27-2.3l-1.02-.16h-.02Z"/>
      <path class="cls-74" d="M147.27,108.75c.11-1.37,1.55-1.9,2.9-1.82,1.11.09,1.44.22,2.08.71.42.33,1.2,2.39.66,3.94-.62.33-.58.44-.91,1.02-.75.29-1.68.29-2.21.22-2.04-.27-2.77-1.31-2.52-4.1v.02Z"/>
      <path class="cls-39" d="M148.6,109.7c0-.84.71-1.53,1.59-1.53s1.59.69,1.59,1.53-.71,1.53-1.59,1.53-1.59-.69-1.59-1.53Z"/>
      <path class="cls-16" d="M150.17,109.63c-.78.04-1.17-.93-1.37-.04-.18.84.71,1.51,1.48,1.46.78-.04,1.48-.8,1.31-1.64-.2-.97-.64.16-1.42.22Z"/>
      <path class="cls-6" d="M148.67,108.24c-1.31.49-.53,2.39.78,1.9,1.31-.49.53-2.39-.78-1.9Z"/>
      <path class="cls-39" d="M153.21,111.4c.2-.78.13-1.57-.04-2.33-.27-1.04-.58-1.71-1.57-2.13-.55-.22-2.75-.66-3.79.31.13-.35.29-.64.55-1.04-1.88.78-1.66,5.09-.16,6.69,1.55.2,2.5.58,3.52,0-.04.27-.02.53.09.8.64-1.79,1.28-2.06,2.19-2.15-.27-.16-.53-.18-.8-.13v-.02ZM152.94,111.47c-.58.22-.84.64-1.09.93-1.09.4-2.81.29-3.63-.42-.51-.82-1.2-3.3-.24-4.19.53-.53,1.46-.66,2.21-.62.82.04,1.22.09,1.75.44.91.62,1.26,2.72,1.02,3.83l-.02.02Z"/>
      <path class="cls-57" d="M152.72,102.63c-.29-.07-.42-.07-.71-.09,1.13.18,2.3,1.02,2.97,1.68-.11-.04-.2-.09-.38-.13.38.18,1.66,2.08,1.59,3.12-.07-.07-.16-.18-.27-.27,0,.16-.22,1.28-.69,2.15-.33-1.15-1.53-2.48-2.86-3.28-1.55-.91-4.72-1.04-4.41-2.81.24-1.37,2.7-1.77,4.76-.4l-.02.02Z"/>
      <path class="cls-14" d="M148.69,103.25c1.26-.31,2.61-.2,3.79.33-.29-.04-.6,0-.89.07,1.2.42,2.21,1.26,2.83,2.33-.2-.22-.44-.38-.71-.49.71.75,1.24,1.66,1.48,2.66-.2-.42-.44-.82-.78-1.15.27.44.47.95.55,1.46-.18-.49-.53-.91-.97-1.22-2.33-2.75-4.98-1.84-5.89-3.45,0-.4.31-.8.71-.95-.04.13-.09.27-.16.4l.02.02Z"/>
      <path class="cls-39" d="M153.18,102.52l-.44.11c2.35.66,3.14,2.02,3.14,2.02,0,0-.51-.13-.95-.22.91.82,1.66,1.51,1.46,3.28-.6-.6.02-.2-1.09,1.79-.38-1.2-1.57-2.59-2.37-3.17-1.53-1.17-4.03-1.17-4.96-2.06-1.57-1.48,1.13-4.38,5.23-1.73l-.02-.02ZM148.8,104.34c.84.55,2.7.44,3.83,1.11,1.42.84,2.21,1.99,2.52,3.19.33-.69.64-1.28.62-1.97.18.18.24.38.4.53-.11-1.51-1.55-2.7-2.15-3.17,0,0,.66.04.93.2-.89-.8-2.19-1.42-3.19-1.62,0,0,.64-.09.78-.09-3.14-1.95-5.82.38-3.74,1.79v.02Z"/>
      <path class="cls-15" d="M151.83,106.55c-3.14,0-3.88.89-3.9,4.87,0,1.24,1.59,3.63,3.83,3.65,3.41.02,4.14-1.95,4.16-3.59.04-4.3-1.15-4.92-4.07-4.94h-.02Z"/>
      <path class="cls-39" d="M156.44,111.54c0-2.24-.27-3.59-.95-4.38-.75-1.09-2.02-1.31-3.81-1.33-1.97,0-3.32.29-3.94,1.82-.24,0-.07-.18-.97,1.51l.66-.33c-.2,1.17-.13-.51-.2,1.77l.04.07v.62c0,1.46,1.93,4.32,4.5,4.34,4.05.02,4.67-2.55,4.69-4.07h-.02ZM149.2,112.91c-.42-.58-.62-1.15-.62-1.44.04-3.79.42-4.3,3.26-4.27,2.72,0,3.32.35,3.3,4.12,0,1.99-1.13,2.92-3.52,2.9-1.17,0-2.02-.82-2.39-1.31h-.02Z"/>
      <path class="cls-62" d="M156.02,111.32c.04-4.58-1.24-5.25-4.36-5.27-2.17,0-3.26.38-3.76,1.82h-.13l-.18.69h.13c-.07.31-.11.64-.13,1.02-.11-.11-.07-.11-.11.91,0,0,.04.04.04.07v.71c0,1.33,1.71,3.88,4.1,3.9,3.63.02,4.43-2.08,4.45-3.83h-.04ZM151.59,114.46c-2.1,0-3.43-2.39-3.43-3.21.04-3.9.53-4.54,3.5-4.52,2.81,0,3.74.42,3.72,4.56,0,2.15-1.26,3.17-3.79,3.14v.02Z"/>
      <path class="cls-68" d="M147.67,111.47c0,1.33,1.71,3.88,4.1,3.9,3.63.02,4.43-2.08,4.45-3.83.04-4.58-1.24-5.25-4.36-5.27-3.34-.02-4.12.95-4.16,5.2h-.02ZM148.31,111.47c.04-3.9.53-4.54,3.5-4.52,2.81,0,3.74.44,3.7,4.56,0,2.15-1.26,3.17-3.79,3.14-2.1,0-3.43-2.39-3.43-3.19h.02Z"/>
      <path class="cls-42" d="M137.39,102.77c.33-.04.47,0,.8,0-1.24,0-2.64.78-3.45,1.4.13-.04.24-.07.42-.09-.42.13-2.1,2.02-2.19,3.14.07-.07.2-.16.33-.24-.02.18,0,1.42.4,2.41.53-1.2,2.06-2.46,3.61-3.1,1.82-.75,5.25-.47,5.18-2.41-.07-1.51-2.64-2.3-5.07-1.11h-.02Z"/>
      <path class="cls-33" d="M141.67,104.01c-1.31-.51-2.79-.58-4.14-.18.33,0,.66.07.95.2-1.35.29-2.57,1.04-3.43,2.08.24-.2.53-.35.84-.42-.89.71-1.59,1.62-2.02,2.66.27-.42.62-.8,1-1.13-.38.44-.64.95-.82,1.51.27-.51.71-.89,1.24-1.17,2.92-2.61,5.67-1.26,6.89-2.88.04-.44-.2-.91-.62-1.13.02.16.07.31.09.44l.02.02Z"/>
      <path class="cls-39" d="M136.93,102.59l.47.18c-2.64.38-3.7,1.71-3.7,1.71,0,0,.58-.07,1.06-.09-1.11.75-2.04,1.4-2.08,3.32.73-.58,0-.2.91,2.08.6-1.24,2.1-2.57,3.06-3.08,1.84-1.04,4.52-.69,5.67-1.51,1.93-1.37-.53-4.89-5.36-2.61h-.02ZM141.38,105.16c-1,.47-2.99.09-4.3.64-1.66.71-2.68,1.84-3.21,3.08-.24-.8-.49-1.48-.38-2.19-.22.18-.31.38-.51.53.35-1.62,2.1-2.7,2.81-3.12,0,0-.73-.07-1.04.09,1.09-.73,2.59-1.22,3.68-1.28,0,0-.69-.2-.82-.2,3.7-1.64,6.22,1.24,3.76,2.48v-.02Z"/>
      <path class="cls-39" d="M128.93,106.47c-1.09-.11-3.08.31-3.54,2.52l-.2.58c.31-.13,1.2-.31,1.55-.38.82-.18,6.6.73,7.82,1.24,1.04-2.99.27-2.28,1.35-2.9-1.04-.18-5.91-.97-6.98-1.06Z"/>
      <path class="cls-43" d="M128.91,106.71c-1.06-.09-2.83.31-3.26,2.33l2.06-.6s5.71.71,6.73,1.15c0,0,.18-1.59.75-1.93,0,0-5.2-.84-6.27-.95h-.02Z"/>
      <path class="cls-38" d="M128.91,106.95c-1.06-.09-2.57.24-3.28,2.17.84-.35,1.31-.53,2.55-.38,1.4.18,5.43.73,6.25,1.09,0,0,.18-1.59.75-1.93,0,0-5.2-.84-6.27-.95Z"/>
      <path class="cls-60" d="M148.53,106.09c-1.97,1.44-2.06,5.25.62,7.02.66.44,1.37.27,1.84,1.11.55,1.02-.24,2.13-1.64,2.66-2.13.8-3.37-.44-4.43-.6-.82-.11-2.41.16-1.86-1.86.22-.8,1.57-.71,1.99-.49.42.24.49.07-.16-.73-.38-.47.04-2.66-.07-3.52-.75-5.67-5.65-3.28.2-4.38,2.15-.4,3.52.78,3.52.78l-.02.02Z"/>
      <path class="cls-13" d="M148.53,106.09c-2.44,1.82-.91,5.69,0,6.53.73.66,1.9.69,2.37,1.55.55,1.02,0,2.1-1.42,2.64-2.13.8-3.19-.44-4.25-.6-.82-.11-2.52.8-2.08-1.73.13-.82,1.44-.78,1.86-.53.42.24.49.07-.16-.73-.38-.47.2-2.35.09-3.21-.33-2.52-1.24-4.19-2.3-4.32,2.79.24,2.72-.58,5.87.38l.02.02Z"/>
      <path class="cls-29" d="M148.53,106.09c-1.17,1.13-1.42,2.7-.93,4.76.64,2.72,2.83,2.33,3.06,3.54.2,1.13.24,2.02-1.15,2.55-2.13.8-3.3-.51-4.36-.66-.82-.11-2.41.97-2.13-1.66.09-.78,1.48-.93,2.02-.64.42.24.49.07-.16-.73-.38-.47.24-2.13.13-2.97-.33-2.52-1.53-4.05-2.61-4.19,3.32.22,2.37-.44,6.13.02v-.02Z"/>
      <path class="cls-30" d="M150.79,115.48c-.27.58-1,.97-2.7.73-1.26-.18-2.24-1.62-2.24-1.62,0,0,.38,1.11-.49,1.15-.86.04-1.86,0-2.35-.64,0,0,0,.64.47,1.04.33.27,1.46-.04,2.06.16.22.07.42-.13,1.22.38.71.42.78.29,1.66.31.64,0,2.24-.16,2.37-1.51h0Z"/>
      <path class="cls-36" d="M146.74,113.64c-.53.2-.69.64-.35,1.02.42.51,2.15,1.15,3.01.93.58-.16.97-.86.58-1.37-.55-.69-2.55-.84-3.21-.6l-.02.02Z"/>
      <path class="cls-39" d="M151.17,114.59c-.24-1.42-1.51-1.37-2.08-1.73-.86-.53-2.77-3.17-.55-6.78-2.44,2.08-1.37,5.69.02,6.8-.6-.02-1.2.09-1.71.29,1.24-.04,2.08.02,3.17.47,1.17.49.75,3.85-2.28,3.17-.86-.2-1.75-.84-2.99-.73-.58.04-1.28-.13-1.44-.66-.29-1,.78-1.9,1.68-1.48-.51-.62-1.95-.13-2.35.86-.18.44-.09.97.33,1.35.64.58,2.17.33,2.55.44.34.09.63.2.89.33,2.28,1.09,5.12-.16,4.72-2.35l.04.02Z"/>
      <path class="cls-39" d="M135.47,99.4c-.16,0-.44.24-.58.33-.51.31-1.62.51-2.46.4.91.04,2.21-.51,2.57-.78.16-.11.49.04.49.04h-.02Z"/>
      <path class="cls-47" d="M146.63,102.39c1.82-1.06,2.95-1.46,5.45-1.53,1.48-.04,3.08-1.22,3.1-4.07,0-1.44-.86-2.33-1.75-3.32.24.62.42,1.55-.16,2.1.09-1.42-1.33-1.68-1.15-3.94-.8.64-.8,1.42-1.09,2.21-1.11,3.08-2.99,4.61-4.01,4.58l-.35,3.94-.04.02Z"/>
      <path class="cls-39" d="M155.53,96.72c-.09-1.37-.95-2.28-2.02-3.32-1.17-1.15.35.35-.11,1.62-.2-.8-.89-1.37-1.06-2.37-.11-.51-.07-.93-.02-1.4-.35.29-.78.58-1.04,1.2-.11.27-1.02,3.99-3.34,5.43-.6.38-.89.33-1.15.31-.18,1.84-.18,2.26-.27,4.41.86-.16,1.51-1.09,3.74-1.44,1.71-.29,2.55.16,3.79-.89,1.02-.8,1.59-1.73,1.48-3.57v.02ZM152.14,100.69c-2.28.04-3.43.29-5.23,1.26-.04,0-.11.04-.11.09-.16.66.22-1.22.42-3.37,1.48-.24,3.23-2.41,4.05-5.05.18-.58.27-1.06.62-1.53,0,1.37.58,1.88.93,2.57.29.51.22.86.18,1.42.38-.38,1-.82.69-2.06.71.82,1.31,1.59,1.28,2.7,0,2.06-.95,3.9-2.88,3.96h.04Z"/>
      <path class="cls-55" d="M141.87,98.07c.31-.71-.09-1.71-.53-2.24-.53-.64-1.35-.73-2.04-1.15-1.28-.75-1.95-2.06-1.24-3.57-2.41,1.26-4.41,5.8-1.64,7.64.66.44,1.62.73,2.37,1,1.17.4,2.57.86,3.74.07l-.66-1.75Z"/>
      <path class="cls-39" d="M141.73,98.05c.27-.89-.38-2.1-1.28-2.52-.55-.27-4.38-1.02-2.64-4.07-2.55,1.46-4.21,5.89-.86,7.51.64.31,2.75,1.04,3.68,1.15.66.07,1.28,0,1.84-.38l.16.22c-.62.42-1.33.51-2.04.42-.95-.11-3.79-1.15-4.43-1.46-3.48-1.73-.78-6.98,1.93-7.75-.58,2.95,1.84,3.48,2.7,3.92,1.17.62,1.71,2.1,1.26,3.08l-.27-.07-.04-.04Z"/>
      <path class="cls-77" d="M142.93,101.59c-2.52-.73-1.42-.38-5.56-.27-4.12.11-7.09-1.75-6.18-4.83.44-1.53,3.41-2.86,2.86-4.36,0,0,2.28.6,1.71,3.19-.55,2.59,2.21,2.57,2.21,2.57,0,0,4.96,3.7,4.96,3.7Z"/>
      <path class="cls-39" d="M142.86,101.7c-1.2-.29-1.62-.47-2.46-.38-3.52.29-8.55.4-9.5-2.99-.82-3.52,3.52-4.56,2.83-6.53.35.07.93.44,1.22.62,1.82,1.4.55,2.86,1.02,4.25.11.42.8,1.04,1.97,1.2-1.11.13-2.08-.44-2.3-1.04-.62-1.4.69-2.44-.64-4.01-.27-.27-.53-.51-1-.71.64,1.51-2.41,2.77-2.83,4.74-.16.58-.11,1.68.58,2.5,1.42,1.53,3.39,1.82,5.6,1.79,4.01-.18,3.37-.44,5.6.29l-.11.27h.02Z"/>
      <path class="cls-44" d="M145.32,102.43c-3.17-.97-5.07-.71-6.4-5.12-1.33-4.41.73-6.93,4.19-9.74,0,0-1.13,1.35-.89,2.5,0,0-.02-1.46,1.28-2.1,0,0-1.09,1.13-.18,2.52.89,1.4,3.32,3.03,2.79,6.02-.53,2.99-.82,5.91-.82,5.91h.02Z"/>
      <path class="cls-39" d="M146.32,94.57c-.75-3.1-4.36-4.43-2.61-6.84-.27.13-.64.11-1.09.8.04-.07.42-.91.49-.97-3.32,1.46-4.78,3.92-5.07,6.91-.07,2.28.97,4.81,2.41,6.29,1,.93,3.54,1.11,4.81,1.95.93-6.49,1.4-6.82,1.06-8.13ZM145.19,102.24c-2.68-1.06-5.36-.8-6.33-6.09-.82-3.74,1.46-6.13,4.01-8.39-.53.53-1.02,1.59-.64,2.3.16-.82.31-1.42,1.28-2.1-.24.24-.42.55-.55.89-.71,2.02,2.26,3.3,2.86,5.87.38,1.55-.29,2.3-.64,7.53h.02Z"/>
      <path class="cls-59" d="M145.32,102.43c4.21-1.15,6.44-4.63,6.07-7.06-.58-3.74-3.88-4.96-1.99-7.64-5.8,1.59-8.02,4.98-7.33,9.88.4,2.83,3.23,4.83,3.23,4.83h.02Z"/>
      <path class="cls-39" d="M149.55,87.82l.29-.38c-4.98,1.2-8.19,3.92-8.11,8.77.04,1.59.2,3.39,2.46,5.58.29.29.6.55.97.82.33.24,4.12-1.22,5.76-4.21,3.21-5.82-3.94-7.22-1.37-10.59ZM150.59,98.25c-1.64,2.95-4.78,3.76-5.2,3.92-.24-.18-.53-.44-.84-.73-2.13-2.08-2.3-3.79-2.37-5.25-.16-4.56,2.55-6.82,6.82-8.17-.8,1.57.07,2.72.82,3.94,1.37,2.21,1.99,4.05.75,6.27l.02.02Z"/>
      <path class="cls-39" d="M149.04,100.31c-.11.16-.64.62-.78.75,1.97-.64,4.61-.75,5.47-3.92-1.02,2.79-2.95,2.77-4.67,3.17h-.02Z"/>
      <path class="cls-39" d="M145.21,102.24c.29.07,1.55-1,1.88-1.37,1.46-1.73,1.68-4.01.22-5.89,2.28,2.52.93,5.96-1.28,7.24-.27.16-.66.4-.93.29l.11-.24v-.02Z"/>
      <path class="cls-39" d="M145.46,102.46c-.27-.11-2.83-4.61-.8-7.73.29-.42.53-.75.95-1.26-1.02,1.51-2.59,3.28-.33,8.06.07.16.2.62.33.71l-.18.22h.02Z"/>
      <path class="cls-39" d="M145.17,102.46s-.24.07-.89-.6c-1.33-1.4-4.27-4.01-3.79-8.42-.2,4.25,2.68,6.69,3.61,7.71.33.38.8.93,1.04,1.04h.07v.27h-.04Z"/>
      <path class="cls-39" d="M140.61,100.64c-.66-.07-5.03.42-6.53-1.75,1.57,2.04,5.36,1.22,6.11,1.24l.42.51Z"/>
      <path class="cls-39" d="M139.7,99.6c-1.51-.04-2.77-.64-3.85-1.4.95.6,2.33,1,3.85.95v.44Z"/>
      <path class="cls-39" d="M135.91,94.95c-.04.8.33,1.82,1.26,2.1-1.24-.07-1.75-1.06-1.53-2.08h.29l-.02-.02Z"/>
      <path class="cls-39" d="M136.84,94.6c-.24.75,1.06,2.33,2.3,2.9l-.16.24c-1.15-.64-2.46-2.35-2.15-3.14Z"/>
      <path class="cls-39" d="M137.7,94.91c.31.62.53,1.13,1.02,1.31l-.13.24c-.53-.29-.66-.84-.89-1.55Z"/>
      <path class="cls-39" d="M147.51,100.66c.84-.58,2.81-2.19,2.08-4.94,1.02,2.72-1.06,5.16-2.95,6.02.58-1.09.44-.78.89-1.11l-.02.02Z"/>
      <path class="cls-39" d="M142.42,101.55c.38.24,1.31.51,1.57.86-.53-.89-1-.82-1.57-.86Z"/>
      <path class="cls-20" d="M135.58,111.65c.04-4.21,1.02-4.72,4.25-4.69,3.28.02,3.9.66,3.85,4.74,0,.84-1.55,3.28-3.92,3.26-2.83,0-4.21-1.11-4.19-3.32v.02Z"/>
      <path class="cls-39" d="M147.54,109.26c-.55-.4-1.02-.29,0-.29.07-.18.11-.51.16-.64-.33-.04-.07-.51.16-.69-.97-.04-3.26.11-3.72.11-.49-.97-1.22-1.51-2.13-1.77-1.04-.29-4.05-.51-5.71.42-1.28.73-1.79,2.28-1.88,3.72-.02.24-.11,1.68,0,2.35.33,2.48,2.68,3.57,5.31,3.59,2.61,0,4.61-2.21,4.96-3.92.07-.24.04-.18,0-1.04,1.2-1.06,2.24-1.13,3.5.38,0-.55-.44-1.26-.44-1.53-.31-.09-.35-.49-.2-.71v.02ZM143.11,111.94c-.09.47-.55,1.11-1.22,1.71-.91.84-1.77.93-2.83.86-3.63-.2-3.3-2.26-3.21-4.16.24-2.92,1.28-3.14,4.52-3.01,2.17.11,2.48.58,2.66,2.06.04.51.13,2.33.09,2.57v-.02ZM144.48,108.95c.31,0,.62,0,.93.02-1.04.2-.84.51-.93-.02Z"/>
      <path class="cls-39" d="M135.14,114.17h0s0,.02,0,0Z"/>
      <path class="cls-81" d="M144.21,109.74c-.02-.38-.07-.73-.13-1.06l3.52-.13.18-.69-3.9.09c-.64-1.73-2.26-1.93-4.21-1.95-3.59-.02-4.96.71-5,5.38,0,1.84.82,4.01,4.92,4.05,2.68,0,4.65-2.59,4.67-3.96v-.8c.38-.42,2.08-1.57,3.21-.2l.04-.95c-.86-.75-2.08-.73-3.3.22ZM139.59,114.75c-2.83,0-4.21-1.11-4.19-3.32.04-4.21,1-4.72,4.25-4.69,3.28.02,3.9.66,3.85,4.74,0,.84-1.55,3.28-3.92,3.28Z"/>
      <path class="cls-67" d="M134.83,111.63c0,1.84.82,4.01,4.92,4.05,2.68,0,4.65-2.61,4.67-3.96.04-4.25-.69-5.43-4.58-5.47-3.59-.02-4.96.69-5,5.38ZM135.58,111.65c.04-4.21,1.02-4.72,4.25-4.69,3.28.02,3.9.66,3.85,4.74,0,.84-1.55,3.28-3.92,3.26-2.83,0-4.21-1.11-4.19-3.32v.02Z"/>
      <path class="cls-86" d="M143.75,110.56l.6.42s1-.95,1.93-.93c.53,0,1,.11,1.44.73l.53-.4c-1.17-1.68-3.21-1.46-4.47.18h-.02Z"/>
      <polygon class="cls-72" points="143.79 108.19 143.77 108.9 148.25 108.77 148.25 108.08 143.79 108.19"/>
    </g>
  </g>
  <path class="cls-46" d="M242.7,88.91l-.07.15h-.17c-.07-.02-.15-.03-.22-.04-.08-.01-.16-.02-.24-.02-3.37,0-6.25,2.34-7.01,5.7.11,2.16,1.04,5.02,4.84,6.42.32.12.56.34.7.63.14.29.14.62.02.91-.25.6-1,.91-1.64.68-3.06-1.13-5.12-3.19-6-5.98-1.46,1.1-2.31,2.81-2.31,4.65,0,1.58.61,3.06,1.71,4.17l.14.14-.11.16c-.74,1.07-1.13,2.31-1.13,3.6,0,1.22.37,2.4,1.07,3.45.75-1.63,2.32-3.57,5.56-4.35.33-.08.67-.03.96.13.29.16.5.42.58.73.17.64-.24,1.29-.91,1.45-3.05.73-4.04,2.83-4.34,4.46.06,3.05,1.74,5.82,4.4,7.29.2-2.39,2.14-3.83,4.03-4.2,2.22-.44,4.28.47,5.25,2.33.26.5.39,1.01.39,1.51,0,.66-.57,1.19-1.27,1.19s-1.27-.54-1.27-1.19c0-.14-.05-.29-.14-.46-.42-.81-1.19-1.09-1.9-1.09-.18,0-.36.02-.53.05-.98.2-1.99.94-2.03,2.17-.03.7.08,1.41.32,2.18,1.13,2.59,3.66,4.28,6.43,4.28.99,0,1.98-.24,2.95-.7v-42.75c-.9-.55-1.92-.84-2.95-.84-2.15,0-4.1,1.23-5.1,3.22ZM240.47,96.35c-.33-.07-.61-.25-.8-.52-.18-.27-.24-.59-.17-.9.07-.31.27-.58.56-.75.29-.17.62-.23.95-.16.02,0,1.44.3,2.89,1.31.98-1.27.62-2.9.6-2.97-.08-.31-.02-.63.16-.9.18-.27.46-.46.79-.53.68-.15,1.37.25,1.52.89,0,.03.74,2.99-1.3,5.23.04.05.08.1.12.16,1.23,1.81,1.53,4.06.9,6.72-.13.54-.65.93-1.24.93-.1,0-.19-.01-.28-.03-.33-.07-.61-.25-.79-.52-.18-.27-.24-.59-.17-.9.48-2.01.29-3.66-.56-4.91-1.15-1.69-3.16-2.13-3.18-2.14ZM241.98,115.55c-.07.01-.14.02-.21.02-.62,0-1.15-.42-1.25-1-.11-.65.35-1.26,1.04-1.37.36-.06,3.5-.7,3.32-4.18-.03-.66.51-1.22,1.2-1.25.32-.03.64.08.89.29.26.21.42.52.44.84.24,4.55-3.45,6.34-5.43,6.65Z"/>
  <path class="cls-46" d="M271.7,106.32l.14-.14c1.1-1.11,1.71-2.59,1.71-4.17,0-1.84-.86-3.56-2.31-4.65-.88,2.79-2.95,4.85-6,5.98-.64.24-1.39-.08-1.64-.68-.12-.3-.12-.62.02-.91.14-.29.38-.52.7-.63,3.8-1.4,4.73-4.26,4.84-6.42-.76-3.36-3.64-5.7-7.01-5.7-.08,0-.16.01-.24.02-.07,0-.15.02-.22.02h-.17s-.07-.14-.07-.14c-1-1.98-2.95-3.22-5.1-3.22-1.03,0-2.05.29-2.95.84v42.75c.97.46,1.96.7,2.95.7,2.78,0,5.3-1.69,6.43-4.28.24-.76.34-1.48.32-2.18-.05-1.22-1.06-1.97-2.03-2.17-.17-.03-.35-.05-.53-.05-.72,0-1.48.28-1.9,1.09-.09.17-.14.33-.14.46,0,.66-.57,1.19-1.27,1.19s-1.27-.54-1.27-1.19c0-.5.13-1.01.39-1.51.97-1.86,3.02-2.77,5.24-2.33,1.89.38,3.84,1.82,4.03,4.2,2.66-1.47,4.34-4.24,4.4-7.29-.29-1.63-1.28-3.72-4.34-4.46-.68-.16-1.09-.81-.91-1.45.08-.31.29-.57.58-.73.29-.16.64-.21.96-.13,3.24.78,4.81,2.71,5.56,4.35.7-1.05,1.07-2.23,1.07-3.45,0-1.29-.39-2.53-1.13-3.6l-.11-.16ZM257.16,91.82c.16-.64.85-1.04,1.52-.89.33.07.61.26.79.53.18.27.23.59.16.9-.02.07-.37,1.71.6,2.97,1.45-1.01,2.87-1.31,2.89-1.31.33-.07.67-.01.95.16.29.17.48.44.56.75.07.31.01.63-.17.9-.18.27-.47.45-.8.52-.02,0-2.03.45-3.18,2.14-.85,1.25-1.04,2.9-.56,4.91.07.31.01.63-.17.9-.18.27-.46.46-.79.52-.09.02-.18.03-.28.03-.59,0-1.11-.39-1.24-.93-.63-2.65-.33-4.91.9-6.72.04-.05.08-.11.12-.16-2.04-2.24-1.31-5.2-1.3-5.23ZM262.36,115.56c-.07,0-.14,0-.21-.02-1.98-.31-5.67-2.1-5.43-6.65.02-.32.18-.63.44-.84.25-.21.58-.32.9-.29.7.03,1.24.59,1.2,1.25-.18,3.48,2.97,4.12,3.32,4.18.69.11,1.15.72,1.04,1.37-.1.58-.63,1-1.25,1Z"/>
  <path class="cls-85" d="M166.33,144.81v-11.58h-.27c-5.25,8.89-14.67,13.46-25.31,13.46-21.81,0-39.58-16.42-39.58-37.96,0-23.83,17.1-40.52,39.04-40.52,10.9,0,20.06,4.04,25.85,12.52h.27v-10.5h14v74.58h-14ZM166.6,107.66c0-14.54-10.5-26.65-25.98-26.65-14,0-25.44,11.98-25.44,26.65s11.44,26.25,25.44,26.25,25.98-12.12,25.98-26.25Z"/>
  <path class="cls-85" d="M190.02,144.81V45.19h14v99.62h-14Z"/>
  <path class="cls-46" d="M213.03,144.81V45.19h14v35.4h.27c6.06-8.21,15.48-12.39,25.58-12.39,21.13,0,38.63,17.77,38.63,39.31s-16.42,39.17-37.42,39.17c-10.77,0-20.73-4.31-26.92-12.65h-.27v10.77h-13.87ZM277.51,107.52c0-14.13-11.17-26.52-25.58-26.52s-25.31,12.12-25.31,26.25,11.17,26.65,25.44,26.65,25.44-11.85,25.44-26.39Z"/>
  <path class="cls-46" d="M312.01,113.58c3.23,12.39,13.06,20.33,24.5,20.33,8.75,0,16.96-4.58,21.27-12.52h14c-5.79,15.35-19.79,25.31-35.81,25.31-21,0-37.96-18.58-37.96-38.5,0-23.56,17.77-39.98,37.56-39.98,21.94,0,38.63,16.96,38.63,38.37,0,2.29,0,4.44-.4,7h-61.79ZM360.2,102.81c-1.08-12.65-12.25-21.81-24.23-21.81s-22.89,9.02-23.96,21.81h48.19Z"/>
  <path class="cls-46" d="M383.05,144.81v-74.58h13.06v8.75c3.37-4.98,9.42-8.21,19.25-8.75v12.7c-12.12.4-18.31,7.81-18.31,20.33v41.55h-14Z"/>
  <path class="cls-46" d="M484.63,84.01c-3.37,0-6.22,2.09-7.36,5.03l-32.57.04v-6.06h12.25v-3.47h8.5c.85,0,1.61-.38,2.18-1l6.5-7.69c.81.28,1.66.47,2.56.47,4.37,0,7.92-3.56,7.92-7.92s-3.56-7.88-7.92-7.88-7.88,3.51-7.88,7.88c0,1.38.38,2.66,1,3.75l-5.7,6.69h-7.18v-3.63h-12.25v-25.04h-14v25.04h-10.1v12.79h10.1v61.79h14v-34.09h19.43l5.7,6.64c-.62,1.14-1,2.42-1,3.75,0,4.37,3.51,7.92,7.88,7.92s7.92-3.56,7.92-7.92-3.56-7.88-7.92-7.88c-.9,0-1.76.19-2.56.47l-6.5-7.69c-.57-.62-1.33-1-2.18-1h-20.76v-10.26l32.57-.04c1.14,2.94,3.99,5.08,7.36,5.08,4.37,0,7.88-3.56,7.88-7.92s-3.51-7.88-7.88-7.88Z"/>
</svg>