<svg xmlns="http://www.w3.org/2000/svg" id="DLA_albert_Logo_White" viewBox="101.1 45.18 391.33 101.52"><defs><style>.cls-1,.cls-2{fill:#fff;}.cls-2{opacity:.5;}.cls-3{fill:#1d8da7;}</style></defs><path class="cls-1" d="M242.83,89.02l-.07.15h-.17c-.07-.02-.15-.03-.22-.04-.08-.01-.16-.02-.24-.02-3.37,0-6.25,2.34-7.01,5.7.11,2.16,1.04,5.02,4.84,6.42.32.12.56.34.7.63.14.29.14.62.02.91-.25.6-1,.91-1.64.68-3.06-1.13-5.12-3.19-6-5.98-1.46,1.1-2.31,2.81-2.31,4.65,0,1.58.61,3.06,1.71,4.17l.14.14-.11.16c-.74,1.07-1.13,2.31-1.13,3.6,0,1.22.37,2.4,1.07,3.45.75-1.63,2.32-3.57,5.56-4.35.33-.08.67-.03.96.13.29.16.5.42.58.73.17.64-.24,1.29-.91,1.45-3.05.73-4.04,2.83-4.34,4.46.06,3.05,1.74,5.82,4.4,7.29.2-2.39,2.14-3.83,4.03-4.2,2.22-.44,4.28.47,5.25,2.33.26.5.39,1.01.39,1.51,0,.66-.57,1.19-1.27,1.19s-1.27-.54-1.27-1.19c0-.14-.05-.29-.14-.46-.42-.81-1.19-1.09-1.9-1.09-.18,0-.36.02-.53.05-.98.2-1.99.94-2.03,2.17-.03.7.08,1.41.32,2.18,1.13,2.59,3.66,4.28,6.43,4.28.99,0,1.98-.24,2.95-.7v-42.75c-.9-.55-1.92-.84-2.95-.84-2.15,0-4.1,1.23-5.1,3.22ZM240.6,96.46c-.33-.07-.61-.25-.8-.52-.18-.27-.24-.59-.17-.9.07-.31.27-.58.56-.75.29-.17.62-.23.95-.16.02,0,1.44.3,2.89,1.31.98-1.27.62-2.9.6-2.97-.08-.31-.02-.63.16-.9.18-.27.46-.46.79-.53.68-.15,1.37.25,1.52.89,0,.03.74,2.99-1.3,5.23.04.05.08.1.12.16,1.23,1.81,1.53,4.06.9,6.72-.13.54-.65.93-1.24.93-.1,0-.19-.01-.28-.03-.33-.07-.61-.25-.79-.52-.18-.27-.24-.59-.17-.9.48-2.01.29-3.66-.56-4.91-1.15-1.69-3.16-2.13-3.18-2.14ZM242.11,115.66c-.07.01-.14.02-.21.02-.62,0-1.15-.42-1.25-1-.11-.65.35-1.26,1.04-1.37.36-.06,3.5-.7,3.32-4.18-.03-.66.51-1.22,1.2-1.25.32-.03.64.08.89.29.26.21.42.52.44.84.24,4.55-3.45,6.34-5.43,6.65Z"/><path class="cls-1" d="M271.83,106.44l.14-.14c1.1-1.11,1.71-2.59,1.71-4.17,0-1.84-.86-3.56-2.31-4.65-.88,2.79-2.95,4.85-6,5.98-.64.24-1.39-.08-1.64-.68-.12-.3-.12-.62.02-.91.14-.29.38-.52.7-.63,3.8-1.4,4.73-4.26,4.84-6.42-.76-3.36-3.64-5.7-7.01-5.7-.08,0-.16.01-.24.02-.07,0-.15.02-.22.02h-.17s-.07-.14-.07-.14c-1-1.98-2.95-3.22-5.1-3.22-1.03,0-2.05.29-2.95.84v42.75c.97.46,1.96.7,2.95.7,2.78,0,5.3-1.69,6.43-4.28.24-.76.34-1.48.32-2.18-.05-1.22-1.06-1.97-2.03-2.17-.17-.03-.35-.05-.53-.05-.72,0-1.48.28-1.9,1.09-.09.17-.14.33-.14.46,0,.66-.57,1.19-1.27,1.19s-1.27-.54-1.27-1.19c0-.5.13-1.01.39-1.51.97-1.86,3.02-2.77,5.24-2.33,1.89.38,3.84,1.82,4.03,4.2,2.66-1.47,4.34-4.24,4.4-7.29-.29-1.63-1.28-3.72-4.34-4.46-.68-.16-1.09-.81-.91-1.45.08-.31.29-.57.58-.73.29-.16.64-.21.96-.13,3.24.78,4.81,2.71,5.56,4.35.7-1.05,1.07-2.23,1.07-3.45,0-1.29-.39-2.53-1.13-3.6l-.11-.16ZM257.29,91.93c.16-.64.85-1.04,1.52-.89.33.07.61.26.79.53.18.27.23.59.16.9-.02.07-.37,1.71.6,2.97,1.45-1.01,2.87-1.31,2.89-1.31.33-.07.67-.01.95.16.29.17.48.44.56.75.07.31.01.63-.17.9-.18.27-.47.45-.8.52-.02,0-2.03.45-3.18,2.14-.85,1.25-1.04,2.9-.56,4.91.07.31.01.63-.17.9-.18.27-.46.46-.79.52-.09.02-.18.03-.28.03-.59,0-1.11-.39-1.24-.93-.63-2.65-.33-4.91.9-6.72.04-.05.08-.11.12-.16-2.04-2.24-1.31-5.2-1.3-5.23ZM262.49,115.68c-.07,0-.14,0-.21-.02-1.98-.31-5.67-2.1-5.43-6.65.02-.32.18-.63.44-.84.25-.21.58-.32.9-.29.7.03,1.24.59,1.2,1.25-.18,3.48,2.97,4.12,3.32,4.18.69.11,1.15.72,1.04,1.37-.1.58-.63,1-1.25,1Z"/><path class="cls-3" d="M166.26,144.81v-11.58h-.27c-5.25,8.89-14.67,13.46-25.31,13.46-21.81,0-39.58-16.42-39.58-37.96,0-23.83,17.1-40.52,39.04-40.52,10.9,0,20.06,4.04,25.85,12.52h.27v-10.5h14v74.58h-14ZM166.53,107.66c0-14.54-10.5-26.65-25.98-26.65-14,0-25.44,11.98-25.44,26.65s11.44,26.25,25.44,26.25,25.98-12.12,25.98-26.25Z"/><path class="cls-3" d="M189.95,144.81V45.19h14v99.62h-14Z"/><path class="cls-1" d="M212.96,144.81V45.19h14v35.4h.27c6.06-8.21,15.48-12.39,25.58-12.39,21.13,0,38.63,17.77,38.63,39.31s-16.42,39.17-37.42,39.17c-10.77,0-20.73-4.31-26.92-12.65h-.27v10.77h-13.87ZM277.44,107.52c0-14.13-11.17-26.52-25.58-26.52s-25.31,12.12-25.31,26.25,11.17,26.65,25.44,26.65,25.44-11.85,25.44-26.39Z"/><path class="cls-1" d="M311.94,113.58c3.23,12.39,13.06,20.33,24.5,20.33,8.75,0,16.96-4.58,21.27-12.52h14c-5.79,15.35-19.79,25.31-35.81,25.31-21,0-37.96-18.58-37.96-38.5,0-23.56,17.77-39.98,37.56-39.98,21.94,0,38.63,16.96,38.63,38.37,0,2.29,0,4.44-.4,7h-61.79ZM360.13,102.81c-1.08-12.65-12.25-21.81-24.23-21.81s-22.89,9.02-23.96,21.81h48.19Z"/><path class="cls-1" d="M382.98,144.81v-74.58h13.06v8.75c3.37-4.98,9.42-8.21,19.25-8.75v12.7c-12.12.4-18.31,7.81-18.31,20.33v41.55h-14Z"/><path class="cls-1" d="M484.56,84.01c-3.37,0-6.22,2.09-7.36,5.03l-32.57.04v-6.06h12.25v-3.47h8.5c.85,0,1.61-.38,2.18-1l6.5-7.69c.81.28,1.66.47,2.56.47,4.37,0,7.92-3.56,7.92-7.92s-3.56-7.88-7.92-7.88-7.88,3.51-7.88,7.88c0,1.38.38,2.66,1,3.75l-5.7,6.69h-7.18v-3.63h-12.25v-25.04h-14v25.04h-10.1v12.79h10.1v61.79h14v-34.09h19.43l5.7,6.64c-.62,1.14-1,2.42-1,3.75,0,4.37,3.51,7.92,7.88,7.92s7.92-3.56,7.92-7.92-3.56-7.88-7.92-7.88c-.9,0-1.76.19-2.56.47l-6.5-7.69c-.57-.62-1.33-1-2.18-1h-20.76v-10.26l32.57-.04c1.14,2.94,3.99,5.08,7.36,5.08,4.37,0,7.88-3.56,7.88-7.92s-3.51-7.88-7.88-7.88Z"/><path class="cls-1" d="M140.7,131.2c6.88,0,13.03-3.16,17.2-8.14-1.26-3.54-8.21-5.86-8.21-5.86l-9.01,11.2-9.01-11.2s-6.91,2.31-8.2,5.83c4.17,4.99,10.33,8.17,17.22,8.17Z"/><path class="cls-2" d="M140.7,131.2c6.88,0,13.03-3.16,17.2-8.14-1.26-3.54-8.21-5.86-8.21-5.86l-9.01,11.2-9.01-11.2s-6.91,2.31-8.2,5.83c4.17,4.99,10.33,8.17,17.22,8.17Z"/><path class="cls-1" d="M151.89,102.66l-.19,1.25c.14.02.2.07.24.16.31.63-.22,2.38-.71,3.26-.34.63-.82.58-.91.56l-.65-.15-.12.66c-.02.08-1.45,7.96-6.54,8.03-.47,0-4.2,0-4.68,0-5.08-.07-6.52-7.95-6.54-8.03l-.12-.66-.65.15s-.54.12-.9-.56c-.49-.88-1.01-2.63-.7-3.26.04-.08.1-.14.24-.16l-.19-1.25c-.54.08-.95.37-1.19.85-.66,1.34.33,3.71.73,4.44.45.82,1.11,1.13,1.65,1.2.44,1.94,2.33,8.48,7.66,8.55.41,0,4.31,0,4.72,0,5.34-.07,7.22-6.61,7.66-8.55.54-.07,1.2-.39,1.65-1.21.4-.72,1.39-3.1.72-4.43-.23-.48-.64-.77-1.19-.85Z"/><path class="cls-2" d="M151.89,102.66l-.19,1.25c.14.02.2.07.24.16.31.63-.22,2.38-.71,3.26-.34.63-.82.58-.91.56l-.65-.15-.12.66c-.02.08-1.45,7.96-6.54,8.03-.47,0-4.2,0-4.68,0-5.08-.07-6.52-7.95-6.54-8.03l-.12-.66-.65.15s-.54.12-.9-.56c-.49-.88-1.01-2.63-.7-3.26.04-.08.1-.14.24-.16l-.19-1.25c-.54.08-.95.37-1.19.85-.66,1.34.33,3.71.73,4.44.45.82,1.11,1.13,1.65,1.2.44,1.94,2.33,8.48,7.66,8.55.41,0,4.31,0,4.72,0,5.34-.07,7.22-6.61,7.66-8.55.54-.07,1.2-.39,1.65-1.21.4-.72,1.39-3.1.72-4.43-.23-.48-.64-.77-1.19-.85Z"/><path class="cls-1" d="M143.73,110.32c-.78-.12-1.95-.14-3.04-.12h0c-1.09-.02-2.27,0-3.04.12-1.83.28-2.45,3.09-2.45,3.09,1.45.05,4.09-.32,5.49-.32s4.04.37,5.49.32c0,0-.62-2.8-2.45-3.09Z"/><path class="cls-2" d="M143.73,110.32c-.78-.12-1.95-.14-3.04-.12h0c-1.09-.02-2.27,0-3.04.12-1.83.28-2.45,3.09-2.45,3.09,1.45.05,4.09-.32,5.49-.32s4.04.37,5.49.32c0,0-.62-2.8-2.45-3.09Z"/><path class="cls-1" d="M123.72,98.54s2.35-.78,4.53.52c0,0-2.44,1.5-2.28,5.54,0,0,3.32-5.57,6.06-3.2,0,0-3.03-7.22,8.66-7.22s8.66,7.22,8.66,7.22c2.73-2.37,6.06,3.2,6.06,3.2.16-4.04-2.28-5.54-2.28-5.54,2.18-1.3,4.52-.52,4.52-.52-1.56-3.19-3.89-4.39-3.89-4.39,2.26-1.08,4.97-.3,4.97-.3-7.2-10.29-16.98-7.33-18.04-6.7-1.06-.63-10.84-3.59-18.04,6.7,0,0,2.7-.78,4.97.3,0,0-2.33,1.2-3.89,4.39Z"/><path class="cls-2" d="M123.72,98.54s2.35-.78,4.53.52c0,0-2.44,1.5-2.28,5.54,0,0,3.32-5.57,6.06-3.2,0,0-3.03-7.22,8.66-7.22s8.66,7.22,8.66,7.22c2.73-2.37,6.06,3.2,6.06,3.2.16-4.04-2.28-5.54-2.28-5.54,2.18-1.3,4.52-.52,4.52-.52-1.56-3.19-3.89-4.39-3.89-4.39,2.26-1.08,4.97-.3,4.97-.3-7.2-10.29-16.98-7.33-18.04-6.7-1.06-.63-10.84-3.59-18.04,6.7,0,0,2.7-.78,4.97.3,0,0-2.33,1.2-3.89,4.39Z"/><path class="cls-1" d="M148.96,104.16c0-2.1-1.71-3.8-3.8-3.8-1.76,0-3.23,1.21-3.66,2.83h-1.63c-.43-1.62-1.9-2.83-3.66-2.83-2.1,0-3.8,1.71-3.8,3.8s1.71,3.8,3.8,3.8c1.81,0,3.33-1.28,3.7-2.98h1.54c.38,1.7,1.89,2.98,3.71,2.98,2.09,0,3.8-1.71,3.8-3.8ZM136.21,107.17c-1.67,0-3.02-1.35-3.02-3.02s1.35-3.02,3.02-3.02,3.02,1.35,3.02,3.02-1.35,3.02-3.02,3.02ZM145.16,107.17c-1.67,0-3.02-1.35-3.02-3.02s1.35-3.02,3.02-3.02,3.02,1.35,3.02,3.02-1.35,3.02-3.02,3.02Z"/><path class="cls-2" d="M148.96,104.16c0-2.1-1.71-3.8-3.8-3.8-1.76,0-3.23,1.21-3.66,2.83h-1.63c-.43-1.62-1.9-2.83-3.66-2.83-2.1,0-3.8,1.71-3.8,3.8s1.71,3.8,3.8,3.8c1.81,0,3.33-1.28,3.7-2.98h1.54c.38,1.7,1.89,2.98,3.71,2.98,2.09,0,3.8-1.71,3.8-3.8ZM136.21,107.17c-1.67,0-3.02-1.35-3.02-3.02s1.35-3.02,3.02-3.02,3.02,1.35,3.02,3.02-1.35,3.02-3.02,3.02ZM145.16,107.17c-1.67,0-3.02-1.35-3.02-3.02s1.35-3.02,3.02-3.02,3.02,1.35,3.02,3.02-1.35,3.02-3.02,3.02Z"/><path class="cls-1" d="M143.2,118.4l-2.48,1.08s-.03.01-.04.01c-.02,0-.03,0-.04-.01l-2.47-1.08c-.95-.23-1.73.19-1.73.94v2.42c0,.75.78,1.17,1.73.94l2.47-1.08s.03-.01.04-.01c.01,0,.03,0,.04.01l2.48,1.08c.95.23,1.73-.19,1.73-.94v-2.42c0-.75-.78-1.17-1.73-.94Z"/><path class="cls-2" d="M143.2,118.4l-2.48,1.08s-.03.01-.04.01c-.02,0-.03,0-.04-.01l-2.47-1.08c-.95-.23-1.73.19-1.73.94v2.42c0,.75.78,1.17,1.73.94l2.47-1.08s.03-.01.04-.01c.01,0,.03,0,.04.01l2.48,1.08c.95.23,1.73-.19,1.73-.94v-2.42c0-.75-.78-1.17-1.73-.94Z"/></svg>