<svg xmlns="http://www.w3.org/2000/svg" xmlns:xlink="http://www.w3.org/1999/xlink" version="1.1" viewBox="5.8 4.8 204.6 202.66">
  <!-- Generator: Adobe Illustrator 29.4.0, SVG Export Plug-In . SVG Version: 2.1.0 Build 152)  -->
  <defs>
    <style>
      .st0 {
        fill: url(#radial-gradient48);
      }

      .st0, .st1, .st2, .st3, .st4, .st5, .st6, .st7, .st8, .st9, .st10, .st11, .st12, .st13, .st14, .st15, .st16, .st17, .st18 {
        mix-blend-mode: screen;
      }

      .st1 {
        fill: url(#radial-gradient47);
      }

      .st2 {
        fill: url(#radial-gradient49);
      }

      .st3 {
        fill: url(#radial-gradient46);
      }

      .st4 {
        fill: url(#radial-gradient45);
      }

      .st5 {
        fill: url(#radial-gradient15);
      }

      .st6 {
        fill: url(#radial-gradient19);
      }

      .st7 {
        fill: url(#radial-gradient35);
      }

      .st8 {
        fill: url(#radial-gradient38);
      }

      .st9 {
        fill: url(#radial-gradient37);
      }

      .st10 {
        fill: url(#radial-gradient36);
      }

      .st11 {
        fill: url(#radial-gradient39);
      }

      .st12 {
        fill: url(#radial-gradient23);
      }

      .st13 {
        fill: url(#radial-gradient25);
      }

      .st14 {
        fill: url(#radial-gradient24);
      }

      .st15 {
        fill: url(#radial-gradient26);
      }

      .st16 {
        fill: url(#radial-gradient21);
      }

      .st19 {
        fill: url(#linear-gradient6);
      }

      .st20 {
        fill: url(#linear-gradient8);
      }

      .st21 {
        fill: url(#linear-gradient7);
      }

      .st22 {
        fill: url(#linear-gradient5);
      }

      .st17 {
        fill: url(#linear-gradient4);
      }

      .st23 {
        fill: #010101;
      }

      .st24 {
        fill: url(#radial-gradient32);
      }

      .st25 {
        fill: url(#radial-gradient30);
      }

      .st26 {
        fill: url(#radial-gradient31);
      }

      .st27 {
        fill: url(#radial-gradient53);
      }

      .st28 {
        fill: url(#radial-gradient51);
      }

      .st29 {
        fill: url(#radial-gradient54);
      }

      .st30 {
        fill: url(#radial-gradient52);
      }

      .st31 {
        fill: url(#radial-gradient50);
      }

      .st32 {
        fill: url(#radial-gradient27);
      }

      .st33 {
        fill: url(#radial-gradient28);
      }

      .st34 {
        fill: url(#radial-gradient29);
      }

      .st35 {
        fill: url(#radial-gradient16);
      }

      .st36 {
        fill: url(#radial-gradient17);
      }

      .st37 {
        fill: url(#radial-gradient12);
      }

      .st38 {
        fill: url(#radial-gradient18);
      }

      .st39 {
        fill: url(#radial-gradient10);
      }

      .st40 {
        fill: url(#radial-gradient13);
      }

      .st41 {
        fill: url(#radial-gradient11);
      }

      .st42 {
        fill: url(#radial-gradient40);
      }

      .st43 {
        fill: url(#linear-gradient13);
      }

      .st44 {
        fill: url(#linear-gradient12);
      }

      .st45 {
        fill: url(#linear-gradient11);
      }

      .st46 {
        fill: url(#linear-gradient14);
      }

      .st47 {
        fill: url(#radial-gradient);
      }

      .st48 {
        fill: url(#linear-gradient);
      }

      .st49 {
        isolation: isolate;
      }

      .st18 {
        fill: url(#linear-gradient10);
      }

      .st50 {
        fill: url(#New_Gradient_Swatch_51);
      }

      .st51 {
        fill: url(#New_Gradient_Swatch_31);
      }

      .st52 {
        fill: url(#New_Gradient_Swatch_64);
      }

      .st53 {
        fill: url(#New_Gradient_Swatch_61);
      }

      .st54 {
        fill: url(#New_Gradient_Swatch_62);
      }

      .st55 {
        fill: url(#New_Gradient_Swatch_63);
      }

      .st56 {
        fill: url(#New_Gradient_Swatch_41);
      }

      .st56, .st57, .st58, .st59, .st60, .st61, .st62, .st63, .st64, .st65, .st66, .st67, .st68, .st69, .st70 {
        mix-blend-mode: multiply;
      }

      .st71 {
        fill: #fff;
      }

      .st72 {
        fill: #f2c4b2;
      }

      .st73 {
        fill: url(#New_Gradient_Swatch_5);
      }

      .st74 {
        fill: url(#New_Gradient_Swatch_3);
      }

      .st75 {
        fill: url(#New_Gradient_Swatch_6);
      }

      .st76 {
        fill: url(#radial-gradient1);
      }

      .st77 {
        fill: url(#radial-gradient6);
      }

      .st78 {
        fill: url(#radial-gradient9);
      }

      .st79 {
        fill: url(#radial-gradient8);
      }

      .st80 {
        fill: url(#radial-gradient3);
      }

      .st81 {
        fill: url(#radial-gradient2);
      }

      .st82 {
        fill: url(#radial-gradient5);
      }

      .st83 {
        fill: url(#radial-gradient4);
      }

      .st84 {
        fill: url(#radial-gradient7);
      }

      .st57 {
        fill: url(#radial-gradient44);
      }

      .st58 {
        fill: url(#radial-gradient42);
      }

      .st59 {
        fill: url(#radial-gradient41);
      }

      .st60 {
        fill: url(#radial-gradient43);
      }

      .st61 {
        fill: url(#radial-gradient14);
      }

      .st62 {
        fill: url(#radial-gradient34);
      }

      .st63 {
        fill: url(#radial-gradient33);
      }

      .st64 {
        fill: url(#radial-gradient22);
      }

      .st65 {
        fill: url(#radial-gradient20);
      }

      .st66 {
        fill: url(#linear-gradient1);
      }

      .st67 {
        fill: url(#linear-gradient2);
      }

      .st68 {
        fill: url(#linear-gradient3);
      }

      .st69 {
        fill: url(#linear-gradient9);
      }

      .st70 {
        fill: url(#New_Gradient_Swatch_4);
      }
    </style>
    <radialGradient id="radial-gradient" cx="1795" cy="-1909.8" fx="1795" fy="-1909.8" r="49.4" gradientTransform="translate(-925.3 -2972.2) rotate(116.6) scale(1.2) skewX(-2.5)" gradientUnits="userSpaceOnUse">
      <stop offset="0" stop-color="#b0bdc2"/>
      <stop offset=".2" stop-color="#bac5c9"/>
      <stop offset=".7" stop-color="#d7dcde"/>
      <stop offset="1" stop-color="#f2f2f2"/>
    </radialGradient>
    <radialGradient id="radial-gradient1" cx="1835.6" cy="-1840.4" fx="1835.6" fy="-1840.4" r="49.4" gradientTransform="translate(-1849.4 -2474.7) rotate(96.4) scale(1.2 1.2) skewX(-3.8)" xlink:href="#radial-gradient"/>
    <linearGradient id="linear-gradient" x1="954.8" y1="-2042" x2="996.1" y2="-1990.6" gradientTransform="translate(685.6 2358.7) rotate(-163.2) scale(1 -1) skewX(-4.3)" gradientUnits="userSpaceOnUse">
      <stop offset="0" stop-color="#b0bdc2"/>
      <stop offset=".3" stop-color="#b3bfc4"/>
      <stop offset=".5" stop-color="#bdc7cb"/>
      <stop offset=".7" stop-color="#ced5d8"/>
      <stop offset=".9" stop-color="#e6e8e9"/>
      <stop offset="1" stop-color="#f2f2f2"/>
    </linearGradient>
    <radialGradient id="New_Gradient_Swatch_6" data-name="New Gradient Swatch 6" cx="156.8" cy="87.8" fx="156.8" fy="87.8" r="42.3" gradientTransform="translate(-8.5 -8) rotate(4.7) scale(1.3 1.2) skewX(-.4)" gradientUnits="userSpaceOnUse">
      <stop offset="0" stop-color="#b0bdc2"/>
      <stop offset=".4" stop-color="#c6ced2"/>
      <stop offset="1" stop-color="#f2f2f2"/>
    </radialGradient>
    <radialGradient id="New_Gradient_Swatch_61" data-name="New Gradient Swatch 6" cx="148.1" cy="65.5" fx="148.1" fy="65.5" r="27.9" xlink:href="#New_Gradient_Swatch_6"/>
    <radialGradient id="radial-gradient2" cx="-1215.3" cy="-363.8" fx="-1215.3" fy="-363.8" r="47.2" gradientTransform="translate(1362 1077.5) rotate(52.6) scale(1.2 -1.2) skewX(-2.1)" xlink:href="#radial-gradient"/>
    <radialGradient id="radial-gradient3" cx="-1215.3" cy="-363.8" fx="-1215.3" fy="-363.8" r="47.2" gradientTransform="translate(1362 1077.5) rotate(52.6) scale(1.2 -1.2) skewX(-2.1)" xlink:href="#radial-gradient"/>
    <radialGradient id="radial-gradient4" cx="2491" cy="909.8" fx="2491" fy="909.8" r="48.9" gradientTransform="translate(2608.1 2138.9) rotate(-120) scale(1.2 -1.2) skewX(-2.3)" gradientUnits="userSpaceOnUse">
      <stop offset=".3" stop-color="#b0bdc2"/>
      <stop offset=".5" stop-color="#b3bfc4"/>
      <stop offset=".6" stop-color="#bdc7cb"/>
      <stop offset=".8" stop-color="#ced5d8"/>
      <stop offset=".9" stop-color="#e6e8e9"/>
      <stop offset="1" stop-color="#f2f2f2"/>
    </radialGradient>
    <radialGradient id="radial-gradient5" cx="1425.6" cy="-1594.4" fx="1425.6" fy="-1594.4" r="52" gradientTransform="translate(1780.9 2222.4) rotate(-82.3) scale(1.2 1.2) skewX(-3.7)" xlink:href="#radial-gradient"/>
    <radialGradient id="radial-gradient6" cx="1425.6" cy="-1594.4" fx="1425.6" fy="-1594.4" r="52" gradientTransform="translate(1780.9 2222.4) rotate(-82.3) scale(1.2 1.2) skewX(-3.7)" xlink:href="#radial-gradient"/>
    <radialGradient id="radial-gradient7" cx="1486.1" cy="-1668.8" fx="1486.1" fy="-1668.8" r="52" gradientTransform="translate(170.8 2862.1) rotate(-137.3) scale(1.2 -1.2) skewX(-2.1)" xlink:href="#radial-gradient"/>
    <radialGradient id="radial-gradient8" cx="1486.1" cy="-1668.8" fx="1486.1" fy="-1668.8" r="52" gradientTransform="translate(170.8 2862.1) rotate(-137.3) scale(1.2 -1.2) skewX(-2.1)" xlink:href="#radial-gradient"/>
    <radialGradient id="New_Gradient_Swatch_62" data-name="New Gradient Swatch 6" cx="124.5" cy="50.1" fx="124.5" fy="50.1" r="41.6" xlink:href="#New_Gradient_Swatch_6"/>
    <radialGradient id="radial-gradient9" cx="106.8" cy="86.4" fx="106.8" fy="86.4" r="17" gradientTransform="translate(-40.7 -63.5) scale(1.3 1.2)" gradientUnits="userSpaceOnUse">
      <stop offset=".2" stop-color="#b0bdc2"/>
      <stop offset=".4" stop-color="#b3bfc4"/>
      <stop offset=".6" stop-color="#bdc7cb"/>
      <stop offset=".8" stop-color="#ced5d8"/>
      <stop offset=".9" stop-color="#e6e8e9"/>
      <stop offset="1" stop-color="#f2f2f2"/>
    </radialGradient>
    <radialGradient id="radial-gradient10" cx="2174.9" cy="-1310.3" fx="2174.9" fy="-1310.3" r="37.2" gradientTransform="translate(3053.9 1523) rotate(178.1) scale(1.3 -1.2) skewX(-4.5)" xlink:href="#radial-gradient"/>
    <radialGradient id="radial-gradient11" cx="2174.9" cy="-1310.3" fx="2174.9" fy="-1310.3" r="37.2" gradientTransform="translate(3053.9 1523) rotate(178.1) scale(1.3 -1.2) skewX(-4.5)" xlink:href="#radial-gradient"/>
    <radialGradient id="radial-gradient12" cx="92.9" cy="33.4" fx="92.9" fy="33.4" r="29.5" gradientTransform="translate(-8.5 -8) rotate(4.7) scale(1.3 1.2) skewX(-.4)" gradientUnits="userSpaceOnUse">
      <stop offset="0" stop-color="#b0bdc2"/>
      <stop offset=".2" stop-color="#b7c3c7"/>
      <stop offset=".6" stop-color="#cdd4d7"/>
      <stop offset="1" stop-color="#eff0f0"/>
      <stop offset="1" stop-color="#f2f2f2"/>
    </radialGradient>
    <radialGradient id="radial-gradient13" cx="113.5" cy="90.8" fx="113.5" fy="90.8" r="31.7" gradientTransform="translate(-40.7 -63.5) scale(1.3 1.2)" gradientUnits="userSpaceOnUse">
      <stop offset="0" stop-color="#b0bdc2"/>
      <stop offset=".2" stop-color="#c0cacd"/>
      <stop offset="1" stop-color="#f2f2f2"/>
    </radialGradient>
    <radialGradient id="radial-gradient14" cx="216.2" cy="194.8" fx="216.2" fy="194.8" r="21.6" gradientTransform="translate(379.3 -87.8) rotate(175.5) scale(1.3 -1.2) skewX(-.4)" gradientUnits="userSpaceOnUse">
      <stop offset=".6" stop-color="#f4d0c2"/>
      <stop offset=".7" stop-color="#f6d9cd"/>
      <stop offset="1" stop-color="#fff"/>
    </radialGradient>
    <radialGradient id="radial-gradient15" cx="215.3" cy="194.9" fx="215.3" fy="194.9" r="18" gradientTransform="translate(379.3 -87.8) rotate(175.5) scale(1.3 -1.2) skewX(-.4)" gradientUnits="userSpaceOnUse">
      <stop offset=".6" stop-color="#f2c4b2"/>
      <stop offset="1" stop-color="#010101"/>
    </radialGradient>
    <radialGradient id="radial-gradient16" cx="-4313.9" cy="-3244.1" fx="-4313.9" fy="-3244.1" r="92.9" gradientTransform="translate(3415.8 344.1) rotate(-44.6) scale(.6 .8) skewX(-13.6)" gradientUnits="userSpaceOnUse">
      <stop offset="0" stop-color="#58120f"/>
      <stop offset=".4" stop-color="#5c1310"/>
      <stop offset=".8" stop-color="#691613"/>
      <stop offset="1" stop-color="#711915"/>
    </radialGradient>
    <radialGradient id="radial-gradient17" cx="-5027.8" cy="2236.3" fx="-5027.8" fy="2236.3" r="50.4" gradientTransform="translate(3390 -315.6) rotate(14.2) scale(.6 .6) skewX(-1.1)" gradientUnits="userSpaceOnUse">
      <stop offset="0" stop-color="#edabab"/>
      <stop offset="1" stop-color="#af302d"/>
    </radialGradient>
    <radialGradient id="radial-gradient18" cx="-5315.1" cy="-1485.6" fx="-5315.1" fy="-1485.6" r="57.2" gradientTransform="translate(3458.2 282.6) rotate(-13.2) scale(.6 .6) skewX(1)" gradientUnits="userSpaceOnUse">
      <stop offset="0" stop-color="#fff"/>
      <stop offset="1" stop-color="#919191"/>
    </radialGradient>
    <radialGradient id="radial-gradient19" cx="2271.1" cy="242.5" fx="2271.1" fy="242.5" r="13.7" gradientTransform="translate(2897.5 -533.3) rotate(171.2) scale(1.3 -1.2) skewX(-.7)" gradientUnits="userSpaceOnUse">
      <stop offset="0" stop-color="#d07d73"/>
      <stop offset="1" stop-color="#010101"/>
    </radialGradient>
    <radialGradient id="radial-gradient20" cx="217.5" cy="151.1" fx="217.5" fy="151.1" r="19.2" gradientTransform="translate(378.9 -62.2) rotate(180) scale(1.3 -1.2)" gradientUnits="userSpaceOnUse">
      <stop offset="0" stop-color="#f2c4b2"/>
      <stop offset=".2" stop-color="#f2c6b5"/>
      <stop offset=".5" stop-color="#f4cfc1"/>
      <stop offset=".7" stop-color="#f7ded4"/>
      <stop offset=".9" stop-color="#fcf2ee"/>
      <stop offset="1" stop-color="#fff"/>
    </radialGradient>
    <radialGradient id="radial-gradient21" cx="217.5" cy="146.9" fx="217.5" fy="146.9" r="14.4" gradientTransform="translate(378.9 -62.2) rotate(180) scale(1.3 -1.2)" gradientUnits="userSpaceOnUse">
      <stop offset=".6" stop-color="#fff"/>
      <stop offset=".7" stop-color="#dadada"/>
      <stop offset=".8" stop-color="#666"/>
      <stop offset=".9" stop-color="#1d1d1d"/>
      <stop offset="1" stop-color="#010101"/>
    </radialGradient>
    <radialGradient id="radial-gradient22" cx="180.2" cy="148.2" fx="180.2" fy="148.2" r="13" gradientTransform="translate(378.9 -62.2) rotate(180) scale(1.3 -1.2)" gradientUnits="userSpaceOnUse">
      <stop offset=".8" stop-color="#f8e0d3"/>
      <stop offset=".8" stop-color="#f8e2d6"/>
      <stop offset=".9" stop-color="#faeae2"/>
      <stop offset="1" stop-color="#fdf8f5"/>
      <stop offset="1" stop-color="#fff"/>
    </radialGradient>
    <radialGradient id="radial-gradient23" cx="179.1" cy="144" fx="179.1" fy="144" r="10.4" gradientTransform="translate(378.9 -62.2) rotate(180) scale(1.3 -1.2)" gradientUnits="userSpaceOnUse">
      <stop offset=".4" stop-color="#fff"/>
      <stop offset=".5" stop-color="#dadada"/>
      <stop offset=".8" stop-color="#666"/>
      <stop offset=".9" stop-color="#1d1d1d"/>
      <stop offset="1" stop-color="#010101"/>
    </radialGradient>
    <radialGradient id="radial-gradient24" cx="218" cy="149.7" fx="218" fy="149.7" r="18" gradientTransform="translate(378.9 -62.2) rotate(180) scale(1.3 -1.2)" gradientUnits="userSpaceOnUse">
      <stop offset=".4" stop-color="#bdbdbd"/>
      <stop offset=".5" stop-color="#acacac"/>
      <stop offset=".6" stop-color="#818181"/>
      <stop offset=".8" stop-color="#3c3c3c"/>
      <stop offset="1" stop-color="#010101"/>
    </radialGradient>
    <radialGradient id="radial-gradient25" cx="131.9" cy="151.7" fx="131.9" fy="151.7" r="35.8" gradientTransform="translate(378.9 -62.2) rotate(180) scale(1.3 -1.2)" gradientUnits="userSpaceOnUse">
      <stop offset=".6" stop-color="#fff"/>
      <stop offset=".7" stop-color="#fbfbfb"/>
      <stop offset=".8" stop-color="#f2f2f2"/>
      <stop offset=".8" stop-color="#e1e1e1"/>
      <stop offset=".8" stop-color="#cacaca"/>
      <stop offset=".9" stop-color="#acacac"/>
      <stop offset=".9" stop-color="#888"/>
      <stop offset=".9" stop-color="#5c5c5c"/>
      <stop offset="1" stop-color="#2b2b2b"/>
      <stop offset="1" stop-color="#010101"/>
    </radialGradient>
    <radialGradient id="radial-gradient26" cx="265.7" cy="155.1" fx="265.7" fy="155.1" r="108.7" gradientTransform="translate(378.9 -62.2) rotate(180) scale(1.3 -1.2)" gradientUnits="userSpaceOnUse">
      <stop offset=".9" stop-color="#010101"/>
      <stop offset=".9" stop-color="#2e2e2e"/>
      <stop offset="1" stop-color="#595959"/>
      <stop offset="1" stop-color="#6a6a6a"/>
    </radialGradient>
    <linearGradient id="linear-gradient1" x1="131" y1="134.2" x2="258.5" y2="134.2" gradientTransform="translate(298.8 -54.6) rotate(180) scale(1 -1)" gradientUnits="userSpaceOnUse">
      <stop offset="0" stop-color="#fff"/>
      <stop offset="0" stop-color="#fefdfd"/>
      <stop offset=".3" stop-color="#faefea"/>
      <stop offset=".7" stop-color="#f8e7de"/>
      <stop offset="1" stop-color="#f8e5db"/>
    </linearGradient>
    <linearGradient id="linear-gradient2" x1="131" y1="128" x2="258.5" y2="128" xlink:href="#linear-gradient1"/>
    <linearGradient id="linear-gradient3" x1="129.2" y1="195.1" x2="258.7" y2="195.1" xlink:href="#linear-gradient1"/>
    <radialGradient id="radial-gradient27" cx="107.9" cy="151.9" fx="107.9" fy="151.9" r="36.1" gradientTransform="translate(-40.7 -63.5) scale(1.3 1.2)" gradientUnits="userSpaceOnUse">
      <stop offset="0" stop-color="#f2f2f2"/>
      <stop offset=".1" stop-color="#eaebec"/>
      <stop offset=".7" stop-color="#c0c9cd"/>
      <stop offset="1" stop-color="#b0bdc2"/>
    </radialGradient>
    <radialGradient id="radial-gradient28" cx="-877.4" cy="-1266.1" fx="-877.4" fy="-1266.1" r="49.3" gradientTransform="translate(1833.6 684.4) rotate(75.2) scale(1.2 -1.2) skewX(-3.2)" xlink:href="#radial-gradient"/>
    <radialGradient id="radial-gradient29" cx="-895" cy="-1317.4" fx="-895" fy="-1317.4" r="49.3" gradientTransform="translate(1988.4 263.3) rotate(61.8) scale(1.2 -1.2) skewX(-2.4)" xlink:href="#radial-gradient"/>
    <radialGradient id="radial-gradient30" cx="52.2" cy="53.8" fx="52.2" fy="53.8" r="41.7" gradientTransform="translate(-8.5 -8) rotate(4.7) scale(1.3 1.2) skewX(-.4)" gradientUnits="userSpaceOnUse">
      <stop offset=".4" stop-color="#b0bdc2"/>
      <stop offset=".6" stop-color="#c6ced2"/>
      <stop offset="1" stop-color="#f2f2f2"/>
    </radialGradient>
    <radialGradient id="radial-gradient31" cx="594.1" cy="-2519.2" fx="594.1" fy="-2519.2" r="34.9" gradientTransform="translate(2918.1 1967.8) rotate(142.8) scale(1.3 -1.3) skewX(-6.9)" gradientUnits="userSpaceOnUse">
      <stop offset="0" stop-color="#b0bdc2"/>
      <stop offset=".3" stop-color="#bbc6ca"/>
      <stop offset=".7" stop-color="#dadee0"/>
      <stop offset="1" stop-color="#f2f2f2"/>
    </radialGradient>
    <radialGradient id="New_Gradient_Swatch_63" data-name="New Gradient Swatch 6" cx="82.3" cy="67.5" fx="82.3" fy="67.5" r="51.7" xlink:href="#New_Gradient_Swatch_6"/>
    <radialGradient id="radial-gradient32" cx="93.4" cy="96.1" fx="93.4" fy="96.1" r="23.6" gradientTransform="translate(-40.7 -63.5) scale(1.3 1.2)" gradientUnits="userSpaceOnUse">
      <stop offset="0" stop-color="#b0bdc2"/>
      <stop offset=".3" stop-color="#b3bfc4"/>
      <stop offset=".5" stop-color="#bdc7cb"/>
      <stop offset=".7" stop-color="#ced5d8"/>
      <stop offset=".9" stop-color="#e6e8e9"/>
      <stop offset="1" stop-color="#f2f2f2"/>
    </radialGradient>
    <radialGradient id="New_Gradient_Swatch_64" data-name="New Gradient Swatch 6" cx="68.8" cy="55.7" fx="68.8" fy="55.7" r="31.6" xlink:href="#New_Gradient_Swatch_6"/>
    <radialGradient id="radial-gradient33" cx="192.1" cy="166.7" fx="192.1" fy="166.7" r="13.2" gradientTransform="translate(378.9 -62.2) rotate(180) scale(1.3 -1.2)" gradientUnits="userSpaceOnUse">
      <stop offset="0" stop-color="#f2c4b2"/>
      <stop offset=".2" stop-color="#f2c6b5"/>
      <stop offset=".5" stop-color="#f4cfc1"/>
      <stop offset=".7" stop-color="#f7ded4"/>
      <stop offset=".9" stop-color="#fcf3f0"/>
      <stop offset="1" stop-color="#fff"/>
    </radialGradient>
    <radialGradient id="radial-gradient34" cx="262.6" cy="167.8" fx="262.6" fy="167.8" r="16.8" gradientTransform="translate(378.9 -62.2) rotate(180) scale(1.3 -1.2)" gradientUnits="userSpaceOnUse">
      <stop offset=".3" stop-color="#fff"/>
      <stop offset=".6" stop-color="#f8e3da"/>
      <stop offset=".8" stop-color="#f3ccbd"/>
      <stop offset="1" stop-color="#f2c4b2"/>
    </radialGradient>
    <radialGradient id="New_Gradient_Swatch_3" data-name="New Gradient Swatch 3" cx="215.5" cy="150" fx="215.5" fy="150" r="17.9" gradientTransform="translate(378.9 -62.2) rotate(180) scale(1.3 -1.2)" gradientUnits="userSpaceOnUse">
      <stop offset="0" stop-color="#fff"/>
      <stop offset=".2" stop-color="#f9fbfc"/>
      <stop offset=".4" stop-color="#ebf1f3"/>
      <stop offset=".6" stop-color="#d3e0e5"/>
      <stop offset=".9" stop-color="#b1c8d2"/>
      <stop offset="1" stop-color="#9ebbc7"/>
    </radialGradient>
    <radialGradient id="radial-gradient35" cx="222.8" cy="139.7" fx="222.8" fy="139.7" r="16.9" gradientTransform="translate(378.9 -62.2) rotate(180) scale(1.3 -1.2)" gradientUnits="userSpaceOnUse">
      <stop offset=".7" stop-color="#010101"/>
      <stop offset=".7" stop-color="#030708"/>
      <stop offset=".8" stop-color="#0b181c"/>
      <stop offset=".8" stop-color="#18333d"/>
      <stop offset=".9" stop-color="#2a5a6a"/>
      <stop offset="1" stop-color="#418ba4"/>
      <stop offset="1" stop-color="#4ea6c4"/>
    </radialGradient>
    <radialGradient id="radial-gradient36" cx="-6750.4" cy="-3169.7" fx="-6750.4" fy="-3169.7" r="8.7" gradientTransform="translate(4578.3 412.2) rotate(-20.5) scale(.6 .6) skewX(1.5)" gradientUnits="userSpaceOnUse">
      <stop offset=".2" stop-color="#fff"/>
      <stop offset=".3" stop-color="#c4c4c4"/>
      <stop offset=".4" stop-color="#898989"/>
      <stop offset=".6" stop-color="#585858"/>
      <stop offset=".7" stop-color="#323232"/>
      <stop offset=".8" stop-color="#171717"/>
      <stop offset=".9" stop-color="#060606"/>
      <stop offset="1" stop-color="#010101"/>
    </radialGradient>
    <radialGradient id="radial-gradient37" cx="209.7" cy="113.1" fx="209.7" fy="113.1" r="21.4" gradientTransform="translate(378.9 -62.2) rotate(180) scale(1.3 -1.2)" gradientUnits="userSpaceOnUse">
      <stop offset=".8" stop-color="#010101"/>
      <stop offset=".9" stop-color="#0d0704"/>
      <stop offset=".9" stop-color="#2d1a0e"/>
      <stop offset="1" stop-color="#412513"/>
      <stop offset="1" stop-color="#492a16"/>
    </radialGradient>
    <radialGradient id="radial-gradient38" cx="185.6" cy="114.2" fx="185.6" fy="114.2" r="12.9" gradientTransform="translate(378.9 -62.2) rotate(180) scale(1.3 -1.2)" gradientUnits="userSpaceOnUse">
      <stop offset="0" stop-color="#492a16"/>
      <stop offset="1" stop-color="#010101"/>
    </radialGradient>
    <radialGradient id="radial-gradient39" cx="186.7" cy="112.4" fx="186.7" fy="112.4" r="12.7" xlink:href="#radial-gradient38"/>
    <radialGradient id="radial-gradient40" cx="132.7" cy="180.1" fx="132.7" fy="180.1" r="42.8" gradientTransform="translate(-40.7 -63.5) scale(1.3 1.2)" gradientUnits="userSpaceOnUse">
      <stop offset="0" stop-color="#b0bdc2"/>
      <stop offset=".3" stop-color="#c5ced1"/>
      <stop offset=".7" stop-color="#e5e8e9"/>
      <stop offset="1" stop-color="#f2f2f2"/>
    </radialGradient>
    <radialGradient id="radial-gradient41" cx="139.8" cy="170" fx="139.8" fy="170" r="29.8" gradientTransform="translate(-40.7 -63.5) scale(1.3 1.2)" gradientUnits="userSpaceOnUse">
      <stop offset="0" stop-color="#d3e2eb"/>
      <stop offset=".4" stop-color="#dfeaf0"/>
      <stop offset="1" stop-color="#fff"/>
    </radialGradient>
    <radialGradient id="radial-gradient42" cx="141.5" cy="166.3" fx="141.5" fy="166.3" r="18.7" gradientTransform="translate(-40.7 -63.5) scale(1.3 1.2)" gradientUnits="userSpaceOnUse">
      <stop offset=".4" stop-color="#d3e2eb"/>
      <stop offset=".6" stop-color="#dfeaf0"/>
      <stop offset="1" stop-color="#fff"/>
    </radialGradient>
    <radialGradient id="radial-gradient43" cx="146.3" cy="164.9" fx="146.3" fy="164.9" r="28.5" xlink:href="#radial-gradient41"/>
    <radialGradient id="radial-gradient44" cx="143.1" cy="174.3" fx="143.1" fy="174.3" r="21.2" xlink:href="#radial-gradient41"/>
    <radialGradient id="New_Gradient_Swatch_31" data-name="New Gradient Swatch 3" cx="169.6" cy="149.3" fx="169.6" fy="149.3" r="20.5" xlink:href="#New_Gradient_Swatch_3"/>
    <radialGradient id="radial-gradient45" cx="181" cy="140.6" fx="181" fy="140.6" r="13.7" xlink:href="#radial-gradient35"/>
    <radialGradient id="radial-gradient46" cx="-6667.8" cy="-3140.1" fx="-6667.8" fy="-3140.1" r="7.9" gradientTransform="translate(4578.3 412.2) rotate(-20.5) scale(.6 .6) skewX(1.5)" gradientUnits="userSpaceOnUse">
      <stop offset=".2" stop-color="#fff"/>
      <stop offset=".3" stop-color="#d0d0d0"/>
      <stop offset=".4" stop-color="#929292"/>
      <stop offset=".6" stop-color="#5e5e5e"/>
      <stop offset=".7" stop-color="#353535"/>
      <stop offset=".8" stop-color="#181818"/>
      <stop offset=".9" stop-color="#070707"/>
      <stop offset="1" stop-color="#010101"/>
    </radialGradient>
    <linearGradient id="New_Gradient_Swatch_5" data-name="New Gradient Swatch 5" x1="-357.2" y1="568.8" x2="-358.5" y2="553" gradientTransform="translate(116 -569.5) rotate(-151.6) scale(1 -1)" gradientUnits="userSpaceOnUse">
      <stop offset="0" stop-color="#b0bdc2"/>
      <stop offset="1" stop-color="#f2f2f2"/>
    </linearGradient>
    <linearGradient id="New_Gradient_Swatch_4" data-name="New Gradient Swatch 4" x1="-357.2" y1="566.8" x2="-357.9" y2="557.6" gradientTransform="translate(116 -569.5) rotate(-151.6) scale(1 -1)" gradientUnits="userSpaceOnUse">
      <stop offset="0" stop-color="#fff"/>
      <stop offset="0" stop-color="#f2f7f9"/>
      <stop offset=".3" stop-color="#dce9ef"/>
      <stop offset=".5" stop-color="#ccdee7"/>
      <stop offset=".7" stop-color="#c2d8e3"/>
      <stop offset="1" stop-color="#c0d7e2"/>
    </linearGradient>
    <linearGradient id="linear-gradient4" x1="188.2" y1="154.3" x2="210.4" y2="195.3" gradientTransform="translate(-36.8 -56.1) rotate(.7)" gradientUnits="userSpaceOnUse">
      <stop offset="0" stop-color="#282560"/>
      <stop offset=".4" stop-color="#010101"/>
      <stop offset=".6" stop-color="#bbbdbf"/>
      <stop offset=".8" stop-color="#19191a"/>
    </linearGradient>
    <linearGradient id="linear-gradient5" x1="176.5" y1="68.9" x2="251.5" y2="510.3" gradientTransform="translate(-35.2 -55.6)" gradientUnits="userSpaceOnUse">
      <stop offset="0" stop-color="#434076"/>
      <stop offset="1" stop-color="#161439"/>
    </linearGradient>
    <linearGradient id="linear-gradient6" x1="190.5" y1="148.1" x2="201.5" y2="212.8" gradientTransform="translate(-35.2 -55.6)" gradientUnits="userSpaceOnUse">
      <stop offset="0" stop-color="#282560"/>
      <stop offset="1" stop-color="#131223"/>
    </linearGradient>
    <linearGradient id="New_Gradient_Swatch_51" data-name="New Gradient Swatch 5" x1="-128.8" y1="677.7" x2="-130.2" y2="660.7" gradientTransform="translate(-19.2 -576.5) rotate(-20.5)" xlink:href="#New_Gradient_Swatch_5"/>
    <linearGradient id="New_Gradient_Swatch_41" data-name="New Gradient Swatch 4" x1="-128.7" y1="675.5" x2="-129.5" y2="665.6" gradientTransform="translate(-19.2 -576.5) rotate(-20.5)" xlink:href="#New_Gradient_Swatch_4"/>
    <linearGradient id="linear-gradient7" x1="90.9" y1="121.9" x2="122.2" y2="306.6" xlink:href="#linear-gradient5"/>
    <linearGradient id="linear-gradient8" x1="97.1" y1="159.3" x2="101.7" y2="186.6" xlink:href="#linear-gradient6"/>
    <radialGradient id="radial-gradient47" cx="156.1" cy="162.1" fx="156.1" fy="162.1" r="15" gradientTransform="translate(-40.7 -63.5) scale(1.3 1.2)" gradientUnits="userSpaceOnUse">
      <stop offset="0" stop-color="#e9b1a2"/>
      <stop offset=".2" stop-color="#b88b80"/>
      <stop offset=".4" stop-color="#775a53"/>
      <stop offset=".6" stop-color="#44342f"/>
      <stop offset=".8" stop-color="#1f1816"/>
      <stop offset=".9" stop-color="#090706"/>
      <stop offset="1" stop-color="#010101"/>
    </radialGradient>
    <radialGradient id="radial-gradient48" cx="151.8" cy="156.6" fx="151.8" fy="156.6" r="18.7" gradientTransform="translate(-40.7 -63.5) scale(1.3 1.2)" gradientUnits="userSpaceOnUse">
      <stop offset=".2" stop-color="#e9b1a2"/>
      <stop offset=".3" stop-color="#e3ac9e"/>
      <stop offset=".4" stop-color="#d3a093"/>
      <stop offset=".5" stop-color="#b98d81"/>
      <stop offset=".6" stop-color="#957168"/>
      <stop offset=".8" stop-color="#674e48"/>
      <stop offset=".9" stop-color="#2f2421"/>
      <stop offset="1" stop-color="#010101"/>
    </radialGradient>
    <linearGradient id="linear-gradient9" x1="653.3" y1="209.9" x2="654.4" y2="202.2" gradientTransform="translate(-518.1 -53.9) rotate(-.5)" gradientUnits="userSpaceOnUse">
      <stop offset="0" stop-color="#edded7"/>
      <stop offset="1" stop-color="#fdfbfa"/>
    </linearGradient>
    <radialGradient id="radial-gradient49" cx="132.7" cy="-17.9" fx="132.7" fy="-17.9" r="13" gradientTransform="translate(-20 103.5) rotate(15.7) scale(1.3 1.2) skewX(-1.2)" gradientUnits="userSpaceOnUse">
      <stop offset=".3" stop-color="#e9b1a2"/>
      <stop offset=".4" stop-color="#b88b80"/>
      <stop offset=".6" stop-color="#775a53"/>
      <stop offset=".7" stop-color="#44342f"/>
      <stop offset=".8" stop-color="#1f1816"/>
      <stop offset=".9" stop-color="#090706"/>
      <stop offset="1" stop-color="#010101"/>
    </radialGradient>
    <radialGradient id="radial-gradient50" cx="125.3" cy="60.4" fx="125.3" fy="60.4" r="35.4" gradientTransform="translate(-8.5 -8) rotate(4.7) scale(1.3 1.2) skewX(-.4)" gradientUnits="userSpaceOnUse">
      <stop offset="0" stop-color="#b0bdc2"/>
      <stop offset=".2" stop-color="#b5c1c5"/>
      <stop offset=".5" stop-color="#c4cdd0"/>
      <stop offset=".8" stop-color="#dce0e2"/>
      <stop offset="1" stop-color="#f2f2f2"/>
    </radialGradient>
    <radialGradient id="radial-gradient51" cx="-888.7" cy="-1353.3" fx="-888.7" fy="-1353.3" r="52" gradientTransform="translate(1167 1672.9) rotate(-1.5) scale(1.3 1.2) skewX(-4.2)" xlink:href="#radial-gradient"/>
    <radialGradient id="radial-gradient52" cx="-888.7" cy="-1353.3" fx="-888.7" fy="-1353.3" r="52" gradientTransform="translate(1167 1672.9) rotate(-1.5) scale(1.3 1.2) skewX(-4.2)" xlink:href="#radial-gradient"/>
    <radialGradient id="radial-gradient53" cx="133.5" cy="120.7" fx="133.5" fy="120.7" r="56.9" gradientTransform="translate(-40.7 -63.5) scale(1.3 1.2)" xlink:href="#radial-gradient"/>
    <radialGradient id="radial-gradient54" cx="87.6" cy="75.5" fx="87.6" fy="75.5" r="73.5" gradientTransform="translate(-8.5 -8) rotate(4.7) scale(1.3 1.2) skewX(-.4)" gradientUnits="userSpaceOnUse">
      <stop offset="0" stop-color="#b0bdc2"/>
      <stop offset="1" stop-color="#f2f2f2"/>
    </radialGradient>
    <linearGradient id="linear-gradient10" x1="-35" y1="81.4" x2="-14.2" y2="119.8" gradientTransform="translate(129.5 21.2) rotate(.4)" xlink:href="#linear-gradient4"/>
    <linearGradient id="linear-gradient11" x1="128.7" y1="64.2" x2="206.3" y2="521.4" xlink:href="#linear-gradient5"/>
    <linearGradient id="linear-gradient12" x1="136.3" y1="156.5" x2="147.7" y2="224" xlink:href="#linear-gradient6"/>
    <linearGradient id="linear-gradient13" x1=".9" y1="76" x2="11.7" y2="139.7" gradientTransform="translate(129.5 21.2) rotate(.4)" xlink:href="#linear-gradient6"/>
    <linearGradient id="linear-gradient14" x1="2.5" y1="76.1" x2="13" y2="138" gradientTransform="translate(129.5 21.2) rotate(.4)" xlink:href="#linear-gradient6"/>
  </defs>
  <g class="st49">
    <g id="Layer_1">
      <g>
        <path class="st23" d="M197.2,112.4c8.9-6.5,11.3-14.2,13.2-19.2-4,1.8-4.5,2.2-6.5,2.8,2.5-2.7,2-4.8,1.8-7.7-1.9,1-5.3,3.2-9.9,2.9,1.2-4.9,0-7.9-1.1-11.6,2.2-2.2,3.5-2.6,6.5-4-2.9-1.7-4.5-3-8-3-.2-5.7-1.2-11.9,2.2-13.6l3-1.5c-2.4-1.1-6.3-3.6-11.8-2.3,1.7-8.5.7-10.4-1.1-15.6-1.6,4.9-4.2,8.2-9,10.1,3.6-2.9,1.2-10.4-1.2-17.2-1.1,3.6-7.1,4.5-8.9,6.7,1.2-3.8-4.4-5.5,3.7-11.3h-7.6c0-2,1.3-4.2-3.4-12.6-2.9,5.9-3.6,8.2-10.6,9.2.5-2.7,2-4.5,4.8-8.5-9,2.5-16.5,5.4-18.5,6.4-3.4-4-6-4.8-10.6-6.9-5.1-6.5-11.6-8.1-19.2-10.7,3.3,2.5,4,4,5,4.4l-5.5-2c3.6,4.7,3.8,5.6,2.6,9.3-7-6.6-15.7-8-21.8-9.3,6,7.5,6.3,7.2,1.8,16.8-2.2-1.9-4.2-2.1-10.6-3.6l3.7,3.6c.9.9,2,3.8,1.5,5-.5,1.2-1.8,2.2-2.7,3.6-1.2-2.3-1.9-3.7-2.2-4.5-2.6,2.9-4.3,4.5-4.9,7.1-5.5-4.3-3.4-9.3-2-14.8-4.5,3.5-8.3,5.9-11.3,13.4-3.7-3.5-7.9-3.5-10.9-3.7,2.6,4.2,3.8,4.3-1.8,12.3-2.2,3-4.4,6.2-5,9.5-6.4,1.4-9.1-1.6-13.9-5.7.8,5.1,1.4,9.9,3.8,15.7-5.9-2.3-7.3-8-8.6-11.7l-1.7,4.4c-1.7,4.3-.2,7-1.8,2.8-.3,14-1.2,20.8,3.5,26.8-4.8,2.6-10.6.1-13.7-1,1.6,3.8,1.9,4.7,3.1,6.2-.4-.4-5.4-5.9-5.8-6.3,2.4,7.4,3.6,13,8.9,18.1-2.8,3.8-4,3.1-8,2.8,1.5,2.4,4.1,7.4,10.6,8.2-7.4,12.4,3.6,16.8-4.8,11.5,1.9,5.2,1.4,6.4,6.5,11.2-5.1,2.3-6.6,6.6-7.7,8.9l3.3-.6c5.8-1.1,10.1,12,17.2,15.1,6.3,2.8,12.5,2.3,17.6-1.4-1,5.1-2.6,4.9-6.3,6,2.3,1.6,5.3,4.3,10.3,4.1-2.8,7.3-1.6,11.4-.7,16.7l2.4-4.4c3.3-6.1,9.5-6.3,15.8-2.9,2,1.1,4,2.2,6.7,2.2,2.9,0,97.6-13,101.3-23.9.6-.9.5-2.8.7-3.5,1.9-.7,3.8-2,5.2-3.2,5.9-4.7,13.8-8,18.7,1.3,1.4-8.8-2.8-14.8-8.7-19.8,10.1,1.6,13.9-6.8,14-6.9l1.3-3c-5.9,1.2-5.6,1.8-12.9-7.2ZM15.8,125.3c3.3-4,10.6-6.2,13.6-5.5-.6,5.5-5.9,9.4-13.6,5.5Z"/>
        <path class="st71" d="M162.5,106.9s7.6-3.2,12.2,2c4.6,5.2,7.8,15.7,7,21.5-.8,5.8-2.1,13.2-6.3,14.7-4.1,1.5-8.9,1-8.9,1l-7.1-24.2,3-15Z"/>
        <g>
          <path class="st47" d="M168.2,148.8c2.2,2.5,6.9,3,10,2.4,3.6-.7,5.6-3.5,8.5-5.2,5.5-3.2,12-3.1,16.5,2.4-.3-11.3-14.4-27.5-27.1-21-3,1.6-6,4.5-8.6,6.8-3.9,3.5-8.4,7.7-7.6,13.6l8.2,1Z"/>
          <path class="st23" d="M168.6,148.4c3,2.7,9.1,2.7,12.6.3,2.4-1.7,12.5-15,21.1-2.7-2.3-10.3-14.9-26-27.8-16.9-2.4,1.7-9.5,8-11.8,11.2-1.6,2.3-2.5,4.7-2.1,7.5h-1.1c-.4-3,.6-5.7,2.4-8.2,2.3-3.3,9.7-9.6,12.2-11.3,13.7-9.3,32.4,5.9,29.3,20.2-9.6-10.7-17.4,0-20.8,2.2-4.7,3.1-11.7,2.1-14.6-1.4l.8-.8Z"/>
          <path class="st76" d="M160.3,152.7c4.7-9.9,2.4-5.6,4.3-22.5,1.9-16.9,11.8-27.9,24.9-22.4,6.5,2.7,10.7,15.6,17.7,14.1,0,0-3.9,8.9-15.1,5.1-11.1-3.8-12.6,7.6-12.6,7.6l-19.2,18.1Z"/>
          <path class="st23" d="M159.8,152.4c2-4.7,3-6.3,3.1-9.8.8-14.5,2.8-34.7,18.4-36.6,15.2-1.2,19.5,14,27.6,14.7-.5,1.4-2.6,4.7-3.6,5.7-7.2,6.6-12.8-.2-19.3.9-1.9.2-5,2.7-6.4,7.3,0-4.6,3.2-8.3,6-8.8,6.5-1.7,10.4,4.2,18-.3,1.3-.9,2.5-1.9,3.7-3.7-7,1.8-10.8-11.4-19.3-14.3-2.4-1-7.4-1.4-11.4.9-7.6,4.9-10,12.7-11.2,21.8-1.5,16.4,0,13.9-4.5,22.7l-1.1-.6Z"/>
          <path class="st23" d="M160.3,140.7c1.5-2.3,6.4-18,17.9-19.3-11.2,1.7-15.4,17.2-16.9,19.9l-1-.7Z"/>
          <path class="st23" d="M191.9,137.2c-2.5-2.3-15.7.5-17.3,8.4,0,0,.2-7.1,4.8-9,5.1-2.1,10.6-1.3,12.5.6Z"/>
          <g>
            <g>
              <path class="st48" d="M180.1,128.3c-.2-3.9,1.5-6.2,1.6-9.7.2-5-1.7-9.7-3-14.4-4.2-16.3-12.4-16-12.2-16.5-2.7-3.5-3.8-.6-4.3-1.1-7.8,11.7-15.3,34.2-12.1,42.6,6.6,3.7,4.3,13.3,6.2,22.2.2.8,13.6-7.4,13.7-6.6,0,4,.3,8.5,3.9,12,0,0,4.1-2,4.7-5.3.6-3.3,2.9-7.7,2.2-10.9-1.7-7.4-2.3-6-.7-12.2Z"/>
              <path class="st23" d="M175.3,127.3c2.7-1.9,5.3-2.9,5.5-9.9.2-7.4-5.9-21.6-9.2-25.7.5.4,4.4,2,4.8,2.4,5.1,6,7,19.3,6.1,25.8-.5,4-2.5,6-5.6,9.8-1.7,2.1-2.9,2.8-3.9,3.4,2.2-1.6,0-4.2,2.3-5.8Z"/>
              <path class="st23" d="M169,145.8c15.2-6.2,6.4-18.5,13.1-25.1-2.6,15.7-2.2,21.8-13.1,25.1Z"/>
            </g>
            <g>
              <g>
                <g>
                  <path class="st75" d="M143.2,94.2c5.5,12,5.2,19.6,24.5,22.9,19.3,3.3,34.2-6.6,39.6-20.6,0,0-6.2,2.9-11.2,2.4,0,0,8.4-2.7,8.1-7.8,0,0-6.6,3.6-12.8.7-6.3-2.9-10.9-6.6-23.4-3.2-12.5,3.3-24.8,5.7-24.8,5.7Z"/>
                  <path class="st23" d="M200.6,97.7c1.5-1,2.8-2.1,3.5-3.4,1-1.7.9-3.2.8-4.5-14.5,7-15.3-5.2-31.1-3.5-3.2.3-5,.9-15.5,3.4-2.4.6-15.4,3.4-15.4,3.4-1.5.4-1.1,1,3.5,10.9,4.5,9.5,11,11.9,21.8,13.9,5.6,1,8.6,2.4,16.5.2,11.6-3.3,19.3-12.5,24-23.2-3.7,1.5-6.3,2.3-8.2,2.7ZM173.8,117c-5.8-.2-14.8-2-19.8-5.7-4.6-3.3-6.2-8.6-9.2-16.2,3.4-.7,13.2-2.9,14.1-3.1,8.9-2.1,11.1-3.1,15.2-3.6,13.6-1.7,17,9.2,29.1,4-1.1,3.9-8.2,5.9-11.4,7.1,3.4.3,7.8,1.1,13.9-1.3-5.2,12.2-17.7,19.5-31.9,18.9Z"/>
                </g>
                <path class="st23" d="M143.3,93.6c.6,1.1,20.9,9.1,33.1-.2,1.7-1.3,2.9-2.4,4.9-4.3-5.9,4.6-12.8,11.5-34,4.7-.7-.2-2.7-.5-3.1-1l-.9.8Z"/>
                <path class="st23" d="M179.7,103.6c-2.7,1.5-9.3,1.9-13.4-.5-.5-.3-1.8-1.1-2.2-1.3l-.5,1c.4.2,1.9.9,2.3,1.1,4.7,2.3,11.4,1.3,13.9-.3Z"/>
                <path class="st23" d="M148.4,105.1c-1.2-1.4-2.7-4.9-4.3-5.8,4,1.8,3.9,3.6,4.3,5.8Z"/>
              </g>
              <g>
                <path class="st53" d="M148.2,97c11.1-.5,17.6,5.5,22.3,7.8,7.7,3.8,15.2,1.6,20-6,4.2-6.4,4.8-11.3,3.5-15.9-.8,2.6-3.5,6.3-6.8,6.8,2.4-2.8,2.5-3.4,3.2-6.6.5-2.4,4.3-6.4,7.3-7.8-5.5-3.2-12.8,1-15.8,3-11.4,7.6-19.2,8.8-22.6,6.4l-11.1,12.2Z"/>
                <path class="st23" d="M190.9,86.8c-.4.4-.7.7-1.1,1,.3-.5.5-1,.7-1.5.7-2.1.2-6.2,8.6-10.8-12.3-7.4-21.1,8.6-35,9.4-3,.2-3.9-.7-5.1-1.5-5.3,5.8-6,6.9-11.9,14.2.8.3,2,.6,3,.6,10.4.6,14.3,4.9,20,7.7,5.9,2.8,11.8,2.1,16.2-1.3,4.2-3.2,7.4-9.3,8.4-13.6,1-4.5-.2-7.8-.8-9.8-.6,1.7-1,3.6-3.1,5.7ZM171,104.1c-5.4-2.8-9.7-7.4-20.8-8.2-.3,0-.5.3-1,.6,6.7-6.5,9.4-9.2,10.3-10.3,5.5,2.6,14.4-1.9,19.6-5,2.7-1.6,10.6-7.9,16.7-5.7-2.9,1.8-5.9,4.9-6.6,8.1-.7,3.2-.7,3-4.2,7.4l2.2-.4c2.8-.5,5.2-2.9,6.5-5.5,1.2,10.3-9.1,25.8-22.7,19Z"/>
                <path class="st23" d="M152,94.5c11.9-2.5,18.4,11.6,33.5,1.6-12.2,12.9-21.8-1.7-33.3-.6l-.3-1Z"/>
              </g>
            </g>
            <g>
              <path class="st81" d="M86.6,172.9c-1.6,2.7-6,4-8.9,4-3.5,0-5.9-2.3-9-3.5-5.8-2.1-11.9-.9-15.1,5.1-1.8-10.7,8.5-28.3,21.6-24.3,3.1,1,6.5,3.2,9.3,4.9,4.3,2.6,9.3,5.8,9.7,11.5l-7.6,2.4Z"/>
              <path class="st23" d="M86.2,172.6c-2.4,3.1-8,4.1-11.8,2.4-2.4-1.1-14.5-10.9-20.3,2.2-1.5-11.6,9.2-28.1,23-21.7,2.6,1.2,10.4,5.9,13.2,8.5,1.9,1.9,3.2,4,3.4,6.7h1.1c-.2-3.1-1.6-5.5-3.7-7.5-2.8-2.7-10.9-7.3-13.5-8.5-14.6-6.4-28,11.5-24.2,24.9,8.4-9.2,16.7-4,20.4-2.5,5,2.1,11.4,0,13.5-3.8l-.9-.6Z"/>
              <path class="st80" d="M101.1,167.4c-8.9-6-4.8-3.5-14.9-16.6-10-13.1-23.8-17.6-31.8-7-4,5.2-1.1,17.8-7.5,19.8,0,0,7.7,5.6,15-2.7,7.3-8.3,14.2.5,14.2.5l24.9,6.1Z"/>
              <path class="st23" d="M101.4,166.9c-4-3-5.6-3.8-7.5-6.7-7.9-11.7-19.7-27.4-33.5-21.7-13.9,6.4-6.1,22.2-14.6,25.1,1.1.9,3,2.1,4.4,2.5,9.2,2.2,11.1-5.8,16.9-7.9,1.7-.7,5.5-.1,9,3.1-2.4-3.7-6.8-5.4-9.3-4.5-6.2,1.6-6.6,7.8-15.3,7.7-1.5-.1-2.1,0-3.9-.9,6.7-1.8,2.5-14.5,8-20.8,1.5-1.9,5.4-4.6,9.9-4.5,8.7.6,14.6,5.9,20.2,12.9,9.5,12.9,7,11.5,15.1,16.6l.6-1Z"/>
              <path class="st23" d="M90.1,161.7c-2.3-2.3-9.4-15.9-20.4-15.1,10.8-.3,17.6,13.5,19.6,15.9l.8-.8Z"/>
              <path class="st23" d="M85.6,162.7c-4-4.6-8.5-7.3-13.7-8.8,4.4,1.4,9.2,4.7,12.9,9.5l.8-.7Z"/>
              <path class="st23" d="M61.1,162.3c2.6-2.2,6.9-3.6,10.2-1.4-3.1-2.6-7.8-1.6-10.9.5l.6.9Z"/>
              <path class="st23" d="M60.4,167.1c1.9-2.6,12.4-3.6,17.5-1.2l.4-1.1c-9.1-6.2-16.9-1.5-17.9,2.2Z"/>
            </g>
          </g>
        </g>
        <g>
          <g>
            <path class="st83" d="M111.8,66.2c-4.7-17.4,3.7-32.9,13.9-36.9,15.6-6.1,27.3,1.7,33.4-10.7,6.6,24-5.4,38.4-24.3,46.8-11.5,5.1-23,.8-23,.8Z"/>
            <g>
              <path class="st23" d="M159.1,18.6h0c0,.5.2.4,0,0Z"/>
              <path class="st23" d="M159.4,18.1c-1.8,2.4-2.4,3.6-5.5,5.6-5.3,3.5-24.1.5-32.8,7.9-16.9,12.8-9.8,38.1-10.3,35.5,17,5.7,33.7-3.1,43.9-15.9,8-10.9,9-26.3,4.7-33.1ZM134.5,64.7c-7.6,2.9-15.1,3-21.9.6-3.9-14.4.7-26.8,8.9-33.3,7-6.3,20.7-4.2,28.3-5.4,4.8-1.1,7.5-2,9.6-6.8,4.2,23.5-4.7,35.5-24.8,44.8Z"/>
            </g>
            <path class="st23" d="M112.7,66.1c-.9-.8.5-7.7,1.2-9.7,3.4-8.9,11.6-14.7,22.1-13.6-14.6-2.6-24.8,9.6-25,20.3,0,1.3,0,3.2,1,3.9l.7-.9Z"/>
            <path class="st23" d="M113.7,54.5c.3-4.2,2.3-14.7,14.4-18.1-12.6,2.3-17.5,15-16.7,23.6,3-4.5,1.9-2.5,2.3-5.5Z"/>
          </g>
          <g>
            <path class="st82" d="M47.4,112.1c-3-1.8-8-.8-10.8.7-3.3,1.8-4.9,6.6-7.3,9.2-4.4,5-10.4,5.6-16.9,1.5,4.2,11.2,23.9,22.9,34.3,12.4,2.5-2.5,4.5-6.4,6.3-9.5,2.7-4.8,5.8-10.4,3-16l-8.6,1.6Z"/>
            <path class="st23" d="M28.7,135.5c3.7.8,8.7,0,10.6-3.9,0,4.5-6,7.6-10.2,7.1l-.4-3.2Z"/>
            <path class="st23" d="M47.2,112.7c-4-1.8-10,.2-12.7,3.7-1.8,2.5-7.4,18.9-20.2,9.4,5.9,9.6,23.9,21.3,33.7,8.1,1.9-2.5,6.8-11,8-14.9.8-2.8.9-5.5-.5-8.2l1.1-.5c1.5,3,1.4,6,.5,9.1-1.2,4-6.4,12.6-8.3,15.1-10.5,13.7-34.5,4.4-36.3-10.9,13.2,7.1,17.4-5.5,20.1-8.8,3.7-4.6,10.9-5.8,15.1-3.3l-.5,1.1Z"/>
            <path class="st77" d="M64.5,110.1c-5.2,10.3-2.7,5.9-5.1,23.6-2.4,17.8-13.1,29.2-26.8,23.1-6.8-3-10.9-16.6-18.3-15.3,0,0,4.4-9.3,16-5.1,11.6,4.2,13.5-7.7,13.5-7.7l20.7-18.6Z"/>
            <path class="st23" d="M65,110.4c-2.2,4.9-3.3,6.6-3.5,10.2-1.1,15.3-3.8,36.5-20.2,38.1-16.1.9-20.2-15.1-28.8-16.1.6-1.4,2.9-4.8,3.9-5.9,7.7-6.8,13.5.5,20.4-.5,2-.2,5.4-2.7,7-7.6-.2,4.8-3.5,8.6-6.5,9.1-6.9,1.6-10.8-4.7-19-.1-1.4.9-2.7,1.9-4,3.8,7.4-1.7,11.1,12.3,20,15.5,2.5,1.1,7.8,1.6,12-.7,8.1-5,10.8-13.2,12.3-22.8,2-17.2.3-14.7,5.3-23.8l1.1.6Z"/>
            <path class="st23" d="M58.2,117.7c-.8,2.8-.2,20.1-11.3,25,10.6-5.3,9.5-22,10.1-25.3l1.2.3Z"/>
            <path class="st23" d="M27.8,131.3c3.3,1.5,15.6-5.5,14.4-13.9,0,0,2.2,7.1-1.7,10.6-4.4,3.8-10.2,4.7-12.7,3.3Z"/>
          </g>
          <g>
            <path class="st84" d="M149.7,54.5c1.2-3.2,5.7-5.4,8.9-5.9,3.8-.6,6.8,1.5,10.4,2.1,6.7,1.2,13-1.2,15.4-8.2,4.1,11.3-3.7,32.2-18.6,30.3-3.6-.5-7.7-2.3-11.1-3.6-5.2-2.1-11.3-4.6-12.8-10.7l7.7-3.9Z"/>
            <path class="st23" d="M179.5,61.4c-2.4,2.8-6.8,5.1-10.8,3.3,2.9,3.5,9.6,2.3,12.6-.6l-1.8-2.8Z"/>
            <path class="st23" d="M150.2,54.8c2-3.8,7.9-5.9,12.3-4.7,3.1.8,18.1,10.3,21.9-4.9,1.7,11-4.7,30.9-21,26.6-3.1-.8-12.5-4.5-15.9-6.9-2.4-1.7-4.3-3.8-5-6.6l-1.2.3c.8,3.2,2.8,5.5,5.5,7.4,3.6,2.4,13.2,6,16.4,6.8,17.1,4.4,29.7-17.3,21.2-30.3-7.3,11.5-17.2,6.2-21.4,5.2-5.9-1.4-12.3,2-13.9,6.6l1.1.5Z"/>
            <path class="st79" d="M135.1,63.1c10.8,4.9,5.9,2.9,19.4,15.3,13.5,12.4,29.2,14.8,35.9,1.9,3.3-6.4-2.3-19.5,4.3-22.9,0,0-9.5-4.6-15.8,5.6-6.3,10.3-15.5,2.1-15.5,2.1l-28.3-2.1Z"/>
            <path class="st23" d="M170.9,81.8c.6-.5,1.1-.6,1.5-.7,4.4,0,8.2-3,8.7-7.3.2-1.4.1-6.6,3.6-8.6-3.4,3.4-.9,8.3-2.3,12.1-2.3,6.5-10.3,7.8-11.7,5.6l.2-1.1Z"/>
            <path class="st23" d="M134.9,63.7c4.9,2.5,6.9,3.1,9.4,5.9,10.8,11.2,27.4,26.5,41.3,17.9,13.2-8.9,5.2-24.4,11.3-30.2-1.4-.8-5.4-2.1-6.9-2.3-10.4-.7-10.2,8.5-16.2,11.9-1.7,1.1-5.9,1.1-10.4-1.7,3.3,3.6,8.4,4.6,11,3.2,6.5-2.9,5.4-10.1,14.8-11.5,1.7-.1,3.3-.2,5.6.6-6.9,3.1-.7,16.3-5.5,24.1-1.3,2.4-5,5.9-9.8,6.7-9.6,1-17-3.8-24.4-10.4-12.8-12.2-9.8-11.3-19.6-15.3l-.5,1.1Z"/>
            <path class="st23" d="M145,65.3c2.4,1.7,13.3,15.5,25.1,12.7-11.7,2.2-21.8-11.5-24.4-13.7l-.7,1Z"/>
            <path class="st23" d="M179.7,54.8c-1.1,5.3-18,7.8-22.5.6,0,0,2.9,6.9,8.2,7.2,5.8.3,12.9-.5,14.3-7.8Z"/>
          </g>
          <g>
            <g>
              <path class="st54" d="M170.9,53.9c-7.7,5.6-8.8,14.2-17.6,12.8-5.5-.8-13.9-4.8-24.8-.9l6.9-15.6c4.2,1.4,13.2-.1,16.5-13.7,2-7.9,13-7.9,15.7-7.9-3.1,1.8-4.2,3.1-4,4.8.2,2.7,3,1.6,2.2,6.8,0,0,7-2.2,9.4-5.3,3.2,10.5,0,15.7-4.3,18.9Z"/>
              <path class="st23" d="M153.2,67.2c-6.6-1-13.4-4.9-25.7-.5l7.6-17.3c5.7,1.9,13.3-1.3,16.3-13.1,1.9-7.6,10.9-8.3,18.4-8.3-2.8,1.6-7.8,4-4.7,7,.8.8,1.6,1.6,1.4,4.4,1.9-.7,6.5-2.5,8.3-4.8.9-1.1.6-1.2,1,.2,2.7,8.9,1.2,15.3-4.5,19.5-7.6,5.5-8.8,14.3-18.1,12.9ZM149.4,65.2c7.3,1.8,9.2,1.7,14.6-5,1.7-2.2,3.7-4.7,6.6-6.8,5.2-3.8,6.6-9.3,4.4-17.3-2.4,2.2-6.7,3.9-9.8,4.9.4-2.8.5-3.9-.9-5.2-1.9-1.8-1.9-4.4,1.3-6.6-9.4.5-12.4,4.2-13.1,7.4-3.1,12.6-11.4,15.6-16.7,14.2l-6.2,14c7.5-2.3,13.6-1.2,19.9.4Z"/>
            </g>
            <path class="st23" d="M130.1,64.2c11-6.2,22.2,5.8,33.8-8.8-10,15.1-22.2,5.1-33.2,9.7l-.6-.9Z"/>
          </g>
          <g>
            <g>
              <path class="st78" d="M102.4,56.7c-7.2-4.8-14.1-3.4-18.2-3.8-6.8-.6-9.9-5.5-10.4-12.5-1.2-4.5.4-7.5,3-10.9.2,2.9.9,4.9,2.9,6.6-.4-2.9,2.7-4.2,3.7-6.6.7-1.8,0-4.8-1.3-6.2,3.6.8,5.2,2.6,6.3,5.1,4.2,9.7,8.8,15.9,12.1,15.7l2,12.6Z"/>
              <path class="st23" d="M101.4,42.8c-1.3.1-2.4.7-5.8-3.5-5.9-7.4-6-12.7-9.8-15.2-1.9-1.2-3.6-1.5-5.9-2,1.7,1.7,2.5,2.3,2.9,4.5.7,3.5-2.3,4.7-3.7,6.8-.6-1.2-1.2-3.2-1.5-6.6-2.1,2.7-4,4.8-4.9,7.5-1,3.1,0,6.6,0,6.3,1.3,15,12.6,13.4,16.4,13.5,9.3.2,10.4,3.1,13.9,3.6-.4-4.7-.3-6.5-1.6-14.8ZM84.6,52c-6.7-.3-9.5-5.3-10-11.7-.1-1.6-1.7-4,1.9-9.2.3,2.3,1.1,3.7,2.1,4.8,0,.1,0,.3,0,.4,0,0,.2,0,.3-.1.6.6,1.2,1.1,1.9,1.6-.3-2-.6-2.8.8-4.5,1.8-2.2,3.3-3.1,2.8-6.8-.1-.6-.3-1.2-.5-1.8,1.4.7,2.5,1.6,3.3,3.1,1.3,2.5,6.4,16.1,12.4,17.4.6,3.6,1.7,8.1,2.2,9.8-.6-.4-2.7-1.2-2.8-1.3-5.4-2-10.1-1.4-14.2-1.6Z"/>
            </g>
            <path class="st39" d="M116.8,41.9c-1.1-2.2,0-5.5,1.3-7.3,1.6-2.1,4.2-2.6,6.3-4.1,4-2.7,5.9-7,3.3-11.7,8,3.6,15.4,17.8,6.9,24.2-2,1.5-5,2.6-7.4,3.6-3.7,1.5-8.1,3.3-12,1l1.8-5.8Z"/>
            <path class="st23" d="M117.2,41.8c-1-2.8.8-6.8,3.6-8.4,2.5-1.4,11.6-5,7-13.9,8.5,4.2,15.5,18.4,5.1,24.2-2,1.1-8.6,3.9-11.6,4.4-2.1.4-4.1.2-6-.9l-.4.7c2.1,1.2,4.4,1.4,6.7,1,3-.6,9.8-3.5,11.8-4.7,10.8-6.2,3.5-23-6.3-26.2,2.5,9.3-4.5,12.3-7.2,13.9-3.7,2.2-5,7.1-3.4,10.1l.8-.3Z"/>
            <path class="st41" d="M114.2,53.4c8-2.9,4.5-1.5,17.8-1.9,13.3-.4,22.5-7,18.9-16.7-1.8-4.8-11.6-8.6-10.1-13.5,0,0-7.2,2.4-4.8,10.6,2.3,8.2-6.6,8.7-6.6,8.7l-15.2,12.9Z"/>
            <path class="st23" d="M114.4,53.8c3.8-1.2,5.1-1.8,7.8-1.7,11.4.3,27.2-.1,29.6-11.3,1.9-11.5-12.5-13.8-10.7-20.3-1.1.3-3.3,1.5-4.2,2.1-5.6,4.8-.3,9-1.5,13.6-.3,1.4-2.4,3.5-6.1,4.2,3.6.2,6.6-1.8,7.2-3.8,1.7-4.6-2.7-7.7,1.2-13,.8-.9,1.2-1.3,2.7-2-1.8,5,8.7,8,10.5,14.2,2.1,5.8-2.2,14.1-19,15-12.9.2-10.9-.8-17.9,2l.4.8Z"/>
            <g>
              <path class="st37" d="M106.7,56.5c10-3.7,16.2-3.3,19.5-17.7,3.4-14.4-1.2-25.5-15.5-30.6,0,0,3.9,4.1,3.3,7.9,0,0-2-4.6-6.4-6.4,6,8.9-8.3,13.6-4.8,27.9,2.3,9.5,3.9,18.9,3.9,18.9Z"/>
              <path class="st23" d="M107.8,6.3c1,1.2,3,3.2,4.2,5.5-2.1-1.8-4.1-2.5-5.3-3.4,1.2,4.8,1.6,5.7-1.9,11.8-7,11.9-4.8,13,.7,36.5,0,.3.3.6.6.8.3,0,.7,0,1,0,.6,0,7.4-2.5,8-2.7,5.2-2,11.3-5.6,12.9-20.8,2.3-20.9-14.8-25.6-20.2-27.7ZM126,33.8c-2,17.6-9.4,18.3-18.5,21.3-.6-2.9-2-9.9-2.2-10.7-1.6-6.9-2.3-8.7-2.2-11.8.2-9.4,8.9-14.2,5.9-21.2,6.5,5.1,4.9,15.3,6.1,5,.2-2.1-.6-4.2-1.8-6,9.8,4.6,13.9,12.8,12.7,23.5Z"/>
            </g>
            <g>
              <path class="st40" d="M89.6,9.7c6.6,8.2-2.9,13-4,25.2-.7,7.9,7.2,18.7,21,21.6,0,0,7-5.9,7.3-15.1.6-15-5.3-27.7-24.4-31.7Z"/>
              <path class="st23" d="M115,35.7c-1.6-15-10.4-23.5-25.3-26.5l-1.6-.4c4.6,5.6,3.7,7.7.4,14.3-5.1,10.1-6.4,18.8,3.8,27.8,5.9,5.2,14,7.5,15.1,6.8.6-.3,3.4-3.3,5.1-6.6,3.3-6.2,2.7-11.1,2.4-15.4ZM112.8,41.4c-.6,5.3-2.4,9.6-6.7,13.7-.8-.4-1.4-.4-2.6-.9-8-2.3-17.9-10.6-16.7-20.2.7-7.9,6.7-14.3,5.8-19.3,0-1.4-.8-2.8-1.6-4,16.9,4.3,22.3,15.4,21.9,30.8Z"/>
            </g>
            <path class="st23" d="M101.5,55.2c-6.8-6.5-17.3.3-23-12.5,4.4,12.8,15.2,7.7,22.3,13.1l.6-.6Z"/>
            <path class="st23" d="M106.9,55.9c-.9.3-5.2-2.9-6.4-4.1-5.1-5.3-5.6-18.8-1.4-25.1-16.5,19.5,10.5,34.6,7.7,29.2Z"/>
            <path class="st23" d="M108.1,30.7c-1-1.3-4.9-3.5-6.5-4.7,3.6,4.6,11.2,11.8,4.9,27.6-3.7,11.2,10.2-11.5,1.6-23Z"/>
            <path class="st23" d="M107.1,56.6s.8.2,2.7-2.1c4-4.7,12.9-13.7,10.4-27.8,1.5,13.6-7.2,21.9-10,25.5-3.3,4.2-3.3,3.6-3.3,3.6l.2.9Z"/>
            <path class="st23" d="M122.9,49c2.5-.4,14.9,1.2,19.3-6-4.6,6.9-17,5-19.4,5.2l.2.9Z"/>
            <path class="st23" d="M124.2,45.8c4.9-.4,8.7-2,12-4.7-2.9,2.1-7.3,3.7-12.2,3.8v.9Z"/>
            <path class="st23" d="M135.4,30.7c.3,2.6-.7,5.9-3.6,7,3.1-.8,4.6-4.1,4.5-7h-.9Z"/>
            <path class="st23" d="M132.3,29.7c.9,2.4-3,7.7-6.8,9.8l.5.7c3.6-2.3,7.4-8,6.3-10.5Z"/>
            <path class="st23" d="M129.5,30.9c-.9,2-1.5,3.7-3,4.4l.5.8c1.6-1,2-2.8,2.5-5.1Z"/>
            <path class="st23" d="M115.6,29.5c1.1,2.1,1.3,7-.9,10.1-.2.3-.9,1.3-1.1,1.6l.8.4c.1-.3.8-1.4,1-1.7,2-3.4,1.4-8.5.2-10.5Z"/>
            <path class="st23" d="M96.9,56.1c-2.8-1.7-10.6-8.7-5.2-23.7-2.2,10.9,4.2,19.8,10.5,22.3-2.1-3.4-3.9,2.4-5.4,1.4Z"/>
            <path class="st23" d="M115.8,53.2c-1.2.8-4.1,1.9-4.9,3.1,1.5-2.7,2.5-2.7,4.9-3.1Z"/>
          </g>
          <path class="st72" d="M174.6,126.1c-2.7-4.8-1.9-15.6-1.3-22.2,1.4-13.2,0-22.7-9.3-33.7-8.7-1.1-39.9-2.8-58.1,1.8-13.8,3.5-18.4,10.5-30.6,17.4-3.7,2.1-7.2,4.3-10.3,6.7,1.3,3.9.7,8-.9,11.8-3.6,13.1-2.7,11.5-10.6,22.7,1.9,5.5,3.9,11.6,6,18,1.7,13.7,10.7,25.3,27.1,36.6h-.2c18.9,11.8,22.6,18.6,29.7,20.2,5.7,1.3,19.3,1.2,24.4-.4,4.3-1.4,8.2-5.4,9.4-10.8,2.5-1.9,4.9-4.4,7-7.4,15.2-21.2,30.5-37.9,17.7-60.7Z"/>
        </g>
        <g>
          <path class="st61" d="M103.2,167.3c4.8,6,6.7,17.5,20,21.1,10.9,3,19.9,1,28.4-6.9-3.1,17.7-26,22.2-44.5,9.1-5.9-4.4-3.7-19.1-3.9-23.3Z"/>
          <path class="st5" d="M108.4,177.4c-2.2-4.1-.2-8.3.7-7.5,11.7,11,32.8,16,41.2,9.3.7-.5,1.4.3.9,1-10.4,15.1-36.4,9.3-42.8-2.9Z"/>
          <path class="st35" d="M112,167.9c5,.3,10-.4,14.7-1.6,1-.3,12.5.2,24.4-4.3,1.9-.7,3.8,1.2,3,3-2.8,6.2-2.4,10.9-6.8,15.2-4.8,4.7-10.2,5.3-20.5,3.6-.4,0-.8-.2-1.1-.3-8.7-2.7-10.9-5-15.7-12.2-1-1.5.2-3.5,2.1-3.4Z"/>
          <path class="st36" d="M110.8,172.6c.3-.3-3-3.2-2.4-3.5-.1-.9,2.9.8,2.8.7,7.6-6.4,30-.8,31.7,13.1q-1.3.3-1.3.8c-1.8.8-4.8.8-6.7,1.1-7.5.2-13-1.2-18.8-5.6-2.4-2.6-5.1-6.1-5.3-6.5Z"/>
          <path class="st23" d="M105.8,163.6c0,0-.2,0-.3,0h.3Z"/>
          <path class="st38" d="M105.4,163.5c13,4.1,36.1,3.9,48.6-1.8.2,2.4-2.4,6.3-3.1,6.9-8.6,7.8-35.9,5-41.5.7-2-2.9-2-2.8-4-5.7Z"/>
          <path class="st23" d="M100.9,166.9c.5-4,3.7-7.5,7.7-8.6-1.5,1-3.1,3-2.1,4.5,16.9,2.8,40.8,5.5,51.9-5.9-5,7.7-3.3,18.4-9,24-3.2,3.1-10.9,5.9-18.5,5.4-13.9-.8-21.1-9.8-26.9-20.2-1.4.2-2-.4-3,.8ZM139.5,183.2c8.7-1.5,10.9-7.8,12.8-14.7,0,0,0,0,0,.1-7.8,8-24.4,7.9-41.4,2.4,6.8,10.1,15.9,14.4,28.7,12.2ZM109.6,169c6.4,4.1,33,6.1,40.9-.6.6-.5,1.9-2.9,2.3-5.1-.2,0-.4,0-.7,0-12.4,6-27.1,4.8-44.6,1.8.7,1.3,1.4,2.6,2.1,3.8Z"/>
          <path class="st6" d="M136.7,175.7c1.7.2,4.1,2.1,4.4,5.5,0,.7-7.5,3.1-16.4-.2-15.9-5.9.2-6.8,12-5.3Z"/>
        </g>
        <g>
          <path class="st65" d="M109.7,132.6c.3.2,7.2,6.3,7.2,6.3,0,0,4.3,0,8.9-4,4.5-3.9,7.1-27.1-4.4-33.2-11.5-6.1-25.1-5.8-30.9-1-5.8,4.8-14.6,13.9-5,31.7,0,0,9.7-8.1,24.3.2Z"/>
          <path class="st16" d="M109.7,132.6c.3.2,7.2,6.3,7.2,6.3,0,0,4.3,0,8.9-4,4.5-3.9,7.1-27.1-4.4-33.2-11.5-6.1-25.1-5.8-30.9-1-5.8,4.8-14.6,13.9-5,31.7,0,0,9.7-8.1,24.3.2Z"/>
          <path class="st64" d="M140.6,110.7c3-8.8,6.8-12.6,12.9-12.1,6.1.4,14.7,6.1,15.3,16.8.6,10.7,0,10.1,0,10.1,0,0-5.8,1.6-7,5.3,0,0-11.9,5-17.1-2.8-5.1-7.8-4.1-17.2-4.1-17.2Z"/>
          <path class="st12" d="M140.6,110.7c3-8.8,6.8-12.6,12.9-12.1,6.1.4,14.7,6.1,15.3,16.8.6,10.7,0,10.1,0,10.1,0,0-5.8,1.6-7,5.3,0,0-11.9,5-17.1-2.8-5.1-7.8-4.1-17.2-4.1-17.2Z"/>
          <path class="st14" d="M116.9,138.9s-5.5-7.7-15.4-9.3c-9.8-1.6-16.1,2.8-16.1,2.8,0,0,6.7,12.1,15.3,11.6,8.6-.5,16.1-5.1,16.1-5.1Z"/>
          <path class="st13" d="M125.8,200.3c8.9-.5,17.3-4.3,23.9-13.5,15.2-21.2,30.5-37.9,17.7-60.7-2.7-4.8-1.9-15.6-1.3-22.2,1.9-18.4-1.5-29.5-24.1-47.8-9.8-5.2-22.3-10.2-35.4-13.6.9-.4,1.7-.8,2.6-1.1,14.9,3.3,29.1,8.9,40.1,14.7,22.6,18.3,26.1,29.4,24.1,47.8-.7,6.6-1.5,17.4,1.3,22.2,12.8,22.8-2.4,39.5-17.7,60.7-6.5,9.1-14.9,13-23.9,13.5-3.3.2-14.2.4-7.2,0Z"/>
          <path class="st15" d="M125.8,200.3c8.9-.5,14.4-8,21-17.1,15.2-21.2,27.6-36.1,14.8-58.9-2.7-4.8-.7-16,0-22.6,1.9-18.4,3-27.3-19.6-45.6-9.8-5.2-22.3-10.2-35.4-13.6.9-.4,1.7-.8,2.6-1.1,14.9,3.3,29.1,8.9,40.1,14.7,22.6,18.3,26.1,29.4,24.1,47.8-.7,6.6-1.5,17.4,1.3,22.2,12.8,22.8-2.4,39.5-17.7,60.7-6.5,9.1-14.9,13-23.9,13.5-3.3.2-14.2.4-7.2,0Z"/>
          <path class="st66" d="M112,79.1c2.3,10.9,17.5,13.6,23.9,3.6,2.5-3.9,2.8-8.7,1.4-12.5-5.4.5-10.7,1.3-15.9,2.3,2,5.9-5.1,10.3-9.4,6.6Z"/>
          <path class="st67" d="M149.4,69.5c7.8,1.3,15.1,3.8,19.4,7.8-.7-2.5-1.4-4.9-2.1-6.7-5.7-.9-11.4-1.2-17.3-1.1Z"/>
          <path class="st68" d="M150.7,186.4c-.2,3.7-1.4,12-10.4,13.7-6.5,1.2-23.5,1.4-26.5-4-3.9-6.9-16.1-13.6-17.9-15.2-10-9-13.2-13.5-16.6-26.9-3.6-14.4,6.5-16.8,4.7-29.2-3.1-21.8,16.9-42.3,29.7-50.6-15.9,3.9-35.6,7.3-49.5,19.8,2.4,4.4,1.9,9.3,0,13.9-1,3.6-1.7,7.3-3.1,10.8,4,8.9,4.8,19.4,4.8,30.4,0,16.1,20.3,37.8,39.9,49.7,23,14,41.1,7.5,44.2-4.7.7-2.9,8.5-9,13.6-18.8-3.4,3.3-8.3,9.5-12.8,11.1Z"/>
          <path class="st32" d="M64.4,76.6c1.3.2-8.9,19.1-7.2,18.9l-11.4-.3v5.4c.2.2,5.2,19.5,15.7,30.4,10.4,10.9,9,6.3,9,6.3,0,0-5.3-15-3.4-24,5.9-5.6,7.7-13.5,5.4-20.6,5.5-1.1,16.3-5.6,18.3-12.4l-26.4-3.6Z"/>
          <g>
            <path class="st33" d="M41.6,89.6c-4.8-3.2-10.5-3.6-16.3-.2-6,3.6-8.3,16.8-15.4,16.3,0,0,5.2,8.3,15.6,3.1,10.4-5.2,13.6,5.8,13.6,5.8l2.5,1.8v-26.8Z"/>
            <path class="st23" d="M26.8,89.1c2.3-1.3,7.1-2.4,11.4-.6,4,1.9,3.4,2.9,3.4.4-2.4-1.4-5.1-2.2-8.4-2.2-16,.9-15,19-24.1,18.9.4,1.4,1.3,3.2,3.4,4.7,10.4,6.8,12.6-2.2,19.1-2,1.9,0,5.4,2,7.4,6.4-.8-4.5-4.3-7.7-7.2-7.9-6.7-.8-10,6.2-17.9,2.2-1.2-.6-2.5-1.5-3.8-2.9,7,.5,8.7-13,16.5-17Z"/>
          </g>
          <g>
            <path class="st34" d="M50.8,122.8c-2.1,2.6-6.8,3.2-9.9,2.7-3.6-.6-5.7-3.3-8.7-5-5.6-3.1-12.1-2.8-16.4,2.8,0-11.3,13.6-27.8,26.4-21.6,3.1,1.5,6.2,4.3,8.8,6.5,4,3.4,8.6,7.4,8,13.3l-8.2,1.2Z"/>
            <path class="st23" d="M50.4,122.4c-3,2.8-9,3-12.5.6-2.3-1.5-13.4-12.7-21.7-.1.5-12.2,14.7-28.3,27.9-19.6,3.8,2.5,16.2,12.5,15.6,18.4.3-3.1-.7-5.8-2.6-8.2-2.4-3.2-10.6-10.2-13.2-11.8-13.9-8.9-29.5,5.8-28.2,22.2,10.3-8.2,17.6-.9,21.1,1.3,4.8,3,11.7,1.8,14.6-1.8l-.8-.8Z"/>
          </g>
          <g>
            <path class="st25" d="M72.8,68.2c-1.5,13.6,2.4,22.6-15.7,31.8-18.1,9.2-40.8,10.1-47.3-10,0,0,5.9,6.5,12.2,1.8,0,0-7.8.8-10.6-5.8,0,0,8.7,3.2,13.8-2.2,5.3-4.8,7.4-13.3,20.9-13.7,13.5-.5,26.5-1.8,26.5-1.8Z"/>
            <path class="st23" d="M47.4,69.1c-15.2.4-17,9-22.5,14.2-3.7,3.8-9.6,3.7-14.4,1.7.5,1.4,1,2.7,2.2,4.2,1.4,1.7,3.4,2.8,5.6,3.3-1.7.4-3.5,0-5.4-.9-2.1-1.1-2.8-2.1-4.4-3.8,1.1,3.4,2.5,8.5,6.8,12.6,10.8,10.7,30.7,7.3,45.4-1.2,13.9-8.2,12.1-16.7,13-27.9.5-6.5,2.6-3.4-26.3-2ZM59.7,97.5c-16.4,9.6-40.2,13.4-48.4-5.4,3.3,2.5,7.5,3.2,11.5.5,8.1-5.5-3.7,3.6-10-5.7,15.7,4,14.9-10.8,26.6-14.8,4.8-1.7,4.7-.6,32.1-2.7-1.5,9.6,3,19.2-11.8,28.1Z"/>
          </g>
          <path class="st23" d="M72.8,67.6c-.2,1.1-17.6,15.4-33,9.9-2.1-.8-3.7-1.5-6.3-2.8,7.4,2.8,16.6,7.6,35.4-5.6.6-.4,2.5-1.3,2.8-2l1.1.5Z"/>
          <path class="st23" d="M43.5,93.8c4.9,0,13.4-5.4,17.2-11.8.4-.7,2.4-1.8,2.8-2.4,3,.5,3.2-.4,0,4.2-4.5,6.6-15.3,10.3-20.1,10Z"/>
          <path class="st23" d="M71.5,80.6c.7-1.8,1.1-5.7,2.4-7-3.4,2.9-2.7,4.7-2.4,7Z"/>
          <g>
            <g>
              <path class="st26" d="M68,77.7c-11.6.3-17.9,7-22.6,9.7-7.7,4.5-15.1,3.4-21.4-3.7-4.2-4.7-3.8-11.7-3.7-17.3,1,2.6,3,6.2,6.5,6.5-2.7-2.8-7.4-10.7-4.7-17.7,1.8,5,7.7,9.9,13,8.7,12.5,7.1,17.1,4.6,20.4,1.9l12.5,12Z"/>
              <path class="st23" d="M55.6,64.2c-4.2,3.5-7.6,5.5-20.2-1.5-1.2.2-3.8,1-7.8-1.6-4-2.7-5-5.9-5.6-7.2-.5,2-2.2,5.2-.7,10.9.5,2,1.3,3.9,2.3,5.6-.1-.1-.3-.2-.4-.4-1.9-2-2.6-4.2-3.5-6.5-.3,10.3-.9,16.4,5.3,22.4,5.4,5.4,12.7,6.7,20.4,2.4,5.7-3.2,9.5-8,20.4-9.4,1,0,2.3-.4,3.1-.8-6.7-7.2-7.6-8.3-13.5-13.9ZM65.7,76.7c-16,2.3-18.5,11.9-28.7,12.5-7.2.3-12.2-5.4-13.5-7.3-2.4-3.6-2.7-8.2-2.7-12.7,2.6,5.1,6.4,4.8,9.1,5.1l-2.2-2.2c-3-3-6.8-9.5-5.5-15.7,2.1,4.9,7.4,9.1,12.7,8.5,7.4,4.1,14.3,6.8,20.5,2.2,3.8,3.6,5.6,5.1,11.5,10.1-.6-.3-.8-.6-1.2-.5Z"/>
            </g>
            <path class="st23" d="M65.8,76.8c-12.6-1.8-18.3,13.3-34.8,4,15.2,10.4,22.6-3.2,34.6-2.9l.2-1.1Z"/>
          </g>
          <g>
            <path class="st55" d="M92.6,75.7c-2.9-17.8-17.1-28.7-28.1-28.4-16.9.4-24.3,12.1-35.1,3.1,4,24.5,21,33.1,41.8,33.5,12.7.3,21.4-8.1,21.4-8.1Z"/>
            <path class="st23" d="M91.5,75.3c-.5-1.3-.6-2.5-1.1-4.1-3-11.6-15.2-25.3-29.8-22.8-16.3,2.7-20.6,10.6-31.7,2.4l1.3-.7c3.5,20.4,15.9,30.2,35.9,32.3,9.1,1,17.5-.8,25.3-7.2.6-.5.2-.2.2,0ZM93.5,76.3c-.2.3-1.8,1.7-2.1,2-6.2,5.1-13,6.7-20.2,6.8-14.3-.8-26.6-4-35.3-15.6-5.9-8.4-6.8-17-7.6-21,2.3,1.7,5.2,4.1,8,4.3,10.7,1,24.7-13.2,41.6-2.2,13.3,8.6,16.5,24.7,15.6,25.8Z"/>
            <path class="st23" d="M91.7,76c.4-1.1-3.6-6.9-5.1-8.4-6.8-6.8-16.7-9-25.9-4,12.3-8,26.8-.7,31.4,9,.6,1.2,1.4,2.9.8,4l-1.1-.6Z"/>
            <path class="st23" d="M86,65.7c-2.1-3.8-8.2-12.6-20.7-11,12.5-2.7,22.2,7,25.1,15.2-4.5-2.9-3.2-2.2-4.4-4.2Z"/>
          </g>
          <g>
            <g>
              <path class="st24" d="M92.9,57.8c-4.4,4.2-10.6,3.3-15.8,2.5-3.4-.5-7.7-1-10.8-2.4-13.1-5.6-8.4-26.2.7-33.3-1.8,6.8,2.1,11.8,8.1,14,3.2,1.2,6.8,1,9.5,3.3,2.3,1.9,4.8,5.9,4.1,9l4.2,6.9Z"/>
              <path class="st23" d="M94,58c-.3.5-.7,1-1.2,1.4-4.6,3.7-10.3,3.1-16.3,2.2-6.3-.9-12.3-1.6-16.2-6.4-5.9-7.3-3.3-19.2.4-24.7,3-4.5,6.1-6.5,7.4-7.5l-.5,1.8c-1.7,6.7,2.4,11.6,8.9,13.3,2.3.6,5,.8,7.3,2,3.3,1.8,6.9,6.9,6,11.1v-.8c1.4,2.5,2.8,5.1,4.2,7.6ZM91.8,57.7c-1.5-2.1-2.8-4-4.1-6.1-.3-.5-.3-.3-.1-.8.5-2.3-1.1-5.4-3.1-7.4-2.3-2.3-5.3-2.4-8.4-3.3-6.5-2-11.9-7.4-9.6-15.5l1.1.7c-7.6,6-11.6,21.1-5.3,28.7,3.4,4.1,8.5,4.6,14.9,5.5,5.9.9,10.3,1.4,14.4-1.6,0,0,.2,0,.4,0Z"/>
            </g>
            <path class="st23" d="M61.1,42.2c.5,3.4,2.8,7.4,7,7.9-4.1.6-8.1-2.4-9-6.1l2.1-1.8Z"/>
            <g>
              <path class="st52" d="M96,64.9c-11.3-1.2-6.3-.5-23.6,3.1-17.3,3.6-31.3-2.1-29.9-15.7.7-6.8,12-14.6,8.4-20.5,0,0,10,.8,9.8,12.1-.3,11.3,11.4,9.1,11.4,9.1l23.8,11.9Z"/>
              <path class="st23" d="M97.1,65.2c-.5.2-1.3.6-2.2.6-1.7.1-5-1-9.6.2-11.8,3.1-22.8,5.8-33.1,2.3-5.7-2.1-10.1-6.4-10.5-12.3-.4-4.4.2-6.4,3-10.5,2.1-3.2,4.6-6,5.7-8.9,1.1-2.8.2-4-.6-5.7,1.5.2,3.3.3,5.7,1.5,4.4,2.3,6.2,6.6,6.2,11.3.2,2.4.2,4.9,2.8,6.8,2.2,1.6,5.3,1.7,7.9,1.2,9.8,4.9,12.1,6.3,24.8,13.4ZM94.9,64.6c-9.3-4.2-12.2-5-23.3-10.6h.8c-5.4.9-10.7-.9-12.2-6.3-.4-2.2-.3-1.4-.4-3.9.2-6.6-3.5-10.6-8.9-11.4l.6-1c3.6,5.8-5.9,13.1-7.9,19.4-.4,1.2-.3,2-.4,3.7.1,9.7,9.7,13.7,20.2,13.5,6,0,14.5-2.2,21.4-4.1,3.4-1,5.7-.7,9.3-.4.3,0,.2,0,.3,0,0,.1.1.6.5.9Z"/>
            </g>
            <path class="st23" d="M83.3,62c-2.8.2-18.1,9.3-26.8-1.8,8.2,7.4,23.5,1.2,26.8.7v1.1Z"/>
            <path class="st23" d="M64.7,40.1c-.4,3.3,6.4,9,12.1,10.5l-.5,1.1c-6.8.3-12.3-8.1-11.6-11.6Z"/>
          </g>
          <path class="st63" d="M124.9,145c1.4,3.7,6.1,3.6,10,4.1,6.9.7,12.1-2.4,17.1-6.7-.9,11.9-15.2,20.2-25.8,8.7-1.5-1.6-2.3-5.4-1.4-6.1Z"/>
          <path class="st72" d="M60.7,128.3c-6.7-7.8-6.2-8.6-8.3-14-.7-.1-1.4-.2-1.9-.2-21.7.4-13.6,28-.7,33.2,13.2,5.4,15.3-2.2,15.3-2.2-1.7-17.7-.5-12.4-4.3-16.9Z"/>
          <path class="st62" d="M62.1,138.7c.2,0-3.9-.3-5-3.3-1.3-3.6,1.9-5.3,2.1-4.9-.6-3.8-1.5-9.2-6.6-9.9-6-.8-8.7,5.9-7.8,10.1,1.3,5.6,4.4,13.4,14.2,13.4,0,0,.3-4.8,3-5.3Z"/>
          <path class="st23" d="M61.5,137.2h0Z"/>
          <path class="st23" d="M53.9,120.3c3.2,1.8,5.4,6.8,6,10.1,0,0-1.2.8-1.3.9-1.8,1.4-1.8,6.2,3.3,7.3.4,0-3,1.9-2.8,5.4-1.3-1.5-1.3-3.6-.4-5-5-2.6-4.7-7.3-.8-10.4-1.8-4.2-2.1-6.2-6.2-6.4-4-.2-6.6,4.6-6.8,8.5-1.6-6.6,3-13.7,9-10.3Z"/>
          <path class="st74" d="M89.2,130.3c-5.3-6.5-4.7-13.5,1.5-20,8.2-8.7,29.5-7.2,32.3,4.5,3,12.8-4.6,19.4-9.1,20.1-8.7-6.5-19.4-6.8-24.6-4.6Z"/>
          <path class="st23" d="M91.7,119.4c0-4.7,4-8.5,8.9-8.5,4.9,0,8.9,3.8,8.9,8.5,0,4.7-4,8.5-8.9,8.5-4.9,0-8.9-3.8-8.9-8.5Z"/>
          <path class="st7" d="M100.5,119c-4.3.3-6.5-5.2-7.6-.2-1,4.7,4,8.4,8.2,8.1,4.3-.3,8.2-4.4,7.2-9.1-1.2-5.4-3.6.9-7.9,1.2Z"/>
          <path class="st10" d="M92.8,112.4c-6.5,2.4-2.7,11.8,3.8,9.4,6.5-2.4,2.7-11.8-3.8-9.4Z"/>
          <path class="st23" d="M84.2,120.7c.2-5.4,4.1-11.1,8.9-14,12.5-7.1,27.3-2.5,30.7,6,.9,2,1.7,6.3,1,11-1.2,7-6.2,11.6-9.5,12.1.7,1,1.3,2.1,1.6,3.2-2.8-2.4-2.2-1.8-3.3-2.7-5-4.1-18.6-9.2-28.1-3.8.7-.8,1.6-1.5,2.6-2.1-2-.9-4-5.6-3.9-9.6ZM122.3,117.1c-.3-1.9-.7-9.3-13-11.2-13.8-2.3-26.2,9-22.1,19.7.6,1.6,1.6,3.1,1.8,3.2.2.2.3.3.4.5,1.1-1.2,13.1-3.5,24.6,4.5,4.9-1.2,9.7-7.6,8.3-16.6Z"/>
          <path class="st9" d="M117.6,58.1c-1.7,0-2.9-.3-3.6-.8,5.7-7.4,1.6,0,9.1-.2,10.4-.2,15.5,5.8,16.8,7.6,8.9,12.5-2.6,20-12.3,20.6,18.9-6.2,8.4-27.6-10-27.2Z"/>
          <path class="st8" d="M129.9,64.7s8.2,3.2,7.7,9.9c-.6,6.7-4.5,9.9-8.4,10.6-3.9.7-4.4-.8-2.1-4.2,2.3-3.3,2.4-12.5.9-14.1-1.5-1.7-3.4-4.6,2-2.2Z"/>
          <path class="st11" d="M128.9,62.4s8,4.9,7.4,11.6c-.6,6.7-4.2,8.1-8.1,8.8-3.9.7-4.4-.8-2.1-4.2,2.3-3.3,1.2-10.6-.4-12.3-1.5-1.7-2.2-6.4,3.2-4Z"/>
          <path class="st23" d="M180.3,136.6c-1.7-8.8-4.7-9.6-5.7-16.2-2.4-14.2,5.4-31-4.4-46.3l-3.1,2.2c9.1,14.3,4.1,25.5,4.6,39.8.5,12.5,4.3,10,6.2,20.8,3,15.2-7.7,29.2-17.1,41.9-2.7,3.6-5.5,8-9.5,11.7-.2-1.4-.6-2.9-.6-2.9,0,0-1.3,6.3-2.6,8.8-4,7.4-9.2,7.5-15.8,7.9-21.4,1.1-19.4-3.7-37.3-16.2-3.7-2.6-7-5.6-10.7-8.1-7-4.8-20.5-14-23.1-30.7,2.4-.8,3.9-2.4,4-4.6-4.5,4.7-13,2.5-16.9-.2-12.9-9-14.5-30.5,3.9-28.3,2,8.9,8.4,16.2,14.2,20,2.8,1.7,4.2,1.8,6.7,2.3-3.3-7.8-6.4-15.7-5.8-24.8,6.1-2.9,8.6-15.1,6.7-20.9,7.4-1.1,16.8-6.1,18.7-12.6l-3.3-.9c-2,7-16.4,12.8-21.6,13.1,1.1.4,2.5.6,4.1.6,3.2,12.4-4.4,12.8-9.2,14.5,2.6.4,5.4-.1,7.8-1.3-1.8,4.3-5.5,7.9-9.1,10.1,1.4.3,3,.2,4.6-.5-.2,6.5,1,13,3.2,19-4.4-2.8-12.9-12-17.9-24.8,0,1,.1,2,.3,3.1-26.7-1.3-14.8,39.5,7,37,3.9,22.9,26.3,35.2,35.6,41.6,15.7,10.9,15.2,14.7,27.7,15.6,5,.3,11.2.2,16.1-.5,7.3-1.1,12.1-6,13.3-11.6,3.2-2.5,5.9-5.7,8.7-9.6,11.8-16.5,24.2-31.8,20.5-48.9Z"/>
        </g>
        <g>
          <g>
            <path class="st42" d="M177.6,158.3c-3.7,2.1-8.9,2.4-13,1,5.4-.2,9.9-2.7,11.5-6.7.4-1-.8-1.9-1.7-1.3-2.9,1.7-7.2,1.3-9.6.8-4-.9-8.7-6.5-19.6-6.2l-16.3.8c-2-1.8-5-1.6-7.6-1.2-10,1.7-11.5,8.1-26.1,6.7-3.2-.3-7-1.6-9.5-3.7,1.9,4.7,5.4,8.8,9.8,11.2-4,1.7-8.6,1.8-12.6.4,4.3,5.8,12.4,8.1,18.9,5.5-1.2,2.9-4,5-7,5.3,5.2,2.4,13.9-.1,19.6-4-.7,2.6-2.6,4.9-5,6,5.1.1,10.1-1.2,14.5-3.8,0,1.9-.9,3.8-2.3,5.1,4.9-.7,9.5-3.7,12.4-7.9,3.1,5.8,9.5,9.4,15.8,9.1-1.6-2.6-2.7-5.5-3.3-8.5,5.7,6.2,15.6,7.6,22.6,3.1-2.3-.6-4.6-1.7-6.5-3.2,9.1.5,13.7-2.3,15-8.5Z"/>
            <path class="st23" d="M178.3,157.4s-3.7,2.1-7.1,1.6c5.1-2,6.2-6.5,5.9-10.1-1.5,3.1-8,2.8-11.5,2.2-2.9-.4-5.8-3.3-11.2-5.1-5.1-1.6-9.1-1.2-12.9-1-18.5,1-9.3.6-14.8-.5-1.9-.4-4.3-.2-6.2.3-8.2,1.5-11.6,7.2-21.4,7-8.7.3-12.2-3-14.2-4.5.1,1.6,1.3,7.3,7.7,12.4-5.2,1.3-8.4-.2-13.2-1.8,2.5,3.4,5,7.5,11.5,9.4,2.6.8,5.5,1,8.2.5-2.4,2.5-4.6,2.3-8.7,2.7,3.6,1.6,9.4,5.5,21.1-.4-1.4,1.7-2.4,1.9-7.1,4.1,5.5.1,10.8.6,17.8-2.7-.7,1.7-1.3,2-4.1,4.7,3.8-.6,10.3-.9,15.7-7.5,1.5,2.3,3.6,4.2,6,5.7,5.2,3.1,9.6,2.5,11.8,2.4-1.2-1.9-2.2-3.3-3.2-6.2,6.4,4.5,16.9,4.9,22.4-.7-.8-.2-2.3-.6-4.4-1.6,12.1-1.9,11.7-10.4,11.7-10.4ZM159,165.5c3,2.2,4.4,3.4,7.3,4.6-2.8,1.2-5.9,1.6-8.9,1.1-6.9-1-9.9-5-12.8-8.2.8,4.3,1.1,7.1,3.2,11-5.4-.4-10.3-3.8-12.8-8.4l-.9-1.7c-1.2,1.7-3.7,6.2-9.8,8.3.9-1.9.8-3.2.8-5.4-2.3,1.3-6,3.8-12.1,4.6,2.1-2.3,2.4-4.3,3.3-7.4-2.2,1.5-11.3,6.4-19.1,6.6-2.6,0,3.7-.2,5.6-4.7l1-2.3-2.5.8c-2.6,1.2-9.3,2-14.8-2.4,5.5.6,8.9-1.2,11.5-2.3-3.2-1.7-7.2-3.7-10.5-9.3,4.5,2.6,9.3,2.8,14.6,2.5,9.9-1,12.2-6.3,21.6-6.8,2.6-.2,3.8.5,4.9,1.5,16.2-.8,17.8-1,19.3-.8,8,.4,12.1,4.4,15.7,5.8,2.2.8,8,1.5,11.6-.6-1.5,4-6.1,5.9-10.4,6l-6.4.2c6.2,2,10.9,4.1,17.6,1.8-2.9,6.2-10.2,5.5-16.8,5.2Z"/>
          </g>
          <path class="st59" d="M160.7,155.1c-1.8.3-3.6-.7-4.8-1.9-2.1-2-6.8-2.7-9.7-6.5-3.2-.4,0-.8-17.3,0-.7-.6-1.5-1-2.3-1.2-4.6,2.9-8,8.9-13.8,9.4,5.2,1.2,12.1,2.8,17.9,0-1.7,4.1-6.1,6.5-10.4,8.1,3.9-.1,8.2-.4,10.7-3.2-1.3,5.6-4.7,10.7-9.5,14.3,4.9-.7,9.5-3.7,12.4-7.9,2.9,5.5,8.9,9.1,15,9.1.8-.3.8,0,.2-1.2-4.5-1.3-9.4-8.6-11.1-14.8,2.9,2.4,7,3.5,10.8,2.8-2.3-1.3-4.1-3.4-5-5.8,5.4,2.2,11.9,1.7,16.8-1.3Z"/>
          <path class="st58" d="M153.2,146.7c-2.2-2.4-2.8-.3-5.4-2.2l-25.1.4c-2.4.8-4.7,1.7-7,2.7.9,2.3,3,4.2,5.4,5,3.8,1.2,8-1.2,11.6.4,2.3,1,8.1,6.1,17.5,3.1,6.7-2.1,5.2-6.8,2.9-9.4Z"/>
          <path class="st60" d="M138.9,144c-1-1.2-2-2.6-2-4.1l-2.4,8.3c-1,1.2-1.1,2.8-1.1,4.4-.1,5-.7,17,8.3,21.4-4.3-5.2-6.4-11.9-5.9-18.5,1.9,2,4.5,3.4,7.3,3.9-1.8-1.7-3-3.9-3.4-6.3,1.1,1.1,2.8,1.4,4.3,1.6,3.4.4,7,.8,10.3-.1-6.8-.5-11.6-5.7-15.5-10.5Z"/>
          <path class="st57" d="M129.6,145.2c-1.6,3.3-3.9,6.5-7.3,8,3.3.3,6.9.6,9.9-.7-.3,3.2-2.1,6.3-4.9,8.2,1.9-.3,3.9-.8,5.1-2.2-.4,3.8-1.6,9.7-4.5,12.3,2.1-1.1,5-3.6,6.1-5.6,1.8-3.3,1.4-6.6,1.5-8.9.2-3.8-.8-6.6-1.2-10.4l-4.6-.7Z"/>
        </g>
        <g>
          <path class="st51" d="M139.6,113.7c.5-6.2,7-8.6,13.1-8.2,5,.4,6.5,1,9.4,3.2,1.9,1.5,5.4,10.8,3,17.8-2.8,1.5-2.6,2-4.1,4.6-3.4,1.3-7.6,1.3-10,1-9.2-1.2-12.5-5.9-11.4-18.5Z"/>
          <path class="st23" d="M145.6,118c0-3.8,3.2-6.9,7.2-6.9,4,0,7.2,3.1,7.2,6.9,0,3.8-3.2,6.9-7.2,6.9-4,0-7.2-3.1-7.2-6.9Z"/>
          <path class="st4" d="M152.7,117.7c-3.5.2-5.3-4.2-6.2-.2-.8,3.8,3.2,6.8,6.7,6.6,3.5-.2,6.7-3.6,5.9-7.4-.9-4.4-2.9.7-6.4,1Z"/>
          <path class="st3" d="M145.9,111.4c-5.9,2.2-2.4,10.8,3.5,8.6,5.9-2.2,2.4-10.8-3.5-8.6Z"/>
          <path class="st23" d="M166.4,125.7c.9-3.5.6-7.1-.2-10.5-1.2-4.7-2.6-7.7-7.1-9.6-2.5-1-12.4-3-17.1,1.4.6-1.6,1.3-2.9,2.5-4.7-8.5,3.5-7.5,23-.7,30.2,7,.9,11.3,2.6,15.9,0-.2,1.2-.1,2.4.4,3.6,2.9-8.1,5.8-9.3,9.9-9.7-1.2-.7-2.4-.8-3.6-.6ZM165.2,126c-2.6,1-3.8,2.9-4.9,4.2-4.9,1.8-12.7,1.3-16.4-1.9-2.3-3.7-5.4-14.9-1.1-18.9,2.4-2.4,6.6-3,10-2.8,3.7.2,5.5.4,7.9,2,4.1,2.8,5.7,12.3,4.6,17.3Z"/>
        </g>
        <g>
          <path class="st73" d="M164.2,86.1c-1.3-.3-1.9-.3-3.2-.4,5.1.8,10.4,4.6,13.4,7.6-.5-.2-.9-.4-1.7-.6,1.7.8,7.5,9.4,7.2,14.1-.3-.3-.7-.8-1.2-1.2,0,.7-1,5.8-3.1,9.7-1.5-5.2-6.9-11.2-12.9-14.8-7-4.1-21.3-4.7-19.9-12.7,1.1-6.2,12.2-8,21.5-1.8Z"/>
          <path class="st70" d="M146,88.9c5.7-1.4,11.8-.9,17.1,1.5-1.3-.2-2.7,0-4,.3,5.4,1.9,10,5.7,12.8,10.5-.9-1-2-1.7-3.2-2.2,3.2,3.4,5.6,7.5,6.7,12-.9-1.9-2-3.7-3.5-5.2,1.2,2,2.1,4.3,2.5,6.6-.8-2.2-2.4-4.1-4.4-5.5-10.5-12.4-22.5-8.3-26.6-15.6,0-1.8,1.4-3.6,3.2-4.3-.2.6-.4,1.2-.7,1.8Z"/>
          <path class="st23" d="M166.3,85.6l-2,.5c10.6,3,14.2,9.1,14.2,9.1,0,0-2.3-.6-4.3-1,4.1,3.7,7.5,6.8,6.6,14.8-2.7-2.7.1-.9-4.9,8.1-1.7-5.4-7.1-11.7-10.7-14.3-6.9-5.3-18.2-5.3-22.4-9.3-7.1-6.7,5.1-19.8,23.6-7.8ZM146.5,93.8c3.8,2.5,12.2,2,17.3,5,6.4,3.8,10,9,11.4,14.4,1.5-3.1,2.9-5.8,2.8-8.9.8.8,1.1,1.7,1.8,2.4-.5-6.8-7-12.2-9.7-14.3,0,0,3,.2,4.2.9-4-3.6-9.9-6.4-14.4-7.3,0,0,2.9-.4,3.5-.4-14.2-8.8-26.3,1.7-16.9,8.1Z"/>
        </g>
        <g>
          <g>
            <path class="st17" d="M160.2,103.8c-14.2,0-17.5,4-17.6,22,0,5.6,7.2,16.4,17.3,16.5,15.4.1,18.7-8.8,18.8-16.2.2-19.4-5.2-22.2-18.4-22.3Z"/>
            <path class="st23" d="M181,126.3c0-10.1-1.2-16.2-4.3-19.8-3.4-4.9-9.1-5.9-17.2-6-8.9,0-15,1.3-17.8,8.2-1.1,0-.3-.8-4.4,6.8l3-1.5c-.9,5.3-.6-2.3-.9,8l.2.3c0,.9,0,1.8,0,2.8,0,6.6,8.7,19.5,20.3,19.6,18.3.1,21.1-11.5,21.2-18.4ZM148.3,132.5c-1.9-2.6-2.8-5.2-2.8-6.5.2-17.1,1.9-19.4,14.7-19.3,12.3,0,15,1.6,14.9,18.6,0,9-5.1,13.2-15.9,13.1-5.3,0-9.1-3.7-10.8-5.9Z"/>
            <path class="st22" d="M179.1,125.3c.2-20.7-5.6-23.7-19.7-23.8-9.8,0-14.7,1.7-17,8.2h-.6s-.8,3.1-.8,3.1h.6c-.3,1.4-.5,2.9-.6,4.6-.5-.5-.3-.5-.5,4.1,0,0,.2.2.2.3,0,1,0,2.1,0,3.2,0,6,7.7,17.5,18.5,17.6,16.4.1,20-9.4,20.1-17.3ZM159.1,139.5c-9.5,0-15.5-10.8-15.5-14.5.2-17.6,2.4-20.5,15.8-20.4,12.7,0,16.9,1.9,16.8,20.6,0,9.7-5.7,14.3-17.1,14.2Z"/>
            <path class="st19" d="M141.4,126c0,6,7.7,17.5,18.5,17.6,16.4.1,20-9.4,20.1-17.3.2-20.7-5.6-23.7-19.7-23.8-15.1-.1-18.6,4.3-18.8,23.5ZM144.3,126c.2-17.6,2.4-20.5,15.8-20.4,12.7,0,16.9,2,16.7,20.6,0,9.7-5.7,14.3-17.1,14.2-9.5,0-15.5-10.8-15.5-14.4Z"/>
          </g>
          <g>
            <path class="st50" d="M95,86.7c1.5-.2,2.1,0,3.6,0-5.6,0-11.9,3.5-15.6,6.3.6-.2,1.1-.3,1.9-.4-1.9.6-9.5,9.1-9.9,14.2.3-.3.9-.7,1.5-1.1-.1.8,0,6.4,1.8,10.9,2.4-5.4,9.3-11.1,16.3-14,8.2-3.4,23.7-2.1,23.4-10.9-.3-6.8-11.9-10.4-22.9-5Z"/>
            <path class="st56" d="M114.3,92.3c-5.9-2.3-12.6-2.6-18.7-.8,1.5,0,3,.3,4.3.9-6.1,1.3-11.6,4.7-15.5,9.4,1.1-.9,2.4-1.6,3.8-1.9-4,3.2-7.2,7.3-9.1,12,1.2-1.9,2.8-3.6,4.5-5.1-1.7,2-2.9,4.3-3.7,6.8,1.2-2.3,3.2-4,5.6-5.3,13.2-11.8,25.6-5.7,31.1-13,.2-2-.9-4.1-2.8-5.1.1.7.3,1.4.4,2Z"/>
            <path class="st23" d="M92.9,85.9l2.1.8c-11.9,1.7-16.7,7.7-16.7,7.7,0,0,2.6-.3,4.8-.4-5,3.4-9.2,6.3-9.4,15,3.3-2.6,0-.9,4.1,9.4,2.7-5.6,9.5-11.6,13.8-13.9,8.3-4.7,20.4-3.1,25.6-6.8,8.7-6.2-2.4-22.1-24.2-11.8ZM113,97.5c-4.5,2.1-13.5.4-19.4,2.9-7.5,3.2-12.1,8.3-14.5,13.9-1.1-3.6-2.2-6.7-1.7-9.9-1,.8-1.4,1.7-2.3,2.4,1.6-7.3,9.5-12.2,12.7-14.1,0,0-3.3-.3-4.7.4,4.9-3.3,11.7-5.5,16.6-5.8,0,0-3.1-.9-3.7-.9,16.7-7.4,28.1,5.6,17,11.2Z"/>
          </g>
          <path class="st23" d="M56.8,103.4c-4.9-.5-13.9,1.4-16,11.4l-.9,2.6c1.4-.6,5.4-1.4,7-1.7,3.7-.8,29.8,3.3,35.3,5.6,4.7-13.5,1.2-10.3,6.1-13.1-4.7-.8-26.7-4.4-31.5-4.8Z"/>
          <path class="st21" d="M56.7,104.5c-4.8-.4-12.8,1.4-14.7,10.5l9.3-2.7s25.8,3.2,30.4,5.2c0,0,.8-7.2,3.4-8.7,0,0-23.5-3.8-28.3-4.3Z"/>
          <path class="st20" d="M56.7,105.6c-4.8-.4-11.6,1.1-14.8,9.8,3.8-1.6,5.9-2.4,11.5-1.7,6.3.8,24.5,3.3,28.2,4.9,0,0,.8-7.2,3.4-8.7,0,0-23.5-3.8-28.3-4.3Z"/>
        </g>
        <g>
          <g>
            <path class="st72" d="M145.3,101.7c-8.9,6.5-9.3,23.7,2.8,31.7,3,2,6.2,1.2,8.3,5,2.5,4.6-1.1,9.6-7.4,12-9.6,3.6-15.2-2-20-2.7-3.7-.5-10.9.7-8.4-8.4,1-3.6,7.1-3.2,9-2.2,1.9,1.1,2.2.3-.7-3.3-1.7-2.1.2-12-.3-15.9-3.4-25.6-25.5-14.8.9-19.8,9.7-1.8,15.9,3.5,15.9,3.5Z"/>
            <path class="st1" d="M145.3,101.7c-11,8.2-4.1,25.7,0,29.5,3.3,3,8.6,3.1,10.7,7,2.5,4.6,0,9.5-6.4,11.9-9.6,3.6-14.4-2-19.2-2.7-3.7-.5-11.4,3.6-9.4-7.8.6-3.7,6.5-3.5,8.4-2.4,1.9,1.1,2.2.3-.7-3.3-1.7-2.1.9-10.6.4-14.5-1.5-11.4-5.6-18.9-10.4-19.5,12.6,1.1,12.3-2.6,26.5,1.7Z"/>
            <path class="st0" d="M145.3,101.7c-5.3,5.1-6.4,12.2-4.2,21.5,2.9,12.3,12.8,10.5,13.8,16,.9,5.1,1.1,9.1-5.2,11.5-9.6,3.6-14.9-2.3-19.7-3-3.7-.5-10.9,4.4-9.6-7.5.4-3.5,6.7-4.2,9.1-2.9,1.9,1.1,2.2.3-.7-3.3-1.7-2.1,1.1-9.6.6-13.4-1.5-11.4-6.9-18.3-11.8-18.9,15,1,10.7-2,27.7.1Z"/>
            <path class="st69" d="M155.5,144.1c-1.2,2.6-4.5,4.4-12.2,3.3-5.7-.8-10.1-7.3-10.1-7.3,0,0,1.7,5-2.2,5.2-3.9.2-8.4,0-10.6-2.9,0,0,0,2.9,2.1,4.7,1.5,1.2,6.6-.2,9.3.7,1,.3,1.9-.6,5.5,1.7,3.2,1.9,3.5,1.3,7.5,1.4,2.9,0,10.1-.7,10.7-6.8Z"/>
            <path class="st2" d="M137.2,135.8c-2.4.9-3.1,2.9-1.6,4.6,1.9,2.3,9.7,5.2,13.6,4.2,2.6-.7,4.4-3.9,2.6-6.2-2.5-3.1-11.5-3.8-14.5-2.7Z"/>
          </g>
          <path class="st23" d="M157.2,140.1c-1.1-6.4-6.8-6.2-9.4-7.8-3.9-2.4-12.5-14.3-2.5-30.6-11,9.4-6.2,25.7.1,30.7-2.7-.1-5.4.4-7.7,1.3,5.6-.2,9.4.1,14.3,2.1,5.3,2.2,3.4,17.4-10.3,14.3-3.9-.9-7.9-3.8-13.5-3.3-2.6.2-5.8-.6-6.5-3-1.3-4.5,3.5-8.6,7.6-6.7-2.3-2.8-8.8-.6-10.6,3.9-.8,2-.4,4.4,1.5,6.1,2.9,2.6,9.8,1.5,11.5,2q2.3.6,4,1.5c10.3,4.9,23.1-.7,21.3-10.6Z"/>
        </g>
        <g>
          <path class="st23" d="M86.3,71.5c-.7,0-2,1.1-2.6,1.5-2.3,1.4-7.3,2.3-11.1,1.8,4.1.2,10-2.3,11.6-3.5.7-.5,2.2.2,2.2.2Z"/>
          <g>
            <g>
              <path class="st31" d="M136.7,85c8.2-4.8,13.3-6.6,24.6-6.9,6.7-.2,13.9-5.5,14-18.4,0-6.5-3.9-10.5-7.9-15,1.1,2.8,1.9,7-.7,9.5.4-6.4-6-7.6-5.2-17.8-3.6,2.9-3.6,6.4-4.9,10-5,13.9-13.5,20.8-18.1,20.7l-1.6,17.8Z"/>
              <path class="st23" d="M176.9,59.4c-.4-6.2-4.3-10.3-9.1-15-5.3-5.2,1.6,1.6-.5,7.3-.9-3.6-4-6.2-4.8-10.7-.5-2.3-.3-4.2-.1-6.3-1.6,1.3-3.5,2.6-4.7,5.4-.5,1.2-4.6,18-15.1,24.5-2.7,1.7-4,1.5-5.2,1.4-.8,8.3-.8,10.2-1.2,19.9,3.9-.7,6.8-4.9,16.9-6.5,7.7-1.3,11.5.7,17.1-4,4.6-3.6,7.2-7.8,6.7-16.1ZM161.6,77.3c-10.3.2-15.5,1.3-23.6,5.7-.2,0-.5.2-.5.4-.7,3,1-5.5,1.9-15.2,6.7-1.1,14.6-10.9,18.3-22.8.8-2.6,1.2-4.8,2.8-6.9,0,6.2,2.6,8.5,4.2,11.6,1.3,2.3,1,3.9.8,6.4,1.7-1.7,4.5-3.7,3.1-9.3,3.2,3.7,5.9,7.2,5.8,12.2,0,9.3-4.3,17.6-13,17.9Z"/>
            </g>
            <path class="st28" d="M115.2,65.5c1.4-3.2-.4-7.7-2.4-10.1-2.4-2.9-6.1-3.3-9.2-5.2-5.8-3.4-8.8-9.3-5.6-16.1-10.9,5.7-19.9,26.2-7.4,34.5,3,2,7.3,3.3,10.7,4.5,5.3,1.8,11.6,3.9,16.9.3l-3-7.9Z"/>
            <path class="st23" d="M114.6,65.4c1.2-4-1.7-9.5-5.8-11.4-2.5-1.2-19.8-4.6-11.9-18.4-11.5,6.6-19,26.6-3.9,33.9,2.9,1.4,12.4,4.7,16.6,5.2,3,.3,5.8,0,8.3-1.7l.7,1c-2.8,1.9-6,2.3-9.2,1.9-4.3-.5-17.1-5.2-20-6.6-15.7-7.8-3.5-31.5,8.7-35-2.6,13.3,8.3,15.7,12.2,17.7,5.3,2.8,7.7,9.5,5.7,13.9l-1.2-.3Z"/>
            <path class="st30" d="M120,81.4c-11.4-3.3-6.4-1.7-25.1-1.2-18.6.5-32-7.9-27.9-21.8,2-6.9,15.4-12.9,12.9-19.7,0,0,10.3,2.7,7.7,14.4-2.5,11.7,10,11.6,10,11.6l22.4,16.7Z"/>
            <path class="st23" d="M119.7,81.9c-5.4-1.3-7.3-2.1-11.1-1.7-15.9,1.3-38.6,1.8-42.9-13.5-3.7-15.9,15.9-20.6,12.8-29.5,1.6.3,4.2,2,5.5,2.8,8.2,6.3,2.5,12.9,4.6,19.2.5,1.9,3.6,4.7,8.9,5.4-5,.6-9.4-2-10.4-4.7-2.8-6.3,3.1-11-2.9-18.1-1.2-1.2-2.4-2.3-4.5-3.2,2.9,6.8-10.9,12.5-12.8,21.4-.7,2.6-.5,7.6,2.6,11.3,6.4,6.9,15.3,8.2,25.3,8.1,18.1-.8,15.2-2,25.3,1.3l-.5,1.2Z"/>
            <path class="st27" d="M130.8,85.2c-14.3-4.4-22.9-3.2-28.9-23.1-6-19.9,3.3-31.3,18.9-44,0,0-5.1,6.1-4,11.3,0,0-.1-6.6,5.8-9.5,0,0-4.9,5.1-.8,11.4,4,6.3,15,13.7,12.6,27.2-2.4,13.5-3.7,26.7-3.7,26.7Z"/>
            <path class="st23" d="M135.3,49.7c-3.4-14-19.7-20-11.8-30.9-1.2.6-2.9.5-4.9,3.6.2-.3,1.9-4.1,2.2-4.4-15,6.6-21.6,17.7-22.9,31.2-.3,10.3,4.4,21.7,10.9,28.4,4.5,4.2,16,5,21.7,8.8,4.2-29.3,6.3-30.8,4.8-36.7ZM130.2,84.3c-12.1-4.8-24.2-3.6-28.6-27.5-3.7-16.9,6.6-27.7,18.1-37.9-2.4,2.4-4.6,7.2-2.9,10.4.7-3.7,1.4-6.4,5.8-9.5-1.1,1.1-1.9,2.5-2.5,4-3.2,9.1,10.2,14.9,12.9,26.5,1.7,7-1.3,10.4-2.9,34Z"/>
            <path class="st29" d="M130.8,85.2c19-5.2,29.1-20.9,27.4-31.9-2.6-16.9-17.5-22.4-9-34.5-26.2,7.2-36.2,22.5-33.1,44.6,1.8,12.8,14.6,21.8,14.6,21.8Z"/>
            <path class="st23" d="M149.9,19.2l1.3-1.7c-22.5,5.4-37,17.7-36.6,39.6.2,7.2.9,15.3,11.1,25.2,1.3,1.3,2.7,2.5,4.4,3.7,1.5,1.1,18.6-5.5,26-19,14.5-26.3-17.8-32.6-6.2-47.8ZM154.6,66.3c-7.4,13.3-21.6,17-23.5,17.7-1.1-.8-2.4-2-3.8-3.3-9.6-9.4-10.4-17.1-10.7-23.7-.7-20.6,11.5-30.8,30.8-36.9-3.6,7.1.3,12.3,3.7,17.8,6.2,10,9,18.3,3.4,28.3Z"/>
            <path class="st23" d="M147.6,75.6c-.5.7-2.9,2.8-3.5,3.4,8.9-2.9,20.8-3.4,24.7-17.7-4.6,12.6-13.3,12.5-21.1,14.3Z"/>
            <path class="st23" d="M130.3,84.3c1.3.3,7-4.5,8.5-6.2,6.6-7.8,7.6-18.1,1-26.6,10.3,11.4,4.2,26.9-5.8,32.7-1.2.7-3,1.8-4.2,1.3l.5-1.1Z"/>
            <path class="st23" d="M131.4,85.3c-1.2-.5-12.8-20.8-3.6-34.9,1.3-1.9,2.4-3.4,4.3-5.7-4.6,6.8-11.7,14.8-1.5,36.4.3.7.9,2.8,1.5,3.2l-.8,1Z"/>
            <path class="st23" d="M130.1,85.3s-1.1.3-4-2.7c-6-6.3-19.3-18.1-17.1-38-.9,19.2,12.1,30.2,16.3,34.8,1.5,1.7,3.6,4.2,4.7,4.7,0,0,.3,0,.3,0v1.2Z"/>
            <path class="st23" d="M109.5,77.1c-3-.3-22.7,1.9-29.5-7.9,7.1,9.2,24.2,5.5,27.6,5.6l1.9,2.3Z"/>
            <path class="st23" d="M105.4,72.4c-6.8-.2-12.5-2.9-17.4-6.3,4.3,2.7,10.5,4.5,17.4,4.3v2Z"/>
            <path class="st23" d="M88.3,51.4c-.2,3.6,1.5,8.2,5.7,9.5-5.6-.3-7.9-4.8-6.9-9.4h1.3Z"/>
            <path class="st23" d="M92.5,49.8c-1.1,3.4,4.8,10.5,10.4,13.1l-.7,1.1c-5.2-2.9-11.1-10.6-9.7-14.2Z"/>
            <path class="st23" d="M96.4,51.2c1.4,2.8,2.4,5.1,4.6,5.9l-.6,1.1c-2.4-1.3-3-3.8-4-7Z"/>
            <path class="st23" d="M140.7,77.2c3.8-2.6,12.7-9.9,9.4-22.3,4.6,12.3-4.8,23.3-13.3,27.2,2.6-4.9,2-3.5,4-5Z"/>
            <path class="st23" d="M117.7,81.2c1.7,1.1,5.9,2.3,7.1,3.9-2.4-4-4.5-3.7-7.1-3.9Z"/>
          </g>
        </g>
        <g>
          <path class="st18" d="M86.8,126.8c.2-19,4.6-21.3,19.2-21.2,14.8.1,17.6,3,17.4,21.4,0,3.8-7,14.8-17.7,14.7-12.8,0-19-5-18.9-15Z"/>
          <g>
            <path class="st23" d="M140.8,116c-2.5-1.8-4.6-1.3,0-1.3.3-.8.5-2.3.7-2.9-1.5-.2-.3-2.3.7-3.1-4.4-.2-14.7.5-16.8.5-2.2-4.4-5.5-6.8-9.6-8-4.7-1.3-18.3-2.3-25.8,1.9-5.8,3.3-8.1,10.3-8.5,16.8-.1,1.1-.5,7.6,0,10.6,1.5,11.2,12.1,16.1,24,16.2,11.8,0,20.8-10,22.4-17.7.3-1.1.2-.8,0-4.7,5.4-4.8,10.1-5.1,15.8,1.7,0-2.5-2-5.7-2-6.9-1.4-.4-1.6-2.2-.9-3.2ZM120.8,128.1c-.4,2.1-2.5,5-5.5,7.7-4.1,3.8-8,4.2-12.8,3.9-16.4-.9-14.9-10.2-14.5-18.8,1.1-13.2,5.8-14.2,20.4-13.6,9.8.5,11.2,2.6,12,9.3.2,2.3.6,10.5.4,11.6ZM127,114.6c1.4,0,2.8,0,4.2.1-4.7.9-3.8,2.3-4.2-.1Z"/>
            <path class="st23" d="M84.8,138.2h0c.1.2,0,.1,0,0Z"/>
          </g>
          <path class="st45" d="M125.8,118.2c-.1-1.7-.3-3.3-.6-4.8l15.9-.6.8-3.1-17.6.4c-2.9-7.8-10.2-8.7-19-8.8-16.2-.1-22.4,3.2-22.6,24.3,0,8.3,3.7,18.1,22.2,18.3,12.1,0,21-11.7,21.1-17.9,0-1.3,0-2.5,0-3.6,1.7-1.9,9.4-7.1,14.5-.9l.2-4.3c-3.9-3.4-9.4-3.3-14.9,1ZM104.9,140.8c-12.8,0-19-5-18.9-15,.2-19,4.5-21.3,19.2-21.2,14.8.1,17.6,3,17.4,21.4,0,3.8-7,14.8-17.7,14.8Z"/>
          <path class="st44" d="M83.4,126.7c0,8.3,3.7,18.1,22.2,18.3,12.1,0,21-11.8,21.1-17.9.2-19.2-3.1-24.5-20.7-24.7-16.2-.1-22.4,3.1-22.6,24.3ZM86.8,126.8c.2-19,4.6-21.3,19.2-21.2,14.8.1,17.6,3,17.4,21.4,0,3.8-7,14.8-17.7,14.7-12.8,0-19-5-18.9-15Z"/>
          <path class="st43" d="M123.7,121.9l2.7,1.9s4.5-4.3,8.7-4.2c2.4,0,4.5.5,6.5,3.3l2.4-1.8c-5.3-7.6-14.5-6.6-20.2.8Z"/>
          <polygon class="st46" points="123.9 111.2 123.8 114.4 144 113.8 144 110.7 123.9 111.2"/>
        </g>
      </g>
    </g>
  </g>
</svg>