<?xml version="1.0" encoding="UTF-8"?>
<svg id="albert_logo" data-name="albert logo" xmlns="http://www.w3.org/2000/svg" viewBox="0 0 612 792">
  <defs>
    <style>
      .cls-1 {
        opacity: .5;
      }

      .cls-1, .cls-2 {
        fill: #939598;
      }

      .cls-3 {
        fill: #1d8da7;
      }
    </style>
  </defs>
  <g>
    <path class="cls-3" d="M260.69,392.09l-.04.08h-.1s-.08-.02-.12-.02c-.04,0-.09-.01-.13-.01-1.9,0-3.53,1.32-3.96,3.22.06,1.22.59,2.83,2.73,3.62.18.07.32.19.4.36.08.16.08.35.01.52-.14.34-.57.51-.93.38-1.73-.64-2.89-1.8-3.39-3.38-.82.62-1.31,1.59-1.31,2.63,0,.89.34,1.73.97,2.35l.08.08-.06.09c-.42.6-.64,1.3-.64,2.03,0,.69.21,1.35.61,1.95.43-.92,1.31-2.01,3.14-2.45.18-.05.38-.02.54.07.16.09.28.24.33.41.1.36-.13.73-.52.82-1.72.41-2.28,1.6-2.45,2.52.04,1.72.98,3.29,2.49,4.12.11-1.35,1.21-2.16,2.28-2.37,1.25-.25,2.42.26,2.96,1.31.15.28.22.57.22.85,0,.37-.32.67-.72.67s-.72-.3-.72-.67c0-.08-.03-.16-.08-.26-.24-.46-.67-.62-1.08-.62-.1,0-.21.01-.3.03-.55.11-1.12.53-1.15,1.22-.02.4.04.8.18,1.23.64,1.46,2.07,2.42,3.63,2.42.56,0,1.12-.13,1.66-.4v-24.14c-.51-.31-1.08-.48-1.66-.48-1.21,0-2.32.7-2.88,1.82ZM259.42,396.29c-.19-.04-.35-.14-.45-.29-.1-.15-.14-.33-.1-.51.04-.18.15-.33.31-.42.16-.1.35-.13.54-.09,0,0,.81.17,1.63.74.55-.71.35-1.64.34-1.68-.04-.17-.01-.35.09-.51.1-.15.26-.26.45-.3.38-.09.77.14.86.5,0,.02.42,1.69-.74,2.95.02.03.05.06.07.09.69,1.02.86,2.3.51,3.79-.07.31-.37.53-.7.53-.05,0-.11,0-.16-.02-.18-.04-.34-.14-.45-.3-.1-.15-.14-.33-.09-.51.27-1.13.16-2.07-.32-2.77-.65-.95-1.78-1.21-1.8-1.21ZM260.28,407.13s-.08,0-.12,0c-.35,0-.65-.24-.71-.56-.06-.37.2-.71.59-.77.2-.03,1.98-.4,1.88-2.36-.02-.37.29-.69.68-.71.18-.02.36.04.51.16.15.12.24.3.25.48.14,2.57-1.95,3.58-3.07,3.76Z"/>
    <path class="cls-3" d="M277.06,401.92l.08-.08c.62-.63.97-1.46.97-2.35,0-1.04-.48-2.01-1.31-2.63-.5,1.58-1.66,2.74-3.39,3.38-.36.13-.79-.04-.93-.38-.07-.17-.07-.35.01-.52.08-.16.22-.29.4-.36,2.14-.79,2.67-2.4,2.73-3.62-.43-1.9-2.06-3.22-3.96-3.22-.05,0-.09,0-.13.01-.04,0-.08.01-.12.01h-.1s-.04-.08-.04-.08c-.56-1.12-1.67-1.82-2.88-1.82-.58,0-1.16.16-1.66.48v24.14c.55.26,1.11.4,1.66.4,1.57,0,3-.95,3.63-2.42.14-.43.19-.83.18-1.23-.03-.69-.6-1.11-1.15-1.22-.1-.02-.2-.03-.3-.03-.4,0-.84.16-1.08.62-.05.1-.08.19-.08.26,0,.37-.32.67-.72.67s-.72-.3-.72-.67c0-.28.07-.57.22-.85.55-1.05,1.71-1.57,2.96-1.31,1.07.21,2.17,1.03,2.28,2.37,1.5-.83,2.45-2.39,2.49-4.12-.17-.92-.72-2.1-2.45-2.52-.38-.09-.61-.46-.52-.82.05-.17.16-.32.33-.41.16-.09.36-.12.54-.07,1.83.44,2.72,1.53,3.14,2.45.4-.59.61-1.26.61-1.95,0-.73-.22-1.43-.64-2.03l-.06-.09ZM268.85,393.73c.09-.36.48-.59.86-.5.19.04.35.15.45.3.1.15.13.33.09.51,0,.04-.21.96.34,1.68.82-.57,1.62-.74,1.63-.74.19-.04.38,0,.54.09.16.1.27.25.31.42.04.18,0,.36-.1.51-.1.15-.26.26-.45.29-.01,0-1.15.26-1.8,1.21-.48.71-.59,1.64-.32,2.77.04.18,0,.36-.09.51-.1.15-.26.26-.45.3-.05.01-.1.02-.16.02-.33,0-.63-.22-.7-.53-.36-1.5-.18-2.77.51-3.79.02-.03.04-.06.07-.09-1.15-1.26-.74-2.94-.74-2.95ZM271.79,407.14s-.08,0-.12,0c-1.12-.18-3.2-1.19-3.07-3.76,0-.18.1-.36.25-.48.14-.12.33-.18.51-.16.39.02.7.34.68.71-.1,1.97,1.67,2.33,1.88,2.36.39.06.65.41.59.77-.06.33-.36.56-.71.56Z"/>
  </g>
  <g>
    <path class="cls-3" d="M217.44,423.6v-6.54h-.15c-2.96,5.02-8.29,7.6-14.29,7.6-12.32,0-22.35-9.28-22.35-21.44,0-13.46,9.66-22.88,22.05-22.88,6.16,0,11.33,2.28,14.6,7.07h.15v-5.93h7.91v42.12h-7.91ZM217.59,402.61c0-8.21-5.93-15.05-14.67-15.05-7.91,0-14.37,6.77-14.37,15.05s6.46,14.83,14.37,14.83,14.67-6.84,14.67-14.83Z"/>
    <path class="cls-3" d="M230.82,423.6v-56.26h7.91v56.26h-7.91Z"/>
    <path class="cls-2" d="M243.81,423.6v-56.26h7.91v20h.15c3.42-4.64,8.74-6.99,14.45-6.99,11.94,0,21.82,10.04,21.82,22.2s-9.28,22.12-21.14,22.12c-6.08,0-11.71-2.43-15.21-7.15h-.15v6.08h-7.83ZM280.23,402.54c0-7.98-6.31-14.98-14.44-14.98s-14.29,6.84-14.29,14.83,6.31,15.05,14.37,15.05,14.37-6.69,14.37-14.9Z"/>
    <path class="cls-2" d="M299.71,405.96c1.82,6.99,7.37,11.48,13.84,11.48,4.94,0,9.58-2.59,12.01-7.07h7.91c-3.27,8.67-11.18,14.29-20.22,14.29-11.86,0-21.44-10.49-21.44-21.74,0-13.3,10.04-22.58,21.21-22.58,12.39,0,21.82,9.58,21.82,21.67,0,1.29,0,2.51-.23,3.95h-34.9ZM326.93,399.88c-.61-7.15-6.92-12.32-13.68-12.32s-12.92,5.09-13.53,12.32h27.22Z"/>
    <path class="cls-2" d="M339.83,423.6v-42.12h7.37v4.94c1.9-2.81,5.32-4.64,10.87-4.94v7.17c-6.84.23-10.34,4.41-10.34,11.48v23.46h-7.91Z"/>
    <path class="cls-2" d="M366.75,423.6v-34.9h-5.7v-7.22h5.7v-14.14h7.91v14.14h6.92v7.22h-6.92v34.9h-7.91Z"/>
  </g>
  <g>
    <path class="cls-2" d="M387.61,385.75l3.67-4.34c.46.16.94.27,1.45.27,2.47,0,4.48-2.01,4.48-4.48s-2.01-4.45-4.48-4.45-4.45,1.98-4.45,4.45c0,.78.21,1.5.56,2.12l-3.22,3.78h-6.81v3.22h7.56c.48,0,.91-.21,1.23-.56Z"/>
    <path class="cls-2" d="M397.2,389.26c-1.9,0-3.51,1.18-4.15,2.84l-20.79.03v3.22l20.79-.03c.64,1.66,2.25,2.87,4.15,2.87,2.47,0,4.45-2.01,4.45-4.48s-1.98-4.45-4.45-4.45Z"/>
    <path class="cls-2" d="M392.73,405.77c-.51,0-.99.11-1.45.27l-3.67-4.34c-.32-.35-.75-.56-1.23-.56h-14.12v3.22h13.36l3.22,3.75c-.35.64-.56,1.37-.56,2.12,0,2.47,1.98,4.48,4.45,4.48s4.48-2.01,4.48-4.48-2.01-4.45-4.48-4.45Z"/>
  </g>
  <g>
    <path class="cls-2" d="M203,415.91c3.89,0,7.36-1.79,9.71-4.6-.71-2-4.63-3.31-4.63-3.31l-5.09,6.32-5.09-6.32s-3.9,1.3-4.63,3.29c2.35,2.82,5.83,4.61,9.72,4.61Z"/>
    <path class="cls-1" d="M203,415.91c3.89,0,7.36-1.79,9.71-4.6-.71-2-4.63-3.31-4.63-3.31l-5.09,6.32-5.09-6.32s-3.9,1.3-4.63,3.29c2.35,2.82,5.83,4.61,9.72,4.61Z"/>
    <path class="cls-2" d="M209.32,399.79l-.11.71c.08.01.11.04.14.09.17.36-.12,1.35-.4,1.84-.19.36-.46.33-.51.32l-.37-.09-.07.37s-.82,4.5-3.7,4.54c-.27,0-2.37,0-2.64,0-2.87-.04-3.68-4.49-3.69-4.54l-.07-.37-.37.09s-.3.07-.51-.32c-.27-.5-.57-1.49-.4-1.84.02-.05.05-.08.13-.09l-.11-.71c-.3.05-.54.21-.67.48-.37.75.19,2.1.41,2.51.25.46.63.64.93.68.25,1.09,1.31,4.79,4.33,4.83.23,0,2.44,0,2.66,0,3.01-.04,4.08-3.73,4.33-4.83.3-.04.68-.22.93-.68.22-.41.78-1.75.41-2.5-.13-.27-.36-.44-.67-.48Z"/>
    <path class="cls-1" d="M209.32,399.79l-.11.71c.08.01.11.04.14.09.17.36-.12,1.35-.4,1.84-.19.36-.46.33-.51.32l-.37-.09-.07.37s-.82,4.5-3.7,4.54c-.27,0-2.37,0-2.64,0-2.87-.04-3.68-4.49-3.69-4.54l-.07-.37-.37.09s-.3.07-.51-.32c-.27-.5-.57-1.49-.4-1.84.02-.05.05-.08.13-.09l-.11-.71c-.3.05-.54.21-.67.48-.37.75.19,2.1.41,2.51.25.46.63.64.93.68.25,1.09,1.31,4.79,4.33,4.83.23,0,2.44,0,2.66,0,3.01-.04,4.08-3.73,4.33-4.83.3-.04.68-.22.93-.68.22-.41.78-1.75.41-2.5-.13-.27-.36-.44-.67-.48Z"/>
    <path class="cls-2" d="M204.72,404.12c-.44-.07-1.1-.08-1.72-.07h0c-.62-.01-1.28,0-1.72.07-1.03.16-1.38,1.74-1.38,1.74.82.03,2.31-.18,3.1-.18s2.28.21,3.1.18c0,0-.35-1.58-1.38-1.74Z"/>
    <path class="cls-1" d="M204.72,404.12c-.44-.07-1.1-.08-1.72-.07h0c-.62-.01-1.28,0-1.72.07-1.03.16-1.38,1.74-1.38,1.74.82.03,2.31-.18,3.1-.18s2.28.21,3.1.18c0,0-.35-1.58-1.38-1.74Z"/>
    <path class="cls-2" d="M193.42,397.47s1.33-.44,2.56.29c0,0-1.38.84-1.29,3.13,0,0,1.88-3.15,3.42-1.81,0,0-1.71-4.07,4.89-4.07s4.89,4.07,4.89,4.07c1.54-1.34,3.42,1.81,3.42,1.81.09-2.28-1.29-3.13-1.29-3.13,1.23-.74,2.55-.29,2.55-.29-.88-1.8-2.2-2.48-2.2-2.48,1.28-.61,2.8-.17,2.8-.17-4.06-5.81-9.59-4.14-10.19-3.78-.6-.36-6.12-2.03-10.19,3.78,0,0,1.53-.44,2.81.17,0,0-1.32.68-2.2,2.48Z"/>
    <path class="cls-1" d="M193.42,397.47s1.33-.44,2.56.29c0,0-1.38.84-1.29,3.13,0,0,1.88-3.15,3.42-1.81,0,0-1.71-4.07,4.89-4.07s4.89,4.07,4.89,4.07c1.54-1.34,3.42,1.81,3.42,1.81.09-2.28-1.29-3.13-1.29-3.13,1.23-.74,2.55-.29,2.55-.29-.88-1.8-2.2-2.48-2.2-2.48,1.28-.61,2.8-.17,2.8-.17-4.06-5.81-9.59-4.14-10.19-3.78-.6-.36-6.12-2.03-10.19,3.78,0,0,1.53-.44,2.81.17,0,0-1.32.68-2.2,2.48Z"/>
    <path class="cls-2" d="M207.67,400.64c0-1.18-.96-2.15-2.15-2.15-.99,0-1.82.68-2.07,1.6h-.92c-.24-.92-1.07-1.6-2.07-1.6-1.18,0-2.15.96-2.15,2.15s.96,2.14,2.15,2.14c1.02,0,1.88-.72,2.09-1.68h.87c.21.96,1.07,1.68,2.09,1.68,1.18,0,2.15-.96,2.15-2.14ZM200.47,402.34c-.94,0-1.7-.76-1.7-1.7s.76-1.7,1.7-1.7,1.7.76,1.7,1.7-.76,1.7-1.7,1.7ZM205.52,402.34c-.94,0-1.7-.76-1.7-1.7s.76-1.7,1.7-1.7,1.7.76,1.7,1.7-.76,1.7-1.7,1.7Z"/>
    <path class="cls-1" d="M207.67,400.64c0-1.18-.96-2.15-2.15-2.15-.99,0-1.82.68-2.07,1.6h-.92c-.24-.92-1.07-1.6-2.07-1.6-1.18,0-2.15.96-2.15,2.15s.96,2.14,2.15,2.14c1.02,0,1.88-.72,2.09-1.68h.87c.21.96,1.07,1.68,2.09,1.68,1.18,0,2.15-.96,2.15-2.14ZM200.47,402.34c-.94,0-1.7-.76-1.7-1.7s.76-1.7,1.7-1.7,1.7.76,1.7,1.7-.76,1.7-1.7,1.7ZM205.52,402.34c-.94,0-1.7-.76-1.7-1.7s.76-1.7,1.7-1.7,1.7.76,1.7,1.7-.76,1.7-1.7,1.7Z"/>
    <path class="cls-2" d="M204.42,408.68l-1.4.61s-.02,0-.02,0c0,0-.02,0-.02,0l-1.4-.61c-.54-.13-.97.11-.97.53v1.37c0,.42.44.66.97.53l1.4-.61s.02,0,.02,0c0,0,.02,0,.02,0l1.4.61c.54.13.97-.11.97-.53v-1.37c0-.42-.44-.66-.97-.53Z"/>
    <path class="cls-1" d="M204.42,408.68l-1.4.61s-.02,0-.02,0c0,0-.02,0-.02,0l-1.4-.61c-.54-.13-.97.11-.97.53v1.37c0,.42.44.66.97.53l1.4-.61s.02,0,.02,0c0,0,.02,0,.02,0l1.4.61c.54.13.97-.11.97-.53v-1.37c0-.42-.44-.66-.97-.53Z"/>
  </g>
</svg>