<?xml version="1.0" encoding="UTF-8"?><svg id="Layer_1" xmlns="http://www.w3.org/2000/svg" xmlns:xlink="http://www.w3.org/1999/xlink" viewBox="0 0 360 72"><defs><style>.cls-1{filter:url(#drop-shadow-1);}.cls-2{fill:#182851;}.cls-3{fill:#6d6e71;}.cls-4{fill:#1d8da7;}</style><filter id="drop-shadow-1" x="3.12" y="3.84" width="356.64" height="72.96" filterUnits="userSpaceOnUse"><feOffset dx="1.44" dy="1.44"/><feGaussianBlur result="blur" stdDeviation="1.44"/><feFlood flood-color="#231f20" flood-opacity=".4"/><feComposite in2="blur" operator="in"/><feComposite in="SourceGraphic"/></filter></defs><g class="cls-1"><path class="cls-2" d="M32.4,40.55l-2.56-6.46h-12.73l-2.42,6.46H6.06L19.86,7.66h7.71l13.66,32.9h-8.83ZM23.57,16.44l-4.18,11.29h8.27l-4.09-11.29Z"/><path class="cls-2" d="M56.84,41.43c-8.64,0-14.03-5.39-14.03-13.29V7.66h7.9v19.84c0,3.53,1.72,6.78,6.18,6.78s6.18-3.25,6.18-6.78V7.66h7.95v20.49c0,7.9-5.58,13.29-14.17,13.29Z"/><path class="cls-2" d="M89.68,40.55h-12.27V7.66h11.89c9.34,0,18.82,3.9,18.82,16.35,0,11.57-9.39,16.54-18.45,16.54ZM89.13,14.44h-3.95v19.24h3.76c5.67,0,10.92-2.32,10.92-9.66s-5.25-9.57-10.73-9.57Z"/><path class="cls-2" d="M113.38,40.55V7.66h7.99v32.9h-7.99Z"/><path class="cls-2" d="M142.23,14.44v26.11h-7.95V14.44h-9.29v-6.78h26.53v6.78h-9.29Z"/><path class="cls-2" d="M165.64,40.55V7.66h7.99v32.9h-7.99Z"/><path class="cls-2" d="M201.33,40.55l-13.24-21.51h-.14l.19,21.51h-7.71V7.66h9.06l13.2,21.47h.14l-.19-21.47h7.71v32.9h-9.01Z"/><path class="cls-2" d="M234.5,16.21c-1.35-1.72-3.81-2.83-5.85-2.83s-4.6.7-4.6,3.3c0,2.18,1.95,2.88,5.06,3.86,4.46,1.44,10.22,3.35,10.22,9.9,0,7.57-6.09,10.97-12.59,10.97-4.69,0-9.43-1.72-12.31-4.74l5.2-5.3c1.58,2,4.51,3.48,7.11,3.48,2.42,0,4.55-.93,4.55-3.58,0-2.51-2.51-3.3-6.83-4.69-4.18-1.35-8.41-3.48-8.41-9.43,0-7.29,6.6-10.31,12.73-10.31,3.72,0,7.9,1.39,10.78,4.04l-5.06,5.34Z"/><path class="cls-2" d="M244.58,40.55V7.66h7.99v32.9h-7.99Z"/><path class="cls-2" d="M275.89,41.39c-10.5,0-18.07-6.97-18.07-17.33s7.81-17.28,17.84-17.28c5.16,0,9.94,1.72,12.68,4.37l-5.02,5.71c-1.53-1.77-4.18-3.07-7.39-3.07-5.58,0-9.66,4.37-9.66,10.27s3.58,10.36,10.04,10.36c1.86,0,3.58-.28,4.97-.88v-5.99h-6.27v-6.41h13.57v17.42c-3.21,1.67-7.62,2.83-12.68,2.83Z"/><path class="cls-2" d="M315.85,40.55v-13.75h-12.82v13.75h-7.95V7.66h7.95v12.45h12.82V7.66h7.94v32.9h-7.94Z"/><path class="cls-2" d="M344.65,14.44v26.11h-7.94V14.44h-9.29v-6.78h26.53v6.78h-9.29Z"/><path class="cls-3" d="M8.23,65.54h-1.83l10.15-15.76h1.56l3.27,15.76h-1.67l-.85-4.14h-8.06l-2.58,4.14ZM11.73,59.93h6.9l-1.65-8.37-5.25,8.37Z"/><path class="cls-3" d="M27.03,55.12c-.07.56-.16,1.34-.25,1.78h.04c.8-1.27,2.16-2.05,3.56-2.05,2.25,0,3.58,1.22,3.58,3.18,0,.36-.04.71-.11,1.11l-1.14,6.39h-1.49l1.02-5.77c.09-.47.13-.91.13-1.31,0-1.45-.6-2.36-2.32-2.36-1.6,0-3.34,1.31-3.83,4.1l-.94,5.34h-1.49l1.42-8.13c.11-.56.27-1.58.33-2.29h1.45Z"/><path class="cls-3" d="M44.5,58.17c0-1.49-.91-2.07-2.45-2.07-1.22,0-2.47.58-3.25,1.25l-.67-1c1-.89,2.63-1.49,4.07-1.49,1.98,0,3.7.89,3.7,3.01,0,.27-.04.82-.09,1.11l-.76,4.23c-.13.8-.24,1.76-.24,2.34h-1.34c0-.51.04-1.14.13-1.69h-.04c-1.2,1.38-2.29,1.89-4.03,1.89-1.4,0-3.16-.67-3.16-2.69,0-3.34,4.19-3.9,8.01-3.9.09-.51.11-.76.11-.98ZM43.84,60.29c-2.65,0-5.9.4-5.9,2.58,0,1.31,1.07,1.67,2.14,1.67,2.14,0,3.63-1.54,3.96-3.38l.16-.87h-.36Z"/><path class="cls-3" d="M50.12,65.54h-1.51l2.96-16.83h1.51l-2.96,16.83Z"/><path class="cls-3" d="M57.57,63.9h.04l5.08-8.77h1.67l-7.88,13.11c-.98,1.6-1.91,2.65-3.45,2.65-.45,0-.85-.04-1.27-.13l.22-1.38c.31.11.67.18.98.18.94,0,1.58-.67,2.27-1.85l1.29-2.18-2.18-10.4h1.56l1.67,8.77Z"/><path class="cls-3" d="M73.49,56.19l-7.66,8.04h6.46l-.22,1.31h-8.46l.18-1.07,7.64-8.08h-5.9l.25-1.27h7.93l-.2,1.07Z"/><path class="cls-3" d="M76.28,60.74c-.02.18-.04.33-.04.49,0,1.94,1.47,3.32,3.36,3.32,1.63,0,2.87-.85,3.61-1.83l.94.89c-1.2,1.45-2.87,2.2-4.67,2.2-2.67,0-4.74-1.67-4.74-4.59,0-3.38,2.65-6.37,6.03-6.37,2.83,0,4.34,1.67,4.34,4.07,0,.36-.04,1.2-.2,1.8h-8.62ZM83.56,59.62c.02-.22.04-.56.04-.78,0-1.6-1-2.74-2.89-2.74-2.2,0-3.78,1.63-4.23,3.52h7.08Z"/><path class="cls-4" d="M95.78,64.73v-10.57l9.15,5.28-9.15,5.28Z"/><path class="cls-3" d="M115.21,65.54h-1.58l2.78-15.76h1.58l-2.78,15.76Z"/><path class="cls-3" d="M122.54,55.12c-.07.56-.16,1.34-.25,1.78h.04c.8-1.27,2.16-2.05,3.56-2.05,2.25,0,3.58,1.22,3.58,3.18,0,.36-.04.71-.11,1.11l-1.14,6.39h-1.49l1.02-5.77c.09-.47.13-.91.13-1.31,0-1.45-.6-2.36-2.32-2.36-1.6,0-3.34,1.31-3.83,4.1l-.94,5.34h-1.49l1.42-8.13c.11-.56.27-1.58.33-2.29h1.45Z"/><path class="cls-3" d="M138.13,56.37h-2.83l-1.09,6.1c-.04.27-.07.51-.07.71,0,.98.53,1.22,1.29,1.22.42,0,1-.13,1.27-.33l-.18,1.29c-.38.2-1.02.31-1.71.31-.98,0-2.23-.4-2.23-2.07,0-.22.02-.45.07-.71l1.16-6.52h-2.16l.25-1.25h2.11l.51-2.94h1.49l-.51,2.94h2.87l-.24,1.25Z"/><path class="cls-3" d="M140.53,60.74c-.02.18-.04.33-.04.49,0,1.94,1.47,3.32,3.36,3.32,1.63,0,2.87-.85,3.61-1.83l.94.89c-1.2,1.45-2.87,2.2-4.67,2.2-2.67,0-4.74-1.67-4.74-4.59,0-3.38,2.65-6.37,6.03-6.37,2.83,0,4.34,1.67,4.34,4.07,0,.36-.04,1.2-.2,1.8h-8.62ZM147.81,59.62c.02-.22.04-.56.04-.78,0-1.6-1-2.74-2.89-2.74-2.2,0-3.78,1.63-4.23,3.52h7.08Z"/><path class="cls-3" d="M153.38,55.12h1.42c-.07.56-.16,1.34-.24,1.78h.04c.76-1.2,2-2.05,3.47-2.05.38,0,.67.02.98.11l-.36,1.42c-.16-.07-.62-.13-1.02-.13-1.6,0-3.14,1.16-3.63,3.94l-.94,5.34h-1.49l1.42-8.13c.11-.56.27-1.58.33-2.29Z"/><path class="cls-3" d="M166.34,54.86c2.83,0,4.7,1.83,4.7,4.5,0,3.56-2.6,6.46-6.12,6.46-1.49,0-2.96-.71-3.63-2.03h-.04l-1.27,7.1h-1.49l2.8-15.76h1.49l-.31,1.69h.04c.67-1.05,2.16-1.96,3.83-1.96ZM166.2,56.1c-2.6,0-4.63,2.32-4.63,5.08,0,1.96,1.31,3.36,3.36,3.36,2.74,0,4.54-2.27,4.54-5.1,0-1.87-1.16-3.34-3.27-3.34Z"/><path class="cls-3" d="M175.11,55.12h1.42c-.07.56-.16,1.34-.24,1.78h.04c.76-1.2,2-2.05,3.47-2.05.38,0,.67.02.98.11l-.36,1.42c-.16-.07-.62-.13-1.02-.13-1.6,0-3.14,1.16-3.63,3.94l-.94,5.34h-1.49l1.42-8.13c.11-.56.27-1.58.33-2.29Z"/><path class="cls-3" d="M182.34,60.74c-.02.18-.04.33-.04.49,0,1.94,1.47,3.32,3.36,3.32,1.63,0,2.87-.85,3.61-1.83l.94.89c-1.2,1.45-2.87,2.2-4.67,2.2-2.67,0-4.74-1.67-4.74-4.59,0-3.38,2.65-6.37,6.03-6.37,2.83,0,4.34,1.67,4.34,4.07,0,.36-.04,1.2-.2,1.8h-8.62ZM189.62,59.62c.02-.22.04-.56.04-.78,0-1.6-1-2.74-2.89-2.74-2.2,0-3.78,1.63-4.23,3.52h7.08Z"/><path class="cls-3" d="M199.38,56.37h-2.83l-1.09,6.1c-.04.27-.07.51-.07.71,0,.98.53,1.22,1.29,1.22.42,0,1-.13,1.27-.33l-.18,1.29c-.38.2-1.02.31-1.71.31-.98,0-2.23-.4-2.23-2.07,0-.22.02-.45.07-.71l1.16-6.52h-2.16l.25-1.25h2.11l.51-2.94h1.49l-.51,2.94h2.87l-.24,1.25Z"/><path class="cls-4" d="M208.69,64.73v-10.57l9.15,5.28-9.15,5.28Z"/><path class="cls-3" d="M228.12,65.54h-1.58l2.78-15.76h4.25c2.78,0,4.88,1.2,4.88,3.76,0,2.92-2.05,4.23-4.63,4.5l3.47,7.5h-1.8l-3.29-7.37h-2.78l-1.29,7.37ZM229.65,56.84h2.8c2.12,0,4.39-.51,4.39-3.12,0-1.71-1.34-2.58-3.52-2.58h-2.67l-1,5.7Z"/><path class="cls-3" d="M241.03,60.74c-.02.18-.04.33-.04.49,0,1.94,1.47,3.32,3.36,3.32,1.62,0,2.87-.85,3.61-1.83l.93.89c-1.2,1.45-2.87,2.2-4.67,2.2-2.67,0-4.74-1.67-4.74-4.59,0-3.38,2.65-6.37,6.03-6.37,2.83,0,4.34,1.67,4.34,4.07,0,.36-.04,1.2-.2,1.8h-8.62ZM248.31,59.62c.02-.22.04-.56.04-.78,0-1.6-1-2.74-2.89-2.74-2.2,0-3.79,1.63-4.23,3.52h7.08Z"/><path class="cls-3" d="M260.8,57.48c-.36-.8-1.29-1.38-2.43-1.38-2.69,0-4.61,2.32-4.61,5.1,0,1.91,1.25,3.34,3.36,3.34,1.31,0,2.34-.56,3.07-1.36l.96.82c-1.07,1.09-2.38,1.8-4.14,1.8-2.96,0-4.83-1.8-4.83-4.47,0-3.56,2.47-6.48,6.23-6.48,1.54,0,3.03.56,3.7,1.76l-1.31.87Z"/><path class="cls-3" d="M263.21,61.29c0-3.5,2.58-6.43,6.19-6.43,2.83,0,4.81,1.83,4.81,4.5,0,3.56-2.56,6.46-6.19,6.46-2.8,0-4.81-1.85-4.81-4.52ZM269.31,56.1c-2.6,0-4.52,2.36-4.52,5.1,0,1.91,1.25,3.34,3.32,3.34,2.65,0,4.54-2.34,4.54-5.1,0-1.89-1.25-3.34-3.34-3.34Z"/><path class="cls-3" d="M293.29,58.04c0,.36-.04.71-.11,1.11l-1.13,6.39h-1.49l1.02-5.77c.09-.47.13-.91.13-1.31,0-1.45-.6-2.36-2.32-2.36-2.2,0-3.09,1.96-3.43,3.9l-.98,5.54h-1.49l1.09-6.06c.09-.49.13-.96.13-1.36,0-1.25-.53-2.03-2.07-2.03-1.45,0-3.21,1.31-3.7,4.1l-.93,5.34h-1.49l1.42-8.13c.11-.56.27-1.58.33-2.29h1.42c-.07.56-.16,1.34-.24,1.78h.04c.85-1.27,2.12-2.05,3.61-2.05,1.14,0,2.56.42,2.92,2.2.8-1.4,2.09-2.2,3.67-2.2,2.25,0,3.58,1.22,3.58,3.18Z"/><path class="cls-3" d="M312.75,58.04c0,.36-.04.71-.11,1.11l-1.14,6.39h-1.49l1.02-5.77c.09-.47.13-.91.13-1.31,0-1.45-.6-2.36-2.32-2.36-2.2,0-3.09,1.96-3.43,3.9l-.98,5.54h-1.49l1.09-6.06c.09-.49.13-.96.13-1.36,0-1.25-.53-2.03-2.07-2.03-1.45,0-3.21,1.31-3.7,4.1l-.94,5.34h-1.49l1.42-8.13c.11-.56.27-1.58.33-2.29h1.42c-.07.56-.16,1.34-.25,1.78h.04c.85-1.27,2.12-2.05,3.61-2.05,1.13,0,2.56.42,2.92,2.2.8-1.4,2.09-2.2,3.67-2.2,2.25,0,3.58,1.22,3.58,3.18Z"/><path class="cls-3" d="M316.96,60.74c-.02.18-.04.33-.04.49,0,1.94,1.47,3.32,3.36,3.32,1.62,0,2.87-.85,3.61-1.83l.93.89c-1.2,1.45-2.87,2.2-4.67,2.2-2.67,0-4.74-1.67-4.74-4.59,0-3.38,2.65-6.37,6.03-6.37,2.83,0,4.34,1.67,4.34,4.07,0,.36-.04,1.2-.2,1.8h-8.62ZM324.24,59.62c.02-.22.04-.56.04-.78,0-1.6-1-2.74-2.89-2.74-2.2,0-3.78,1.63-4.23,3.52h7.08Z"/><path class="cls-3" d="M331.25,55.12c-.07.56-.16,1.34-.24,1.78h.04c.8-1.27,2.16-2.05,3.56-2.05,2.25,0,3.58,1.22,3.58,3.18,0,.36-.04.71-.11,1.11l-1.14,6.39h-1.49l1.02-5.77c.09-.47.13-.91.13-1.31,0-1.45-.6-2.36-2.31-2.36-1.6,0-3.34,1.31-3.83,4.1l-.94,5.34h-1.49l1.42-8.13c.11-.56.27-1.58.33-2.29h1.45Z"/><path class="cls-3" d="M346.97,54.86c1.49,0,2.96.71,3.63,2.03h.04l1.45-8.17h1.49l-2.98,16.83h-1.49l.31-1.71h-.04c-.67,1.07-2.16,1.98-3.83,1.98-2.83,0-4.7-1.83-4.7-4.5,0-3.56,2.6-6.46,6.12-6.46ZM345.68,64.54c2.6,0,4.63-2.31,4.63-5.08,0-1.96-1.31-3.36-3.36-3.36-2.74,0-4.54,2.27-4.54,5.1,0,1.87,1.16,3.34,3.27,3.34Z"/></g></svg>