<svg xmlns="http://www.w3.org/2000/svg" id="AUDIT_INSIGHT" viewBox="0 0 347.53 60.83"><defs><style>.cls-1{fill:#fff;}.cls-2{fill:#1d8da7;}</style></defs><path class="cls-1" d="M26.32,33.75l-2.55-6.45h-12.72l-2.41,6.45H0L13.79.88h7.71l13.65,32.86h-8.82ZM17.5,9.65l-4.18,11.28h8.26l-4.08-11.28Z"/><path class="cls-1" d="M50.73,34.63c-8.63,0-14.02-5.38-14.02-13.28V.88h7.89v19.82c0,3.53,1.72,6.78,6.17,6.78s6.17-3.25,6.17-6.78V.88h7.94v20.47c0,7.89-5.57,13.28-14.16,13.28Z"/><path class="cls-1" d="M83.54,33.75h-12.25V.88h11.88c9.33,0,18.8,3.9,18.8,16.34,0,11.56-9.38,16.52-18.43,16.52ZM82.99,7.66h-3.95v19.22h3.76c5.66,0,10.91-2.32,10.91-9.65s-5.25-9.56-10.72-9.56Z"/><path class="cls-1" d="M107.21,33.75V.88h7.98v32.86h-7.98Z"/><path class="cls-1" d="M136.03,7.66v26.09h-7.94V7.66h-9.28V.88h26.5v6.78h-9.28Z"/><path class="cls-1" d="M159.43,33.75V.88h7.98v32.86h-7.98Z"/><path class="cls-1" d="M195.07,33.75l-13.23-21.49h-.14l.19,21.49h-7.71V.88h9.05l13.18,21.44h.14l-.19-21.44h7.71v32.86h-9Z"/><path class="cls-1" d="M228.21,9.42c-1.35-1.72-3.81-2.83-5.85-2.83s-4.6.7-4.6,3.3c0,2.18,1.95,2.88,5.06,3.85,4.46,1.44,10.21,3.34,10.21,9.89,0,7.57-6.08,10.95-12.58,10.95-4.69,0-9.42-1.72-12.3-4.73l5.2-5.29c1.58,2,4.5,3.48,7.1,3.48,2.41,0,4.55-.93,4.55-3.57,0-2.51-2.51-3.3-6.82-4.69-4.18-1.35-8.4-3.48-8.4-9.42,0-7.29,6.59-10.3,12.72-10.3,3.71,0,7.89,1.39,10.77,4.04l-5.06,5.34Z"/><path class="cls-1" d="M238.28,33.75V.88h7.98v32.86h-7.98Z"/><path class="cls-1" d="M269.56,34.58c-10.49,0-18.06-6.96-18.06-17.31s7.8-17.27,17.82-17.27c5.15,0,9.93,1.72,12.67,4.36l-5.01,5.71c-1.53-1.76-4.18-3.06-7.38-3.06-5.57,0-9.65,4.36-9.65,10.26s3.57,10.35,10.03,10.35c1.86,0,3.57-.28,4.97-.88v-5.99h-6.27v-6.41h13.55v17.41c-3.2,1.67-7.61,2.83-12.67,2.83Z"/><path class="cls-1" d="M309.48,33.75v-13.74h-12.81v13.74h-7.94V.88h7.94v12.44h12.81V.88h7.94v32.86h-7.94Z"/><path class="cls-1" d="M338.25,7.66v26.09h-7.94V7.66h-9.28V.88h26.5v6.78h-9.28Z"/><path class="cls-1" d="M42.01,56.75h-1.39l7.74-12.01h1.19l2.49,12.01h-1.27l-.64-3.16h-6.14l-1.97,3.16ZM44.68,52.48h5.26l-1.26-6.38-4,6.38Z"/><path class="cls-1" d="M56.33,48.81c-.05.42-.12,1.02-.19,1.36h.03c.61-.97,1.65-1.56,2.71-1.56,1.71,0,2.73.93,2.73,2.43,0,.27-.03.54-.08.85l-.87,4.87h-1.14l.78-4.39c.07-.36.1-.7.1-1,0-1.1-.46-1.8-1.76-1.8-1.22,0-2.55,1-2.92,3.12l-.71,4.07h-1.14l1.09-6.19c.08-.42.2-1.2.25-1.75h1.1Z"/><path class="cls-1" d="M69.65,51.14c0-1.14-.7-1.58-1.87-1.58-.93,0-1.88.44-2.48.95l-.51-.76c.76-.68,2-1.14,3.11-1.14,1.51,0,2.82.68,2.82,2.29,0,.2-.03.63-.07.85l-.58,3.22c-.1.61-.19,1.34-.19,1.78h-1.02c0-.39.03-.87.1-1.29h-.03c-.92,1.05-1.75,1.44-3.07,1.44-1.07,0-2.41-.51-2.41-2.05,0-2.54,3.19-2.97,6.11-2.97.07-.39.08-.58.08-.75ZM69.14,52.75c-2.02,0-4.5.31-4.5,1.97,0,1,.81,1.27,1.63,1.27,1.63,0,2.77-1.17,3.02-2.58l.12-.66h-.27Z"/><path class="cls-1" d="M73.92,56.75h-1.15l2.26-12.83h1.15l-2.26,12.83Z"/><path class="cls-1" d="M79.61,55.5h.03l3.87-6.69h1.27l-6.01,9.99c-.75,1.22-1.46,2.02-2.63,2.02-.34,0-.65-.03-.97-.1l.17-1.05c.24.08.51.14.75.14.71,0,1.2-.51,1.73-1.41l.98-1.66-1.66-7.92h1.19l1.27,6.69Z"/><path class="cls-1" d="M91.74,49.63l-5.84,6.13h4.92l-.17,1h-6.45l.14-.81,5.82-6.16h-4.5l.19-.97h6.04l-.15.81Z"/><path class="cls-1" d="M93.86,53.09c-.02.14-.03.25-.03.37,0,1.48,1.12,2.53,2.56,2.53,1.24,0,2.19-.64,2.75-1.39l.71.68c-.92,1.1-2.19,1.68-3.56,1.68-2.04,0-3.61-1.27-3.61-3.5,0-2.58,2.02-4.85,4.6-4.85,2.15,0,3.31,1.27,3.31,3.1,0,.27-.03.92-.15,1.37h-6.57ZM99.4,52.24c.02-.17.03-.42.03-.59,0-1.22-.76-2.09-2.21-2.09-1.68,0-2.88,1.24-3.22,2.68h5.4Z"/><path class="cls-2" d="M108.9,56.74v-8.58l7.43,4.29-7.43,4.29Z"/><path class="cls-1" d="M124.27,56.75h-1.2l2.12-12.01h1.2l-2.12,12.01Z"/><path class="cls-1" d="M129.85,48.81c-.05.42-.12,1.02-.19,1.36h.03c.61-.97,1.65-1.56,2.71-1.56,1.71,0,2.73.93,2.73,2.43,0,.27-.03.54-.08.85l-.87,4.87h-1.14l.78-4.39c.07-.36.1-.7.1-1,0-1.1-.46-1.8-1.76-1.8-1.22,0-2.55,1-2.92,3.12l-.71,4.07h-1.14l1.09-6.19c.08-.42.2-1.2.25-1.75h1.1Z"/><path class="cls-1" d="M141.73,49.76h-2.15l-.83,4.65c-.03.2-.05.39-.05.54,0,.75.41.93.98.93.32,0,.76-.1.97-.25l-.14.98c-.29.15-.78.24-1.31.24-.75,0-1.7-.31-1.7-1.58,0-.17.02-.34.05-.54l.88-4.97h-1.65l.19-.95h1.61l.39-2.24h1.14l-.39,2.24h2.19l-.19.95Z"/><path class="cls-1" d="M143.56,53.09c-.02.14-.03.25-.03.37,0,1.48,1.12,2.53,2.56,2.53,1.24,0,2.19-.64,2.75-1.39l.71.68c-.92,1.1-2.19,1.68-3.56,1.68-2.04,0-3.61-1.27-3.61-3.5,0-2.58,2.02-4.85,4.6-4.85,2.15,0,3.31,1.27,3.31,3.1,0,.27-.03.92-.15,1.37h-6.57ZM149.11,52.24c.02-.17.03-.42.03-.59,0-1.22-.76-2.09-2.21-2.09-1.68,0-2.88,1.24-3.22,2.68h5.4Z"/><path class="cls-1" d="M153.35,48.81h1.09c-.05.42-.12,1.02-.19,1.36h.03c.58-.92,1.53-1.56,2.65-1.56.29,0,.51.02.75.08l-.27,1.09c-.12-.05-.47-.1-.78-.1-1.22,0-2.39.88-2.77,3l-.71,4.07h-1.14l1.09-6.19c.08-.42.2-1.2.25-1.75Z"/><path class="cls-1" d="M163.22,48.61c2.15,0,3.58,1.39,3.58,3.43,0,2.71-1.99,4.92-4.67,4.92-1.14,0-2.26-.54-2.77-1.54h-.03l-.97,5.41h-1.14l2.14-12.01h1.14l-.24,1.29h.03c.51-.8,1.65-1.49,2.92-1.49ZM163.12,49.56c-1.98,0-3.53,1.76-3.53,3.87,0,1.49,1,2.56,2.56,2.56,2.09,0,3.46-1.73,3.46-3.89,0-1.42-.88-2.54-2.49-2.54Z"/><path class="cls-1" d="M169.91,48.81h1.09c-.05.42-.12,1.02-.19,1.36h.03c.58-.92,1.53-1.56,2.65-1.56.29,0,.51.02.75.08l-.27,1.09c-.12-.05-.47-.1-.78-.1-1.22,0-2.39.88-2.77,3l-.71,4.07h-1.14l1.09-6.19c.08-.42.2-1.2.25-1.75Z"/><path class="cls-1" d="M175.42,53.09c-.02.14-.03.25-.03.37,0,1.48,1.12,2.53,2.56,2.53,1.24,0,2.19-.64,2.75-1.39l.71.68c-.92,1.1-2.19,1.68-3.56,1.68-2.04,0-3.61-1.27-3.61-3.5,0-2.58,2.02-4.85,4.6-4.85,2.16,0,3.31,1.27,3.31,3.1,0,.27-.03.92-.15,1.37h-6.57ZM180.97,52.24c.02-.17.03-.42.03-.59,0-1.22-.76-2.09-2.21-2.09-1.68,0-2.88,1.24-3.22,2.68h5.4Z"/><path class="cls-1" d="M188.4,49.76h-2.16l-.83,4.65c-.03.2-.05.39-.05.54,0,.75.41.93.98.93.32,0,.76-.1.97-.25l-.14.98c-.29.15-.78.24-1.31.24-.75,0-1.7-.31-1.7-1.58,0-.17.02-.34.05-.54l.88-4.97h-1.65l.19-.95h1.61l.39-2.24h1.14l-.39,2.24h2.19l-.19.95Z"/><path class="cls-2" d="M195.67,56.74v-8.58l7.43,4.29-7.43,4.29Z"/><path class="cls-1" d="M211.04,56.75h-1.21l2.12-12.01h3.24c2.12,0,3.72.92,3.72,2.87,0,2.22-1.56,3.22-3.53,3.43l2.65,5.72h-1.37l-2.51-5.62h-2.12l-.98,5.62ZM212.21,50.12h2.14c1.61,0,3.34-.39,3.34-2.38,0-1.31-1.02-1.97-2.68-1.97h-2.04l-.76,4.34Z"/><path class="cls-1" d="M220.88,53.09c-.02.14-.03.25-.03.37,0,1.48,1.12,2.53,2.56,2.53,1.24,0,2.19-.64,2.75-1.39l.71.68c-.92,1.1-2.19,1.68-3.56,1.68-2.04,0-3.61-1.27-3.61-3.5,0-2.58,2.02-4.85,4.6-4.85,2.16,0,3.31,1.27,3.31,3.1,0,.27-.03.92-.15,1.37h-6.57ZM226.43,52.24c.02-.17.03-.42.03-.59,0-1.22-.76-2.09-2.21-2.09-1.68,0-2.88,1.24-3.22,2.68h5.4Z"/><path class="cls-1" d="M235.95,50.61c-.27-.61-.98-1.05-1.85-1.05-2.05,0-3.51,1.76-3.51,3.89,0,1.46.95,2.54,2.56,2.54,1,0,1.78-.42,2.34-1.04l.73.63c-.81.83-1.82,1.37-3.16,1.37-2.26,0-3.68-1.37-3.68-3.41,0-2.71,1.88-4.94,4.75-4.94,1.17,0,2.31.42,2.82,1.34l-1,.66Z"/><path class="cls-1" d="M237.78,53.51c0-2.66,1.97-4.9,4.72-4.9,2.16,0,3.67,1.39,3.67,3.43,0,2.71-1.95,4.92-4.72,4.92-2.14,0-3.67-1.41-3.67-3.44ZM242.43,49.56c-1.99,0-3.45,1.8-3.45,3.89,0,1.46.95,2.54,2.53,2.54,2.02,0,3.46-1.78,3.46-3.89,0-1.44-.95-2.54-2.54-2.54Z"/><path class="cls-1" d="M260.7,51.04c0,.27-.03.54-.08.85l-.87,4.87h-1.14l.78-4.39c.07-.36.1-.7.1-1,0-1.1-.46-1.8-1.76-1.8-1.68,0-2.36,1.49-2.61,2.97l-.75,4.23h-1.14l.83-4.62c.07-.37.1-.73.1-1.04,0-.95-.41-1.54-1.58-1.54-1.1,0-2.44,1-2.82,3.12l-.71,4.07h-1.14l1.09-6.19c.08-.42.2-1.2.25-1.75h1.09c-.05.42-.12,1.02-.19,1.36h.03c.64-.97,1.61-1.56,2.75-1.56.87,0,1.95.32,2.22,1.68.61-1.07,1.59-1.68,2.8-1.68,1.71,0,2.73.93,2.73,2.43Z"/><path class="cls-1" d="M275.53,51.04c0,.27-.03.54-.08.85l-.87,4.87h-1.14l.78-4.39c.07-.36.1-.7.1-1,0-1.1-.46-1.8-1.76-1.8-1.68,0-2.36,1.49-2.61,2.97l-.75,4.23h-1.14l.83-4.62c.07-.37.1-.73.1-1.04,0-.95-.41-1.54-1.58-1.54-1.1,0-2.44,1-2.82,3.12l-.71,4.07h-1.14l1.09-6.19c.08-.42.2-1.2.25-1.75h1.09c-.05.42-.12,1.02-.19,1.36h.03c.64-.97,1.61-1.56,2.75-1.56.87,0,1.95.32,2.22,1.68.61-1.07,1.59-1.68,2.8-1.68,1.71,0,2.73.93,2.73,2.43Z"/><path class="cls-1" d="M278.73,53.09c-.02.14-.03.25-.03.37,0,1.48,1.12,2.53,2.56,2.53,1.24,0,2.19-.64,2.75-1.39l.71.68c-.92,1.1-2.19,1.68-3.56,1.68-2.04,0-3.61-1.27-3.61-3.5,0-2.58,2.02-4.85,4.6-4.85,2.16,0,3.31,1.27,3.31,3.1,0,.27-.03.92-.15,1.37h-6.57ZM284.28,52.24c.02-.17.03-.42.03-.59,0-1.22-.76-2.09-2.21-2.09-1.68,0-2.88,1.24-3.22,2.68h5.4Z"/><path class="cls-1" d="M289.62,48.81c-.05.42-.12,1.02-.19,1.36h.03c.61-.97,1.65-1.56,2.71-1.56,1.71,0,2.73.93,2.73,2.43,0,.27-.03.54-.08.85l-.87,4.87h-1.14l.78-4.39c.07-.36.1-.7.1-1,0-1.1-.46-1.8-1.76-1.8-1.22,0-2.54,1-2.92,3.12l-.71,4.07h-1.14l1.09-6.19c.08-.42.2-1.2.25-1.75h1.1Z"/><path class="cls-1" d="M301.6,48.61c1.14,0,2.26.54,2.77,1.54h.03l1.1-6.23h1.14l-2.27,12.83h-1.14l.24-1.31h-.03c-.51.81-1.65,1.51-2.92,1.51-2.16,0-3.58-1.39-3.58-3.43,0-2.71,1.99-4.92,4.67-4.92ZM300.62,55.99c1.99,0,3.53-1.76,3.53-3.87,0-1.49-1-2.56-2.56-2.56-2.09,0-3.46,1.73-3.46,3.89,0,1.43.88,2.54,2.49,2.54Z"/></svg>