<svg xmlns="http://www.w3.org/2000/svg" fill="none" viewBox="4 2 29.33 30.74">
  <!-- Federal Information Assessment Review - Document with detailed assessment elements -->
  
  <!-- Main document -->
  <rect x="4" y="2" width="20" height="28" rx="2" fill="currentColor"/>
  <rect x="6" y="4" width="16" height="24" rx="1" fill="white"/>
  
  <!-- Document header with lines -->
  <rect x="8" y="6" width="12" height="3" rx="0.5" fill="currentColor"/>
  <rect x="8" y="10" width="8" height="1" rx="0.5" fill="currentColor"/>
  
  <!-- Content lines representing information -->
  <rect x="8" y="13" width="10" height="1" rx="0.5" fill="currentColor"/>
  <rect x="8" y="15" width="12" height="1" rx="0.5" fill="currentColor"/>
  <rect x="8" y="17" width="9" height="1" rx="0.5" fill="currentColor"/>
  <rect x="8" y="19" width="11" height="1" rx="0.5" fill="currentColor"/>
  
  <!-- Assessment checkmarks/indicators -->
  <circle cx="9" cy="22" r="1.5" fill="currentColor"/>
  <path d="M8.2 22l0.8 0.6 1.4-1.2" stroke="white" stroke-width="0.8" fill="none" stroke-linecap="round"/>
  
  <circle cx="9" cy="25" r="1.5" fill="currentColor"/>
  <path d="M8.2 25l0.8 0.6 1.4-1.2" stroke="white" stroke-width="0.8" fill="none" stroke-linecap="round"/>
  
  <!-- Magnifying glass overlay for review aspect -->
  <circle cx="26" cy="24" r="6" fill="currentColor"/>
  <circle cx="26" cy="24" r="4" fill="white"/>
  <circle cx="26" cy="24" r="2.5" fill="none" stroke="currentColor" stroke-width="1"/>
  
  <!-- Magnifying glass handle -->
  <rect x="30.5" y="28.5" width="4" height="2" rx="1" fill="currentColor" transform="rotate(45 30.5 28.5)"/>
  
  <!-- Federal "F" in magnifying glass -->
  <path d="M24.5 22.5h3v1h-2v1h1.5v1h-1.5v2h-1v-5z" fill="currentColor"/>
</svg>