<svg xmlns="http://www.w3.org/2000/svg" fill="none" viewBox="3 2 24 32">
  <!-- Financial Management Review - Advanced calculator with financial symbols -->
  
  <!-- Calculator body -->
  <rect x="3" y="2" width="24" height="32" rx="3" fill="currentColor"/>
  <rect x="5" y="4" width="20" height="28" rx="2" fill="white"/>
  
  <!-- Display screen -->
  <rect x="7" y="6" width="16" height="6" rx="1" fill="currentColor"/>
  
  <!-- Display content - financial figures -->
  <rect x="8" y="7.5" width="2" height="1" rx="0.2" fill="white"/>
  <rect x="11" y="7.5" width="3" height="1" rx="0.2" fill="white"/>
  <rect x="15" y="7.5" width="2" height="1" rx="0.2" fill="white"/>
  <rect x="18" y="7.5" width="4" height="1" rx="0.2" fill="white"/>
  
  <rect x="8" y="9.5" width="4" height="1" rx="0.2" fill="white"/>
  <rect x="13" y="9.5" width="2" height="1" rx="0.2" fill="white"/>
  <rect x="16" y="9.5" width="6" height="1" rx="0.2" fill="white"/>
  
  <!-- Button grid -->
  <!-- Row 1 -->
  <rect x="7" y="15" width="3" height="3" rx="0.5" fill="currentColor"/>
  <rect x="11" y="15" width="3" height="3" rx="0.5" fill="currentColor"/>
  <rect x="15" y="15" width="3" height="3" rx="0.5" fill="currentColor"/>
  <rect x="19" y="15" width="3" height="3" rx="0.5" fill="currentColor"/>
  
  <!-- Row 2 -->
  <rect x="7" y="19" width="3" height="3" rx="0.5" fill="currentColor"/>
  <rect x="11" y="19" width="3" height="3" rx="0.5" fill="currentColor"/>
  <rect x="15" y="19" width="3" height="3" rx="0.5" fill="currentColor"/>
  <rect x="19" y="19" width="3" height="7" rx="0.5" fill="currentColor"/>
  
  <!-- Row 3 -->
  <rect x="7" y="23" width="3" height="3" rx="0.5" fill="currentColor"/>
  <rect x="11" y="23" width="3" height="3" rx="0.5" fill="currentColor"/>
  <rect x="15" y="23" width="3" height="3" rx="0.5" fill="currentColor"/>
  
  <!-- Row 4 -->
  <rect x="7" y="27" width="7" height="3" rx="0.5" fill="currentColor"/>
  <rect x="15" y="27" width="3" height="3" rx="0.5" fill="currentColor"/>
  
  <!-- Financial symbols on buttons -->
  <!-- Dollar sign -->
  <path d="M8.5 16.2c0-0.3 0.2-0.5 0.5-0.5s0.5 0.2 0.5 0.5v0.1c0.2 0 0.3 0.1 0.3 0.1l-0.1 0.3c0 0-0.1-0.1-0.2-0.1v0.4c0.2 0.1 0.3 0.2 0.3 0.4s-0.1 0.4-0.3 0.4v0.1c0 0.3-0.2 0.5-0.5 0.5s-0.5-0.2-0.5-0.5v-0.1c-0.2 0-0.3-0.1-0.3-0.1l0.1-0.3c0 0 0.1 0.1 0.2 0.1v-0.4c-0.2-0.1-0.3-0.2-0.3-0.4s0.1-0.4 0.3-0.4v-0.1z" fill="white"/>
  
  <!-- Percentage sign -->
  <circle cx="12.3" cy="16.3" r="0.3" fill="white"/>
  <circle cx="13.7" cy="17.7" r="0.3" fill="white"/>
  <line x1="12" y1="17.5" x2="14" y2="15.5" stroke="white" stroke-width="0.3"/>
  
  <!-- Equals sign -->
  <rect x="16" y="16.2" width="2" height="0.3" fill="white"/>
  <rect x="16" y="17.2" width="2" height="0.3" fill="white"/>
  
  <!-- Plus sign -->
  <rect x="20.2" y="16.2" width="0.6" height="2" fill="white"/>
  <rect x="19.7" y="16.7" width="1.6" height="0.6" fill="white"/>
</svg>